<?xml version="1.0" encoding="utf-8"?>
<!-- Generator: Adobe Illustrator 25.2.1, SVG Export Plug-In . SVG Version: 6.00 Build 0)  -->
<svg version="1.1" id="Graphic_elemetns" xmlns="http://www.w3.org/2000/svg" xmlns:xlink="http://www.w3.org/1999/xlink" x="0px"
	 y="0px" viewBox="0 0 832.1 809.1" style="enable-background:new 0 0 832.1 809.1;" xml:space="preserve">
<style type="text/css">
	.st0{fill:#FFFFFF;}
</style>
<path class="st0" d="M815.2,417.3L695.3,258.1c-5-6.7-12.7-10.5-21-10.6c-8.4-0.1-16.1,3.6-21.4,10.3L529.1,416.9
	c-6.3,8.1-7.4,18.8-2.9,28c4.5,9.2,13.7,15,24,15h65.5c-25.6,113.7-126,194.8-244,194.8c-138,0-250.2-112.2-250.2-250.2
	s112.2-250.2,250.2-250.2c75.4,0,146.1,33.6,193.9,92.1c9.3,11.4,22.4,18.5,37,19.9c14.6,1.5,28.9-2.8,40.3-12.1
	c11.4-9.3,18.5-22.4,19.9-37c1.5-14.6-2.8-28.9-12.1-40.3c-68.8-84.1-170.5-132.4-279-132.4C173.1,44.5,11.6,206,11.6,404.6
	s161.5,360.1,360.1,360.1c177.6,0,328.7-130.3,355.7-304.7H794c10.1,0,19.2-5.6,23.8-14.7C822.3,436.2,821.3,425.4,815.2,417.3z"/>
</svg>
