<?xml version="1.0" encoding="utf-8"?>
<!-- Generator: Adobe Illustrator 25.2.1, SVG Export Plug-In . SVG Version: 6.00 Build 0)  -->
<svg version="1.1" id="Capa_1" xmlns="http://www.w3.org/2000/svg" xmlns:xlink="http://www.w3.org/1999/xlink" x="0px" y="0px"
	 viewBox="0 0 216.45 216.45" style="enable-background:new 0 0 216.45 216.45;" xml:space="preserve">
<style type="text/css">
	.st0{display:none;}
	.st1{display:inline;fill-rule:evenodd;clip-rule:evenodd;fill:#FF8500;}
	.st2{display:inline;}
	.st3{fill-rule:evenodd;clip-rule:evenodd;fill:#58556C;}
	.st4{fill-rule:evenodd;clip-rule:evenodd;fill:#E4AE7C;}
	.st5{fill-rule:evenodd;clip-rule:evenodd;fill:#D67F54;}
	.st6{fill-rule:evenodd;clip-rule:evenodd;fill:#20201E;}
	.st7{fill-rule:evenodd;clip-rule:evenodd;fill:#DA9077;}
	.st8{fill-rule:evenodd;clip-rule:evenodd;fill:#3F2716;}
	.st9{fill-rule:evenodd;clip-rule:evenodd;fill:#35253D;}
	.st10{fill-rule:evenodd;clip-rule:evenodd;fill:#2E1E11;}
	.st11{fill-rule:evenodd;clip-rule:evenodd;fill:#FFFFFF;}
	.st12{fill-rule:evenodd;clip-rule:evenodd;fill:#67627E;}
	.st13{fill-rule:evenodd;clip-rule:evenodd;fill:#383546;}
	.st14{fill-rule:evenodd;clip-rule:evenodd;fill:#432D4C;}
	.st15{display:inline;fill-rule:evenodd;clip-rule:evenodd;fill:#9976AE;}
	.st16{fill-rule:evenodd;clip-rule:evenodd;fill:#39271F;}
	.st17{fill-rule:evenodd;clip-rule:evenodd;fill:#462917;}
	.st18{fill-rule:evenodd;clip-rule:evenodd;fill:#623A1C;}
	.st19{fill-rule:evenodd;clip-rule:evenodd;fill:#774D30;}
	.st20{fill-rule:evenodd;clip-rule:evenodd;fill:#FF0000;}
	.st21{fill-rule:evenodd;clip-rule:evenodd;fill:#575756;}
	.st22{fill-rule:evenodd;clip-rule:evenodd;fill:#784928;}
	.st23{fill-rule:evenodd;clip-rule:evenodd;fill:#231A11;}
	.st24{fill-rule:evenodd;clip-rule:evenodd;fill:#D57B19;}
</style>
<g class="st0">
	<path class="st1" d="M51.34,28.58h113.76c16.14,0,29.34,13.2,29.34,29.34v113.76c0,16.14-13.2,29.34-29.34,29.34H51.34
		c-16.14,0-29.34-13.2-29.34-29.34V57.92C22,41.78,35.2,28.58,51.34,28.58z"/>
	<g class="st2">
		<path class="st3" d="M108.22,208.24H37.24c-0.82-36.3,27.11-57.37,51.09-65.23c1.95-10.13,1.45-23.26,1.45-23.26h18.45h18.45
			c0,0-0.5,13.13,1.45,23.26c23.98,7.86,51.91,28.94,51.09,65.23H108.22z"/>
		<path class="st4" d="M69.15,90.64c-0.17-1.9-7.94-4.14-10.52,2.07c-2.59,6.21,2.07,15.01,10.87,15.7c8.8,0.69,6.21-0.86,6.21-0.86
			L69.15,90.64z"/>
		<path class="st4" d="M147.48,90.64c0.17-1.9,7.94-4.14,10.52,2.07c2.59,6.21-2.07,15.01-10.87,15.7c-8.8,0.69-6.21-0.86-6.21-0.86
			L147.48,90.64z"/>
		<path class="st5" d="M126.9,132.77c-7.99,15.28-28.56,16.87-37.39,0.59c0.23-3.33,0.31-6.47,0.32-8.89h36.79
			C126.63,126.75,126.7,129.66,126.9,132.77z"/>
		<path class="st4" d="M108.22,132.46c-45.77,1.1-68.88-111.78,0-108.88C177.11,20.69,154,133.56,108.22,132.46z"/>
		<path class="st6" d="M92.85,80.07c1.84,1.33,2.25,3.89,0.92,5.72c-1.33,1.83-3.9,2.25-5.73,0.92c-1.84-1.33-2.25-3.89-0.92-5.72
			C88.44,79.16,91.01,78.75,92.85,80.07z"/>
		<path class="st6" d="M123.86,80.07c-1.84,1.33-2.25,3.89-0.92,5.72c1.33,1.83,3.9,2.25,5.73,0.92c1.84-1.33,2.25-3.89,0.92-5.72
			C128.26,79.16,125.69,78.75,123.86,80.07z"/>
		<path class="st7" d="M87.79,94.95c2.34,1.79,2.44,4.42,0.23,5.87c-2.21,1.45-5.9,1.17-8.23-0.63c-2.34-1.79-2.44-4.42-0.23-5.87
			C81.77,92.88,85.45,93.16,87.79,94.95z"/>
		<path class="st7" d="M128.91,94.95c-2.34,1.79-2.44,4.42-0.23,5.87c2.21,1.45,5.9,1.17,8.23-0.63c2.34-1.79,2.44-4.42,0.23-5.87
			C134.94,92.88,131.25,93.16,128.91,94.95z"/>
		<path class="st8" d="M94.64,68.94c-0.15-0.07-0.31-0.13-0.46-0.19c-1.79-0.64-3.31-0.82-5.24-0.68c-1.89,0.2-3.31,0.63-4.89,1.53
			c-0.74,0.48-3.63,2.82-2.81,3.68c0.33,0.09,3.21-1.38,4.06-1.65c1.31-0.39,2.38-0.54,3.78-0.51c1.3,0.06,2.28,0.25,3.46,0.7
			c0.03,0.01,0.25,0.1,0.29,0.12c2.41,1.17,2.2,1.93,3.84,0.8C99.2,71.4,96.59,69.95,94.64,68.94z"/>
		<path class="st8" d="M121.81,68.94c0.15-0.07,0.31-0.13,0.46-0.19c1.79-0.64,3.31-0.82,5.24-0.68c1.89,0.2,3.3,0.63,4.89,1.53
			c0.74,0.48,3.63,2.82,2.81,3.68c-0.33,0.09-3.21-1.38-4.06-1.65c-1.32-0.39-2.38-0.54-3.78-0.51c-1.3,0.06-2.28,0.25-3.46,0.7
			c-0.03,0.01-0.25,0.1-0.29,0.12c-2.41,1.17-2.2,1.93-3.84,0.8C117.25,71.4,119.86,69.95,121.81,68.94z"/>
		<path class="st5" d="M106.07,117.46c-0.23-0.14-0.31-0.44-0.18-0.68c0.14-0.24,0.44-0.31,0.68-0.18c0.68,0.4,1.55,0.6,2.42,0.6
			c0.87,0,1.72-0.2,2.38-0.6c0.23-0.14,0.54-0.07,0.68,0.17c0.14,0.23,0.07,0.54-0.17,0.68c-0.82,0.5-1.85,0.74-2.89,0.74
			C107.96,118.2,106.91,117.95,106.07,117.46z"/>
		<path class="st5" d="M107.85,99.5c-0.27,0-0.5-0.22-0.5-0.5c0-0.27,0.22-0.5,0.5-0.5c1.19,0,2.62-0.01,3.71-0.2
			c0.9-0.15,1.57-0.4,1.57-0.81c0-1.43-1.45-10.3-1.45-10.33c-0.04-0.27,0.14-0.52,0.41-0.57c0.27-0.04,0.52,0.14,0.57,0.41
			c0,0.03,1.47,8.99,1.47,10.48c0,1.04-1.02,1.55-2.4,1.79C110.54,99.49,109.07,99.5,107.85,99.5z"/>
		<path class="st5" d="M155.19,97.61c0,0.27-0.22,0.5-0.5,0.5c-0.27,0-0.5-0.22-0.5-0.5c0-1.51-0.26-2.46-0.68-2.97
			c-0.25-0.31-0.57-0.45-0.92-0.46c-0.41-0.01-0.87,0.14-1.35,0.42c-1.3,0.74-2.65,2.3-3.4,4.01c-0.36,0.82-0.67,1.66-0.85,2.3
			c0.76-0.53,1.6-0.74,2.31-0.67c0.4,0.04,0.77,0.17,1.07,0.39c0.31,0.23,0.55,0.54,0.67,0.94c0.2,0.68,0.05,1.59-0.68,2.69
			c-0.15,0.23-0.46,0.29-0.69,0.14c-0.23-0.15-0.29-0.46-0.14-0.69c0.55-0.81,0.68-1.43,0.56-1.85c-0.05-0.18-0.16-0.32-0.29-0.42
			c-0.16-0.11-0.36-0.18-0.59-0.2c-0.64-0.06-1.44,0.21-2.12,0.89c-0.18,0.18-0.35,0.28-0.5,0.32c-0.4,0.09-0.63-0.09-0.72-0.48
			l-0.01-0.03c-0.03-0.15-0.02-0.34,0.01-0.58c0.11-0.71,0.54-1.95,1.05-3.13c0.83-1.89,2.34-3.64,3.81-4.47
			c0.63-0.36,1.27-0.56,1.86-0.54c0.64,0.02,1.22,0.27,1.67,0.83C154.85,94.7,155.19,95.86,155.19,97.61z"/>
		<path class="st5" d="M62.25,97.61c0,0.27-0.22,0.5-0.5,0.5c-0.27,0-0.5-0.22-0.5-0.5c0-1.75,0.35-2.91,0.9-3.59
			c0.45-0.56,1.03-0.81,1.67-0.83c0.59-0.01,1.23,0.19,1.86,0.54c1.47,0.83,2.99,2.58,3.81,4.47c0.52,1.18,0.94,2.43,1.05,3.13
			c0.04,0.23,0.04,0.43,0.01,0.58l-0.01,0.03c-0.09,0.39-0.32,0.57-0.72,0.48c-0.16-0.03-0.32-0.14-0.5-0.32
			c-0.67-0.68-1.48-0.95-2.12-0.89c-0.23,0.02-0.43,0.09-0.59,0.2c-0.14,0.1-0.24,0.24-0.29,0.42c-0.12,0.42,0.01,1.04,0.56,1.85
			c0.15,0.23,0.09,0.54-0.14,0.69c-0.23,0.15-0.53,0.09-0.69-0.14c-0.73-1.09-0.89-2-0.68-2.69c0.12-0.39,0.35-0.71,0.67-0.94
			c0.3-0.21,0.67-0.34,1.07-0.39c0.71-0.07,1.55,0.14,2.31,0.67c-0.18-0.64-0.49-1.48-0.85-2.3c-0.74-1.7-2.09-3.27-3.4-4.01
			c-0.48-0.27-0.95-0.43-1.35-0.42c-0.35,0.01-0.67,0.15-0.92,0.46C62.51,95.15,62.25,96.1,62.25,97.61z"/>
		<path class="st9" d="M158.88,32.97c1.91,0.37,1.66,1.93-3.91,5.86c5.14,6.48,5.93,16.77,4.18,26.43
			c-0.38,2.06-6.18,16.68-11.65,26.25c-0.51,0.89-0.17-18.98-5.91-26.92c-2.91-4.03-5.31-8.8-11.25-12.78
			c-0.06,1.13,3.46,4.21,2.15,4.83c-5.03,2.37-19.2-0.08-25.74-1.74c1.88,1.94,3.8,3.35,3.08,4.05c-2.25,2.21-16.5-1.24-25.29-7.15
			c-2.13,7.04-5.14,14.5-8.52,16.5c-9.05,5.33-5.11,27.82-7.48,24.51c-10.9-15.16-8.15-34.79-8.15-34.79
			c-1.06,1.67-2.26,3.12-3.09,4.85c-1.5,3.13-2.53-25.64,11.14-29.37c0,0-2.16-0.75-7.71,0.29c-2.04,0.38,4-5.23,10.52-5.96
			c0.19-2.83,1.45-14.2,9.77-17.87c3.86-1.7,10.18-2.86,9.37-2.37c-3.96,2.4-5.1,5.74-5.1,5.74c30.43-14.35,44.27,0.91,56.19,10.47
			C145.09,26.7,152.72,32.49,158.88,32.97z"/>
		<path class="st10" d="M89.41,70.58c4.05,0,7.72,1.64,10.37,4.3c2.65,2.65,4.3,6.32,4.3,10.37c0,4.05-1.64,7.72-4.3,10.37
			c-2.65,2.65-6.32,4.3-10.37,4.3c-4.05,0-7.72-1.64-10.37-4.3c-2.65-2.65-4.3-6.32-4.3-10.37c0-4.05,1.64-7.72,4.3-10.37
			C81.69,72.23,85.36,70.58,89.41,70.58L89.41,70.58z M98.03,76.63c-2.21-2.21-5.25-3.57-8.62-3.57c-3.37,0-6.41,1.36-8.62,3.57
			c-2.2,2.21-3.57,5.25-3.57,8.62c0,3.37,1.37,6.41,3.57,8.62c2.21,2.21,5.25,3.57,8.62,3.57c3.37,0,6.41-1.36,8.62-3.57
			c2.21-2.21,3.57-5.25,3.57-8.62C101.6,81.89,100.23,78.84,98.03,76.63z"/>
		<path class="st10" d="M127.04,70.58c4.05,0,7.72,1.64,10.37,4.3c2.65,2.65,4.3,6.32,4.3,10.37c0,4.05-1.64,7.72-4.3,10.37
			c-2.65,2.65-6.32,4.3-10.37,4.3c-4.05,0-7.72-1.64-10.37-4.3c-2.65-2.65-4.3-6.32-4.3-10.37c0-4.05,1.64-7.72,4.3-10.37
			C119.32,72.23,122.99,70.58,127.04,70.58L127.04,70.58z M135.66,76.63c-2.21-2.21-5.25-3.57-8.62-3.57
			c-3.37,0-6.41,1.36-8.62,3.57c-2.21,2.21-3.57,5.25-3.57,8.62c0,3.37,1.36,6.41,3.57,8.62c2.21,2.21,5.25,3.57,8.62,3.57
			c3.37,0,6.41-1.36,8.62-3.57c2.21-2.21,3.57-5.25,3.57-8.62C139.23,81.89,137.86,78.84,135.66,76.63z"/>
		<path class="st10" d="M75.54,84.05c0.51-0.18,1.08,0.08,1.26,0.6c0.18,0.51-0.08,1.08-0.6,1.26l-8.74,3.15
			c-0.51,0.18-1.08-0.08-1.26-0.6c-0.18-0.51,0.08-1.08,0.6-1.26L75.54,84.05z"/>
		<path class="st10" d="M140.27,85.91c-0.51-0.18-0.78-0.75-0.6-1.26c0.18-0.51,0.75-0.78,1.26-0.6l8.74,3.15
			c0.51,0.18,0.78,0.75,0.6,1.26c-0.18,0.51-0.75,0.78-1.26,0.6L140.27,85.91z"/>
		<path class="st10" d="M103.05,84.11c-0.28,0.47-0.89,0.61-1.36,0.33c-0.47-0.29-0.61-0.89-0.33-1.36c0-0.01,1.68-2.86,6.86-2.86
			c5.18,0,6.86,2.85,6.86,2.86c0.28,0.47,0.14,1.08-0.33,1.36c-0.47,0.29-1.08,0.14-1.36-0.33c0-0.01-1.11-1.9-5.17-1.9
			C104.17,82.21,103.06,84.11,103.05,84.11z"/>
		<path class="st11" d="M123.75,104.2c-6.23,2.31-25.17,2.27-31.05,0.28C95.95,116.31,120.59,116.13,123.75,104.2z"/>
		<path class="st12" d="M89.11,130.69c-0.51-0.22-1.81-0.2-1.81,0.72c0,0.99,0.93,4.41,0.26,6.93c-0.7,2.66-1.88,4.85-0.52,5.38
			c6.25,2.43,13.07,3.71,19.91,3.85c7.68,0.16,15.39-1.13,22.4-3.85c1.36-0.53,0.18-2.72-0.52-5.38c-0.67-2.52,0.26-5.94,0.27-6.93
			c0-0.92-1.3-0.94-1.81-0.72C115.09,135.92,101.32,135.92,89.11,130.69z"/>
		<path class="st13" d="M56.46,187.7c0-0.41,0.34-0.74,0.75-0.74c0.41,0,0.74,0.34,0.74,0.75l-0.18,20.54
			c0,0.41-0.34,0.74-0.75,0.74c-0.41,0-0.74-0.34-0.74-0.75L56.46,187.7z"/>
		<path class="st13" d="M158.69,187.7c0-0.41,0.34-0.74,0.75-0.74c0.41,0,0.74,0.34,0.74,0.75l-0.18,20.54
			c0,0.41-0.34,0.74-0.75,0.74c-0.41,0-0.74-0.34-0.74-0.75L158.69,187.7z"/>
		<path class="st3" d="M90.68,133.01c0.01-0.27,0.24-0.49,0.51-0.48c0.27,0.01,0.49,0.24,0.48,0.51c-0.02,0.68-0.03,1.31-0.04,1.95
			c-0.01,1.31-0.03,2.64-0.16,4.21c-0.21,2.48-1.54,4.55-1.54,4.56c-0.15,0.23-0.45,0.3-0.68,0.15c-0.23-0.15-0.3-0.45-0.15-0.68
			c0,0,1.2-1.86,1.39-4.11c0.13-1.58,0.15-2.87,0.16-4.14C90.65,134.33,90.66,133.68,90.68,133.01z"/>
		<path class="st3" d="M94.75,134.46c0.01-0.27,0.24-0.49,0.51-0.48c0.27,0.01,0.49,0.24,0.48,0.51c-0.02,0.68-0.03,1.31-0.04,1.95
			c-0.01,1.31-0.03,2.64-0.16,4.21c-0.21,2.48-1.54,4.55-1.54,4.56c-0.15,0.23-0.45,0.3-0.68,0.15c-0.23-0.15-0.3-0.45-0.15-0.68
			c0,0,1.2-1.87,1.39-4.11c0.13-1.58,0.15-2.87,0.16-4.14C94.72,135.77,94.73,135.12,94.75,134.46z"/>
		<path class="st3" d="M99.01,135.25c0.01-0.27,0.24-0.49,0.51-0.48c0.27,0.01,0.49,0.24,0.48,0.51c-0.02,0.68-0.03,1.31-0.04,1.95
			c-0.01,1.31-0.03,2.64-0.16,4.21c-0.21,2.48-1.54,4.55-1.54,4.56c-0.15,0.23-0.45,0.3-0.68,0.15c-0.23-0.15-0.3-0.45-0.15-0.68
			c0-0.01,1.2-1.87,1.39-4.11c0.13-1.58,0.15-2.87,0.16-4.14C98.98,136.56,98.99,135.91,99.01,135.25z"/>
		<path class="st3" d="M103.41,136.03c0.01-0.27,0.24-0.49,0.51-0.48c0.27,0.01,0.49,0.24,0.48,0.51c-0.02,0.68-0.03,1.31-0.04,1.95
			c-0.01,1.31-0.03,2.64-0.16,4.21c-0.21,2.48-1.54,4.55-1.54,4.56c-0.15,0.23-0.45,0.3-0.68,0.15c-0.23-0.15-0.3-0.45-0.15-0.68
			c0,0,1.2-1.87,1.39-4.11c0.13-1.58,0.15-2.87,0.16-4.14C103.38,137.35,103.39,136.7,103.41,136.03z"/>
		<path class="st3" d="M124.27,133.04c-0.01-0.27,0.21-0.5,0.48-0.51c0.27-0.01,0.5,0.21,0.51,0.48c0.02,0.66,0.03,1.32,0.04,1.97
			c0.01,1.27,0.03,2.56,0.16,4.14c0.19,2.24,1.39,4.1,1.39,4.11c0.15,0.23,0.08,0.54-0.15,0.68c-0.23,0.15-0.54,0.08-0.68-0.15
			c0,0-1.34-2.07-1.54-4.56c-0.13-1.57-0.15-2.9-0.16-4.21C124.3,134.36,124.29,133.72,124.27,133.04z"/>
		<path class="st3" d="M120.2,134.49c-0.01-0.27,0.21-0.5,0.48-0.51c0.27-0.01,0.5,0.21,0.51,0.48c0.02,0.66,0.03,1.32,0.04,1.97
			c0.01,1.27,0.03,2.56,0.16,4.14c0.19,2.24,1.39,4.1,1.39,4.11c0.15,0.23,0.08,0.54-0.15,0.68c-0.23,0.15-0.54,0.08-0.68-0.15
			c0-0.01-1.34-2.07-1.54-4.56c-0.13-1.57-0.15-2.9-0.16-4.21C120.23,135.8,120.22,135.17,120.2,134.49z"/>
		<path class="st3" d="M115.93,135.28c-0.01-0.27,0.21-0.5,0.48-0.51c0.27-0.01,0.5,0.21,0.51,0.48c0.02,0.66,0.03,1.32,0.04,1.97
			c0.01,1.27,0.03,2.56,0.16,4.14c0.19,2.24,1.39,4.1,1.39,4.11c0.15,0.23,0.08,0.53-0.15,0.68c-0.23,0.15-0.54,0.08-0.68-0.15
			c0-0.01-1.34-2.07-1.54-4.56c-0.13-1.57-0.15-2.9-0.16-4.21C115.96,136.59,115.95,135.95,115.93,135.28z"/>
		<path class="st3" d="M111.53,136.06c-0.01-0.27,0.21-0.5,0.48-0.51c0.27-0.01,0.5,0.21,0.51,0.48c0.02,0.66,0.03,1.32,0.04,1.97
			c0.01,1.27,0.03,2.56,0.16,4.14c0.19,2.24,1.39,4.1,1.39,4.11c0.15,0.23,0.08,0.54-0.15,0.68c-0.23,0.15-0.54,0.08-0.68-0.15
			c0-0.01-1.34-2.07-1.54-4.56c-0.13-1.57-0.15-2.9-0.16-4.21C111.56,137.38,111.55,136.74,111.53,136.06z"/>
		<path class="st3" d="M107.53,136.05c0-0.27,0.22-0.5,0.49-0.5c0.27,0,0.49,0.22,0.49,0.5l0.02,10.47c0,0.27-0.22,0.49-0.49,0.49
			c-0.27,0-0.49-0.22-0.49-0.49L107.53,136.05z"/>
		<path class="st14" d="M81.12,29.14c-0.13-0.24-0.04-0.54,0.2-0.67c0.24-0.13,0.54-0.04,0.67,0.2c2.73,5.06,8.39,9.5,14.92,13.05
			c8.33,4.52,18.04,7.55,24.89,8.5c0.27,0.04,0.46,0.29,0.42,0.56c-0.04,0.27-0.29,0.46-0.56,0.42c-6.95-0.96-16.8-4.03-25.23-8.6
			C89.76,38.96,83.95,34.39,81.12,29.14z"/>
		<path class="st14" d="M86.67,24.8c-0.27,0-0.5-0.22-0.5-0.5c0-0.27,0.22-0.5,0.5-0.5c7.98,0,15.41,1.38,22.18,3.63
			c7.97,2.65,15.03,6.5,20.98,10.7c6.27,4.43,11.33,9.43,14.97,15.5c3.64,6.07,5.86,13.18,6.45,21.84c0.02,0.27-0.19,0.51-0.46,0.53
			c-0.27,0.02-0.51-0.19-0.53-0.46c-0.57-8.49-2.74-15.47-6.31-21.4c-3.56-5.93-8.53-10.84-14.69-15.19
			c-5.88-4.16-12.85-7.96-20.72-10.57C101.87,26.17,94.55,24.8,86.67,24.8z"/>
		<path class="st14" d="M90.29,20.29c-0.25,0.12-0.54,0.01-0.66-0.24c-0.11-0.25-0.01-0.54,0.24-0.66c20.35-9.38,33.61-0.04,45.04,8
			c2.82,1.99,5.54,3.9,8.2,5.41c0.24,0.13,0.32,0.44,0.19,0.67c-0.13,0.24-0.44,0.32-0.67,0.19c-2.71-1.54-5.44-3.46-8.28-5.46
			C123.13,20.31,110.13,11.16,90.29,20.29z"/>
		<path class="st14" d="M77.04,37.46c-0.01-0.27,0.2-0.51,0.47-0.52c0.27-0.01,0.51,0.2,0.52,0.47c0.14,2.66-0.61,6.45-1.92,10.19
			c-1.26,3.62-3.04,7.21-5.01,9.71c-3.83,4.86-3.89,10.84-3.89,10.86c0,0.27-0.23,0.49-0.5,0.49c-0.27,0-0.49-0.23-0.49-0.5
			c0-0.02,0.06-6.34,4.1-11.46c1.9-2.41,3.63-5.9,4.85-9.42C76.44,43.65,77.17,40,77.04,37.46z"/>
	</g>
</g>
<g class="st0">
	<path class="st15" d="M51.34,29.94h113.76c16.14,0,29.34,13.2,29.34,29.34v113.76c0,16.14-13.2,29.34-29.34,29.34H51.34
		c-16.14,0-29.34-13.2-29.34-29.34V59.28C22,43.14,35.2,29.94,51.34,29.94z"/>
	<g class="st2">
		<path class="st16" d="M109.1,151.08c6.5,20.8,19.14,32.5,41.37,38.1c-5.69-8.33-3.68-20.69,5.92-25.99
			c9.6-5.3,20.15-10.5,20.13-21.18c-0.04-16.65-12.68-14.75-5.37-25.53c7.31-10.78,7.84-29.03-5.4-37.83
			c-0.19-0.12-0.36-0.25-0.55-0.37c-2.49-2.39-4.26-3-1.43-7.77c18.65-31.45-37.84-62.18-54.25-36.73
			c-3.6-5.07-10.12-10.38-21.37-9.1c-7,0.8-24.89,8.09-32.84,21.15c-13.21,21.71,6.46,21.33-3.06,32.59
			c-0.98,0.79-1.97,1.68-2.76,2.75c-0.11,0.1-0.23,0.19-0.35,0.28c-12.46,9.8-9.41,24.25-2.1,35.03
			c7.31,10.78-6.87,10.94-7.12,24.97c-0.26,14.41,14.8,17.18,24.4,22.48c9.6,5.3,9.08,16.91,3.39,25.24
			C89.96,183.59,102.6,171.88,109.1,151.08z"/>
		<path class="st4" d="M108.22,209.6h71.45c0-67.2-53.3-30.94-53.3-86.92h-18.15H89.81c0,55.98-53.03,19.73-53.03,86.92H108.22z"/>
		<path class="st4" d="M69.15,88.64c-0.17-1.9-7.94-4.14-10.52,2.07c-2.59,6.21,2.07,15.01,10.87,15.7c8.8,0.69,6.21-0.86,6.21-0.86
			L69.15,88.64z"/>
		<path class="st4" d="M147.48,88.64c0.17-1.9,7.94-4.14,10.52,2.07c2.59,6.21-2.07,15.01-10.87,15.7c-8.8,0.69-6.21-0.86-6.21-0.86
			L147.48,88.64z"/>
		<path class="st5" d="M126.67,121.11c0,0-0.1,2.6-0.04,6.39c-7.01,17.61-28.77,19.59-36.84,0.73c0.09-4.18-0.02-7.12-0.02-7.12
			C102.07,121.11,114.38,121.11,126.67,121.11z"/>
		<path class="st4" d="M108.22,130.46c-45.77,1.1-68.88-111.78,0-108.89C177.11,18.69,154,131.56,108.22,130.46z"/>
		<path class="st16" d="M87.58,80.9c0.07,0.68-0.43,1.29-1.11,1.35c-0.68,0.07-1.29-0.43-1.35-1.11c-0.06-0.64-0.02-1.29,0.15-1.92
			c0.17-0.61,0.44-1.2,0.83-1.74c0.86-1.19,2.13-1.92,3.49-2.14c1.35-0.22,2.78,0.08,3.97,0.94c0.76,0.55,1.34,1.26,1.71,2.06
			c0.39,0.82,0.56,1.73,0.49,2.63c-0.05,0.68-0.64,1.2-1.32,1.15c-0.68-0.05-1.2-0.64-1.15-1.32c0.03-0.49-0.06-0.98-0.26-1.42
			c-0.2-0.42-0.51-0.81-0.92-1.1c-0.64-0.46-1.41-0.62-2.14-0.51c-0.72,0.12-1.4,0.51-1.87,1.15c-0.21,0.29-0.36,0.6-0.44,0.93
			C87.58,80.21,87.55,80.56,87.58,80.9z"/>
		<path class="st7" d="M87.79,90.87c2.34,1.79,2.44,4.42,0.23,5.87c-2.21,1.45-5.9,1.17-8.23-0.63c-2.34-1.79-2.44-4.42-0.23-5.87
			C81.77,88.79,85.45,89.07,87.79,90.87z"/>
		<path class="st7" d="M128.91,90.87c-2.34,1.79-2.44,4.42-0.23,5.87c2.21,1.45,5.9,1.17,8.23-0.63c2.34-1.79,2.44-4.42,0.23-5.87
			C134.94,88.79,131.25,89.07,128.91,90.87z"/>
		<path class="st8" d="M94.64,64.85c-0.15-0.07-0.31-0.13-0.46-0.19c-1.79-0.64-3.31-0.82-5.24-0.68c-1.89,0.2-3.31,0.63-4.89,1.53
			c-0.74,0.48-3.63,2.82-2.81,3.68c0.33,0.09,3.21-1.38,4.06-1.65c1.31-0.39,2.38-0.54,3.78-0.51c1.3,0.06,2.28,0.25,3.46,0.7
			c0.03,0.01,0.25,0.1,0.29,0.12c2.41,1.17,2.2,1.93,3.84,0.8C99.2,67.31,96.59,65.87,94.64,64.85z"/>
		<path class="st8" d="M121.81,64.85c0.15-0.07,0.31-0.13,0.46-0.19c1.79-0.64,3.31-0.82,5.24-0.68c1.89,0.2,3.3,0.63,4.89,1.53
			c0.74,0.48,3.63,2.82,2.81,3.68c-0.33,0.09-3.21-1.38-4.06-1.65c-1.32-0.39-2.38-0.54-3.78-0.51c-1.3,0.06-2.28,0.25-3.46,0.7
			c-0.03,0.01-0.25,0.1-0.29,0.12c-2.41,1.17-2.2,1.93-3.84,0.8C117.25,67.31,119.86,65.87,121.81,64.85z"/>
		<path class="st11" d="M96.35,100.44c4.22-0.05,8.42-0.08,12.62-0.08c4.2,0,8.41,0.03,12.62,0.08c0,6.62-6.53,8.98-12.6,8.98h-0.02
			h-0.02C102.88,109.43,96.35,107.06,96.35,100.44z"/>
		<path class="st5" d="M106.07,113.37c-0.23-0.14-0.31-0.44-0.18-0.68c0.14-0.24,0.44-0.31,0.68-0.18c0.68,0.4,1.55,0.6,2.42,0.6
			c0.87,0,1.72-0.2,2.38-0.6c0.23-0.14,0.54-0.07,0.68,0.17c0.14,0.23,0.07,0.54-0.17,0.68c-0.82,0.5-1.85,0.74-2.89,0.74
			C107.96,114.11,106.91,113.86,106.07,113.37z"/>
		<path class="st5" d="M107.85,91.36c-0.27,0-0.5-0.22-0.5-0.5c0-0.27,0.22-0.5,0.5-0.5c1.19,0,2.62-0.01,3.71-0.2
			c0.9-0.15,1.57-0.4,1.57-0.81c0-1.43-1.45-10.3-1.45-10.33c-0.04-0.27,0.14-0.52,0.41-0.57c0.27-0.04,0.52,0.14,0.57,0.41
			c0,0.03,1.47,8.99,1.47,10.48c0,1.04-1.02,1.55-2.4,1.79C110.54,91.35,109.07,91.36,107.85,91.36z"/>
		<path class="st5" d="M155.19,95.61c0,0.27-0.22,0.5-0.5,0.5c-0.27,0-0.5-0.22-0.5-0.5c0-1.51-0.26-2.45-0.68-2.97
			c-0.25-0.31-0.57-0.45-0.92-0.46c-0.41-0.01-0.87,0.14-1.35,0.42c-1.3,0.74-2.65,2.3-3.4,4.01c-0.36,0.82-0.67,1.66-0.85,2.3
			c0.76-0.53,1.6-0.74,2.31-0.67c0.4,0.04,0.77,0.17,1.07,0.39c0.31,0.23,0.55,0.54,0.67,0.93c0.2,0.68,0.05,1.59-0.68,2.69
			c-0.15,0.23-0.46,0.29-0.69,0.14c-0.23-0.15-0.29-0.46-0.14-0.69c0.55-0.81,0.68-1.44,0.56-1.85c-0.05-0.18-0.16-0.32-0.29-0.42
			c-0.16-0.11-0.36-0.18-0.59-0.2c-0.64-0.06-1.44,0.21-2.12,0.89c-0.18,0.18-0.35,0.28-0.5,0.32c-0.4,0.08-0.63-0.09-0.72-0.48
			l-0.01-0.03c-0.03-0.15-0.02-0.34,0.01-0.58c0.11-0.71,0.54-1.95,1.05-3.13c0.83-1.89,2.34-3.64,3.81-4.47
			c0.63-0.36,1.27-0.56,1.86-0.54c0.64,0.01,1.22,0.27,1.67,0.82C154.85,92.7,155.19,93.86,155.19,95.61z"/>
		<path class="st5" d="M62.25,95.61c0,0.27-0.22,0.5-0.5,0.5c-0.27,0-0.5-0.22-0.5-0.5c0-1.75,0.35-2.91,0.9-3.59
			c0.45-0.55,1.03-0.81,1.67-0.82c0.59-0.01,1.23,0.19,1.86,0.54c1.47,0.83,2.99,2.58,3.81,4.47c0.52,1.18,0.94,2.43,1.05,3.13
			c0.04,0.23,0.04,0.43,0.01,0.58l-0.01,0.03c-0.09,0.39-0.32,0.57-0.72,0.48c-0.16-0.03-0.32-0.14-0.5-0.32
			c-0.67-0.68-1.48-0.95-2.12-0.89c-0.23,0.02-0.43,0.09-0.59,0.2c-0.14,0.1-0.24,0.24-0.29,0.42c-0.12,0.42,0.01,1.04,0.56,1.85
			c0.15,0.23,0.09,0.53-0.14,0.69c-0.23,0.15-0.53,0.09-0.69-0.14c-0.73-1.09-0.89-2-0.68-2.69c0.12-0.39,0.35-0.71,0.67-0.93
			c0.3-0.21,0.67-0.35,1.07-0.39c0.71-0.07,1.55,0.14,2.31,0.67c-0.18-0.64-0.49-1.48-0.85-2.3c-0.74-1.7-2.09-3.27-3.4-4.01
			c-0.48-0.27-0.95-0.42-1.35-0.42c-0.35,0.01-0.67,0.15-0.92,0.46C62.51,93.15,62.25,94.1,62.25,95.61z"/>
		<path class="st17" d="M69.8,95.67c-4.61-9.01-4.55-19.07-4.98-22.93c-4.26-37.91,19.35-55.91,42.67-55.25
			c0.24-0.01,0.49-0.01,0.73-0.01v14.86c-4.28-1.4-7.92-2.25-9.86-2.25c-0.24,0-0.47,0-0.71-0.01c-0.23,0.01-0.47,0.01-0.71,0.01
			c-5.37,0-8.04,8.96-14.23,11.39c-3.55,1.39-0.15,17.78-3.82,26.03c-0.9,2.02-5.59,6.75-6.67,7.23
			C69.06,77.96,68.73,81.58,69.8,95.67z"/>
		<path class="st17" d="M146.65,95.67c4.61-9.01,4.54-19.07,4.98-22.93c4.26-37.91-19.35-55.91-42.67-55.25
			c-0.25-0.01-0.49-0.01-0.73-0.01v14.86c4.28-1.4,7.92-2.25,9.86-2.25c0.24,0,0.47,0,0.71-0.01c0.23,0.01,0.47,0.01,0.71,0.01
			c5.37,0,8.04,11.46,14.23,13.88c3.55,1.39,0.15,15.29,3.82,23.54c0.9,2.02,5.59,6.75,6.67,7.23
			C147.39,77.96,147.72,81.58,146.65,95.67z"/>
		<polygon class="st10" points="108.22,209.6 162.69,209.6 159.67,190.93 56.78,190.93 53.75,209.6 		"/>
		<path class="st10" d="M60.75,192.53c-0.04,1.16-1.01,2.08-2.17,2.04c-1.16-0.04-2.08-1.01-2.04-2.17l4.2-30.63
			c0.04-1.16,1.01-2.08,2.17-2.04c1.16,0.04,2.08,1.01,2.04,2.17L60.75,192.53z"/>
		<path class="st10" d="M155.7,192.53c0.04,1.16,1.01,2.08,2.17,2.04c1.16-0.04,2.08-1.01,2.04-2.17l-4.2-30.63
			c-0.04-1.16-1.01-2.08-2.17-2.04c-1.16,0.04-2.08,1.01-2.04,2.17L155.7,192.53z"/>
		<path class="st16" d="M123.41,80.9c0.07,0.68-0.43,1.29-1.11,1.35c-0.68,0.07-1.28-0.43-1.35-1.11c-0.07-0.64-0.02-1.29,0.15-1.92
			c0.17-0.61,0.44-1.2,0.83-1.74c0.86-1.19,2.13-1.92,3.48-2.14c1.35-0.22,2.78,0.08,3.97,0.94c0.76,0.55,1.34,1.26,1.71,2.06
			c0.39,0.82,0.56,1.73,0.49,2.63c-0.05,0.68-0.64,1.2-1.32,1.15c-0.68-0.05-1.2-0.64-1.15-1.32c0.03-0.49-0.06-0.98-0.26-1.42
			c-0.2-0.42-0.51-0.81-0.91-1.1c-0.64-0.46-1.41-0.62-2.14-0.51c-0.72,0.12-1.4,0.51-1.87,1.15c-0.21,0.29-0.36,0.6-0.44,0.93
			C123.4,80.21,123.37,80.56,123.41,80.9z"/>
		<path class="st18" d="M81.03,43.82c20.7-14.43,11.79,11.16,29.27,11.23c8.7,0.03,16.67,3.55,16.53,10.93
			c-0.14,7.38-0.2,10.65,7.79,14.49c15.47,7.43-14.05,33.03,24.7,34.46c-4.05-18.71,15.17-24.76,8.67-40.99
			c-6.5-16.23-19.08-11.5-16.34-21.58c2.16-7.93,3.06-16.51-2.64-22.62c-8.23-8.81-16.37,0.17-21.64-8.32
			c-4.42-7.12-7.01-17.68-25.69-13.72C77.9,12.74,76.89,31.75,81.03,43.82z"/>
		<path class="st19" d="M83.7,34.96c-0.16,0.22-0.47,0.28-0.69,0.12c-0.22-0.16-0.28-0.47-0.12-0.69c0.79-1.11,2.66-2.33,4.92-3.12
			c1.6-0.56,3.4-0.91,5.17-0.86c1.8,0.04,3.56,0.5,5.05,1.55c1.3,0.92,2.38,2.3,3.06,4.26c1.54,4.43,2.96,6.88,4.94,8.26
			c1.97,1.37,4.56,1.72,8.41,1.91c4,0.2,8.77,0.84,12.61,2.97c3.9,2.16,6.83,5.84,7.03,12.09c0.19,5.94,0.89,9.25,2.17,11.25
			c1.24,1.95,3.1,2.7,5.63,3.52c0.19,0.06,0.36,0.12,0.51,0.18c2.47,0.92,4.31,2.48,5.23,4.77c0.9,2.26,0.88,5.21-0.33,8.94
			c-0.12,0.36-0.24,0.72-0.37,1.07c-1.44,3.89-1.78,7.39-1.24,10.18c0.56,2.84,2.05,4.93,4.25,5.87c0.25,0.11,0.37,0.4,0.26,0.65
			c-0.11,0.25-0.4,0.37-0.65,0.26c-2.51-1.07-4.21-3.41-4.83-6.59c-0.58-2.96-0.23-6.65,1.28-10.71c0.14-0.37,0.26-0.71,0.36-1.03
			c1.14-3.5,1.17-6.22,0.35-8.27c-0.8-2.01-2.44-3.38-4.65-4.2c-0.17-0.06-0.33-0.12-0.47-0.16c-2.73-0.89-4.74-1.71-6.16-3.93
			c-1.38-2.16-2.13-5.62-2.33-11.76c-0.19-5.83-2.91-9.25-6.52-11.25c-3.67-2.04-8.29-2.65-12.17-2.84
			c-4.03-0.2-6.76-0.58-8.93-2.09c-2.16-1.51-3.69-4.11-5.31-8.74c-0.61-1.75-1.56-2.97-2.7-3.78c-1.31-0.93-2.89-1.33-4.5-1.37
			c-1.64-0.04-3.33,0.29-4.82,0.81C86.06,32.93,84.38,34.01,83.7,34.96z"/>
		<path class="st19" d="M88.76,20.68c-0.25,0.12-0.54,0.02-0.66-0.23c-0.12-0.25-0.02-0.54,0.23-0.66c0.93-0.46,2.05-0.87,3.26-1.21
			c2.73-0.76,5.98-1.1,8.91-0.55c2.99,0.56,5.63,2.05,7.06,4.97c0.25,0.52,0.46,1.08,0.63,1.7c1.07,3.85,3.14,6.47,5.73,8.08
			c2.98,1.84,6.65,2.35,10.26,1.8c0.77-0.12,1.6-0.18,2.45-0.18c3.29,0,7.06,0.87,10.14,2.65c3.13,1.8,5.56,4.53,6.11,8.21
			c0.08,0.52,0.12,1.06,0.12,1.62c0,1.64-0.04,3.24-0.08,4.69c-0.16,5.95-0.25,9.44,3.12,11.42c0.27,0.16,0.52,0.31,0.8,0.46h0
			c5.26,3.04,18.22,10.52,13.59,22.59c-4.75,12.41-5.84,13.78-5.85,13.78c-0.17,0.22-0.48,0.26-0.69,0.09
			c-0.22-0.17-0.26-0.48-0.09-0.69c0,0,1.01-1.25,5.71-13.53c4.32-11.29-8.11-18.47-13.16-21.38l0,0c-0.31-0.18-0.6-0.35-0.8-0.47
			c-3.88-2.28-3.78-5.99-3.61-12.3c0.04-1.38,0.08-2.9,0.08-4.67c0-0.51-0.04-1-0.11-1.47c-0.51-3.35-2.74-5.85-5.62-7.51
			c-2.92-1.69-6.51-2.51-9.64-2.51c-0.81,0-1.58,0.06-2.3,0.16c-3.82,0.58-7.73,0.03-10.93-1.95c-2.79-1.73-5.03-4.55-6.17-8.66
			c-0.15-0.55-0.34-1.06-0.57-1.52c-1.27-2.6-3.65-3.93-6.35-4.44c-2.76-0.52-5.86-0.19-8.46,0.53
			C90.71,19.85,89.65,20.25,88.76,20.68z"/>
	</g>
</g>
<g>
	<path class="st20" d="M51.34,20.55H165.1c16.14,0,29.34,13.2,29.34,29.34v113.76c0,16.14-13.2,29.34-29.34,29.34H51.34
		c-16.14,0-29.34-13.2-29.34-29.34V49.89C22,33.75,35.2,20.55,51.34,20.55z"/>
	<g>
		<path class="st4" d="M108.22,200.21H37.24c-0.82-36.3,27.11-57.37,51.09-65.23c1.95-10.13,1.45-23.26,1.45-23.26h18.45h18.45
			c0,0-0.5,13.13,1.45,23.26c23.98,7.86,51.91,28.94,51.09,65.23H108.22z"/>
		<path class="st5" d="M126.92,124.74c-2.31,4.41-10.36,8.63-18.7,8.7c-8.05,0.07-16.39-3.86-18.7-8.11
			c0.23-3.33,0.31-6.47,0.32-8.89h36.79C126.65,118.72,126.72,121.63,126.92,124.74z"/>
		<path class="st4" d="M69.15,82.61c-0.17-1.9-7.94-4.14-10.52,2.07c-2.59,6.21,2.07,15.01,10.87,15.7c8.8,0.69,6.21-0.86,6.21-0.86
			L69.15,82.61z"/>
		<path class="st21" d="M108.22,200.21h-2.62h-2.62h-2.62h-2.62h-2.62h-2.62h-2.62h-2.62h-2.62h-2.62h-2.62h-2.62h-2.62h-2.62h-2.62
			h-2.62h-2.62h-2.62h-2.62h-2.62h-2.62h-2.62h-2.62h-2.62h-2.62h-2.62h-2.62h-0.34c-0.67-29.42,17.55-48.83,37.25-59.32
			c0.93-0.47,1.81-0.92,2.64-1.35c3.75-1.84,7.52-3.35,11.2-4.56c0.1-0.51,0.19-1.02,0.27-1.54c8.03,3.54,23.04,7.46,39.33,0.47
			c0.06,0.36,0.13,0.72,0.19,1.07c3.63,1.19,7.36,2.69,11.06,4.49c0.9,0.47,1.87,0.96,2.9,1.48c19.65,10.5,37.79,29.9,37.13,59.26
			h-0.34h-2.62h-2.62h-2.62h-2.62h-2.62h-2.62h-2.62h-2.62h-2.62h-2.62h-2.62h-2.62h-2.62h-2.62h-2.62h-2.62h-2.62h-2.62h-2.62
			h-2.62h-2.62h-2.62h-2.62h-2.62h-2.62h-2.62H108.22z"/>
		<path class="st4" d="M147.48,82.61c0.17-1.9,7.93-4.14,10.52,2.07c2.59,6.21-2.07,15.01-10.87,15.7c-8.8,0.69-6.21-0.86-6.21-0.86
			L147.48,82.61z"/>
		<path class="st4" d="M108.22,124.43c-45.77,1.1-68.88-111.78,0-108.88C177.11,12.66,154,125.53,108.22,124.43z"/>
		<path class="st5" d="M155.19,89.58c0,0.27-0.22,0.5-0.5,0.5c-0.27,0-0.5-0.22-0.5-0.5c0-1.51-0.26-2.46-0.68-2.97
			c-0.25-0.31-0.57-0.45-0.92-0.46c-0.41-0.01-0.87,0.14-1.35,0.42c-1.3,0.74-2.65,2.3-3.39,4.01c-0.36,0.82-0.67,1.66-0.85,2.3
			c0.76-0.53,1.6-0.74,2.31-0.67c0.4,0.04,0.77,0.17,1.07,0.39c0.31,0.23,0.55,0.54,0.67,0.94c0.2,0.68,0.05,1.59-0.68,2.69
			c-0.15,0.23-0.46,0.29-0.69,0.14c-0.23-0.15-0.29-0.46-0.14-0.69c0.55-0.81,0.68-1.43,0.56-1.85c-0.05-0.18-0.16-0.32-0.3-0.42
			c-0.16-0.11-0.36-0.18-0.59-0.2c-0.64-0.06-1.44,0.21-2.12,0.89c-0.18,0.18-0.35,0.28-0.5,0.32c-0.4,0.09-0.63-0.09-0.72-0.48
			l-0.01-0.03c-0.03-0.15-0.02-0.34,0.01-0.58c0.11-0.71,0.54-1.95,1.05-3.13c0.83-1.89,2.34-3.64,3.81-4.47
			c0.63-0.36,1.27-0.56,1.86-0.54c0.64,0.02,1.22,0.27,1.67,0.83C154.85,86.67,155.19,87.82,155.19,89.58z"/>
		<path class="st5" d="M62.25,89.58c0,0.27-0.22,0.5-0.5,0.5c-0.27,0-0.5-0.22-0.5-0.5c0-1.75,0.35-2.91,0.9-3.59
			c0.45-0.56,1.03-0.81,1.67-0.83c0.59-0.01,1.23,0.19,1.86,0.54c1.47,0.83,2.99,2.58,3.81,4.47c0.52,1.18,0.94,2.43,1.05,3.13
			c0.04,0.23,0.04,0.43,0.01,0.58l-0.01,0.03c-0.09,0.39-0.32,0.57-0.72,0.48c-0.16-0.03-0.32-0.14-0.5-0.32
			c-0.67-0.68-1.48-0.95-2.12-0.89c-0.23,0.02-0.43,0.09-0.59,0.2c-0.14,0.1-0.24,0.24-0.29,0.42c-0.12,0.42,0.01,1.04,0.56,1.85
			c0.15,0.23,0.09,0.54-0.14,0.69c-0.23,0.15-0.53,0.09-0.69-0.14c-0.73-1.09-0.89-2-0.69-2.69c0.12-0.39,0.35-0.71,0.67-0.94
			c0.3-0.21,0.67-0.34,1.07-0.39c0.71-0.07,1.55,0.14,2.31,0.67c-0.18-0.64-0.49-1.48-0.85-2.3c-0.75-1.7-2.09-3.27-3.39-4.01
			c-0.48-0.27-0.95-0.43-1.35-0.42c-0.35,0.01-0.67,0.15-0.92,0.46C62.51,87.12,62.25,88.07,62.25,89.58z"/>
		<path class="st13" d="M56.46,179.67c0-0.41,0.34-0.74,0.75-0.74c0.41,0,0.74,0.34,0.74,0.75l-0.18,20.54
			c0,0.41-0.34,0.74-0.75,0.74c-0.41,0-0.74-0.34-0.74-0.75L56.46,179.67z"/>
		<path class="st13" d="M158.69,179.67c0-0.41,0.34-0.74,0.75-0.74c0.41,0,0.74,0.34,0.74,0.75l-0.18,20.54
			c0,0.41-0.34,0.74-0.75,0.74c-0.41,0-0.74-0.34-0.74-0.75L158.69,179.67z"/>
		<path class="st22" d="M65.9,74.3c0.6-2.37,1.61-9.23,1.67-8.16c1.08,20.86,9.25,34.54,16.78,40.54
			c7.44,5.92-4.14-14.67,23.13-14.39c0.26,0,0.5,0,0.75,0c0.25,0,0.5,0,0.75,0c27.26-0.28,15.69,20.31,23.13,14.39
			c7.53-5.99,15.7-19.68,16.78-40.54c0.06-1.07,1.06,5.79,1.67,8.16c-4.3,25.99-20.81,50.65-42.32,50.13
			C86.71,124.95,70.2,100.29,65.9,74.3z"/>
		<path class="st22" d="M67.51,81.88c0.56-1.63,0.9-5.02,0.84-9.4c-0.08-6.09,8.35-9.09,7.34-17.81
			c-2.96-25.6,16.88-16.93,32.52-16.92v-22.2l0,0C68.54,13.88,59.39,50.63,67.51,81.88z"/>
		<path class="st22" d="M149.07,81.33c-0.48-1.68-0.83-4.81-0.98-8.85c-0.23-6.08-8.35-9.09-7.34-17.81
			c2.96-25.6-16.88-16.93-32.52-16.92v-22.2C147.67,13.89,156.94,50.2,149.07,81.33z"/>
		<path class="st6" d="M92.84,72.04c1.84,1.33,2.25,3.89,0.92,5.72c-1.33,1.83-3.89,2.25-5.73,0.92c-1.84-1.33-2.25-3.89-0.92-5.72
			C88.44,71.13,91.01,70.72,92.84,72.04z"/>
		<path class="st6" d="M123.86,72.04c-1.84,1.33-2.25,3.89-0.92,5.72c1.33,1.83,3.9,2.25,5.73,0.92c1.84-1.33,2.25-3.89,0.92-5.72
			C128.26,71.13,125.69,70.72,123.86,72.04z"/>
		<path class="st7" d="M87.79,86.92c2.34,1.79,2.44,4.42,0.23,5.87c-2.21,1.45-5.9,1.17-8.23-0.63c-2.34-1.79-2.44-4.42-0.23-5.87
			S85.45,85.13,87.79,86.92z"/>
		<path class="st7" d="M128.91,86.92c-2.34,1.79-2.44,4.42-0.23,5.87c2.21,1.45,5.9,1.17,8.23-0.63c2.34-1.79,2.44-4.42,0.23-5.87
			C134.93,84.85,131.25,85.13,128.91,86.92z"/>
		<path class="st8" d="M94.64,60.91c-0.15-0.07-0.31-0.13-0.46-0.19c-1.79-0.64-3.31-0.82-5.24-0.68c-1.89,0.2-3.3,0.63-4.89,1.53
			c-0.74,0.48-3.63,2.82-2.81,3.68c0.33,0.09,3.21-1.38,4.06-1.65c1.32-0.39,2.38-0.54,3.78-0.51c1.3,0.06,2.28,0.25,3.46,0.7
			c0.03,0.01,0.25,0.1,0.29,0.12c2.42,1.17,2.2,1.93,3.84,0.8C99.2,63.37,96.59,61.92,94.64,60.91z"/>
		<path class="st8" d="M121.81,60.91c0.15-0.07,0.3-0.13,0.46-0.19c1.79-0.64,3.31-0.82,5.24-0.68c1.89,0.2,3.31,0.63,4.89,1.53
			c0.74,0.48,3.63,2.82,2.81,3.68c-0.33,0.09-3.21-1.38-4.06-1.65c-1.32-0.39-2.38-0.54-3.78-0.51c-1.3,0.06-2.28,0.25-3.46,0.7
			c-0.03,0.01-0.25,0.1-0.29,0.12c-2.42,1.17-2.2,1.93-3.84,0.8C117.25,63.37,119.86,61.92,121.81,60.91z"/>
		<path class="st5" d="M106.07,109.43c-0.24-0.14-0.31-0.44-0.18-0.68c0.14-0.24,0.44-0.31,0.68-0.18c0.68,0.4,1.55,0.6,2.42,0.6
			c0.87,0,1.72-0.2,2.38-0.6c0.23-0.14,0.54-0.07,0.68,0.17c0.14,0.23,0.07,0.54-0.17,0.68c-0.82,0.5-1.85,0.74-2.89,0.74
			C107.96,110.17,106.91,109.92,106.07,109.43z"/>
		<path class="st5" d="M107.85,91.47c-0.27,0-0.5-0.22-0.5-0.5c0-0.27,0.22-0.5,0.5-0.5c1.19,0,2.61-0.01,3.71-0.2
			c0.9-0.15,1.57-0.4,1.57-0.81c0-1.43-1.45-10.3-1.45-10.33c-0.04-0.27,0.14-0.52,0.41-0.57c0.27-0.04,0.52,0.14,0.57,0.41
			c0,0.03,1.47,8.99,1.47,10.48c0,1.04-1.02,1.55-2.4,1.79C110.54,91.46,109.07,91.47,107.85,91.47z"/>
		<path class="st10" d="M89.41,62.55c4.05,0,7.72,1.64,10.37,4.3c2.65,2.65,4.3,6.32,4.3,10.37c0,4.05-1.64,7.72-4.3,10.37
			c-2.65,2.65-6.32,4.3-10.37,4.3c-4.05,0-7.72-1.64-10.37-4.3c-2.66-2.65-4.3-6.32-4.3-10.37c0-4.05,1.64-7.72,4.3-10.37
			C81.69,64.2,85.36,62.55,89.41,62.55L89.41,62.55z M98.03,68.6c-2.21-2.21-5.25-3.57-8.62-3.57c-3.37,0-6.41,1.36-8.62,3.57
			c-2.2,2.21-3.57,5.25-3.57,8.62c0,3.37,1.36,6.41,3.57,8.62c2.21,2.21,5.25,3.57,8.62,3.57c3.37,0,6.41-1.36,8.62-3.57
			c2.21-2.21,3.57-5.25,3.57-8.62C101.6,73.86,100.23,70.81,98.03,68.6z"/>
		<path class="st10" d="M127.04,62.55c4.05,0,7.72,1.64,10.37,4.3c2.65,2.65,4.3,6.32,4.3,10.37c0,4.05-1.64,7.72-4.3,10.37
			c-2.66,2.65-6.32,4.3-10.37,4.3c-4.05,0-7.72-1.64-10.37-4.3c-2.66-2.65-4.3-6.32-4.3-10.37c0-4.05,1.64-7.72,4.3-10.37
			C119.32,64.2,122.99,62.55,127.04,62.55L127.04,62.55z M135.65,68.6c-2.21-2.21-5.25-3.57-8.62-3.57c-3.37,0-6.41,1.36-8.62,3.57
			c-2.21,2.21-3.57,5.25-3.57,8.62c0,3.37,1.36,6.41,3.57,8.62c2.21,2.21,5.25,3.57,8.62,3.57c3.37,0,6.41-1.36,8.62-3.57
			c2.21-2.21,3.57-5.25,3.57-8.62C139.22,73.86,137.86,70.81,135.65,68.6z"/>
		<path class="st10" d="M75.54,76.02c0.51-0.18,1.08,0.08,1.26,0.6c0.18,0.51-0.08,1.08-0.6,1.26l-8.74,3.15
			c-0.51,0.18-1.08-0.08-1.26-0.6c-0.18-0.51,0.08-1.08,0.6-1.26L75.54,76.02z"/>
		<path class="st10" d="M140.27,77.88c-0.51-0.18-0.78-0.75-0.6-1.26c0.18-0.51,0.75-0.78,1.26-0.6l8.74,3.15
			c0.51,0.18,0.78,0.75,0.6,1.26c-0.18,0.51-0.75,0.78-1.26,0.6L140.27,77.88z"/>
		<path class="st10" d="M103.05,76.08c-0.29,0.47-0.89,0.61-1.36,0.33c-0.47-0.29-0.61-0.89-0.33-1.36c0-0.01,1.68-2.86,6.86-2.86
			c5.18,0,6.86,2.85,6.86,2.86c0.29,0.47,0.14,1.08-0.33,1.36c-0.47,0.29-1.08,0.14-1.36-0.33c0-0.01-1.11-1.9-5.17-1.9
			C104.17,74.18,103.06,76.07,103.05,76.08z"/>
		<path class="st11" d="M123.75,96.17c-6.23,2.31-25.17,2.27-31.05,0.28C95.95,108.28,120.59,108.1,123.75,96.17z"/>
		<path class="st23" d="M69.03,38.41c3.02,0.51,8.85,0.59,11.84-0.5c6.51-3.44,13.67,0.98,27.35,0.87c6.26,0,22.88-1.36,28.64-8.13
			c2.86-3.36,1.36,2.48-4.21,6.27c3.3,1.23,10.78,2.61,14.83,1.66c-5.88-14.07-18.31-23.9-39.26-23.02l0,0
			C87.36,14.67,74.94,24.43,69.03,38.41z"/>
		<path class="st24" d="M82.5,136.75c0-0.82,0.67-1.49,1.49-1.49c0.82,0,1.49,0.67,1.49,1.49c0,9.09,2.97,19.14,7.59,26.69
			c4.12,6.74,9.52,11.42,15.16,11.42c5.75,0,11.23-4.57,15.38-11.34c4.5-7.34,7.37-17.21,7.37-26.77c0-0.82,0.67-1.49,1.49-1.49
			c0.82,0,1.49,0.67,1.49,1.49c0,10.1-3.05,20.54-7.81,28.32c-4.67,7.63-11.03,12.77-17.92,12.77c-6.79,0-13.05-5.27-17.7-12.85
			C85.64,157,82.5,146.37,82.5,136.75z"/>
	</g>
</g>
</svg>
