<?xml version="1.0" encoding="utf-8"?>
<!-- Generator: Adobe Illustrator 25.2.1, SVG Export Plug-In . SVG Version: 6.00 Build 0)  -->
<svg version="1.1" id="Capa_1" xmlns="http://www.w3.org/2000/svg" xmlns:xlink="http://www.w3.org/1999/xlink" x="0px" y="0px"
	 viewBox="0 0 216.45 216.45" style="enable-background:new 0 0 216.45 216.45;" xml:space="preserve">
<style type="text/css">
	.st0{fill-rule:evenodd;clip-rule:evenodd;fill:#FF8500;}
	.st1{fill-rule:evenodd;clip-rule:evenodd;fill:#58556C;}
	.st2{fill-rule:evenodd;clip-rule:evenodd;fill:#E4AE7C;}
	.st3{fill-rule:evenodd;clip-rule:evenodd;fill:#D67F54;}
	.st4{fill-rule:evenodd;clip-rule:evenodd;fill:#20201E;}
	.st5{fill-rule:evenodd;clip-rule:evenodd;fill:#DA9077;}
	.st6{fill-rule:evenodd;clip-rule:evenodd;fill:#3F2716;}
	.st7{fill-rule:evenodd;clip-rule:evenodd;fill:#35253D;}
	.st8{fill-rule:evenodd;clip-rule:evenodd;fill:#2E1E11;}
	.st9{fill-rule:evenodd;clip-rule:evenodd;fill:#FFFFFF;}
	.st10{fill-rule:evenodd;clip-rule:evenodd;fill:#67627E;}
	.st11{fill-rule:evenodd;clip-rule:evenodd;fill:#383546;}
	.st12{fill-rule:evenodd;clip-rule:evenodd;fill:#432D4C;}
</style>
<g>
	<path class="st0" d="M51.34,28.58h113.76c16.14,0,29.34,13.2,29.34,29.34v113.76c0,16.14-13.2,29.34-29.34,29.34H51.34
		c-16.14,0-29.34-13.2-29.34-29.34V57.92C22,41.78,35.2,28.58,51.34,28.58z"/>
	<g>
		<path class="st1" d="M108.22,208.24H37.24c-0.82-36.3,27.11-57.37,51.09-65.23c1.95-10.13,1.45-23.26,1.45-23.26h18.45h18.45
			c0,0-0.5,13.13,1.45,23.26c23.98,7.86,51.91,28.94,51.09,65.23H108.22z"/>
		<path class="st2" d="M69.15,90.64c-0.17-1.9-7.94-4.14-10.52,2.07c-2.59,6.21,2.07,15.01,10.87,15.7c8.8,0.69,6.21-0.86,6.21-0.86
			L69.15,90.64z"/>
		<path class="st2" d="M147.48,90.64c0.17-1.9,7.94-4.14,10.52,2.07c2.59,6.21-2.07,15.01-10.87,15.7c-8.8,0.69-6.21-0.86-6.21-0.86
			L147.48,90.64z"/>
		<path class="st3" d="M126.9,132.77c-7.99,15.28-28.56,16.87-37.39,0.59c0.23-3.33,0.31-6.47,0.32-8.89h36.79
			C126.63,126.75,126.7,129.66,126.9,132.77z"/>
		<path class="st2" d="M108.22,132.46c-45.77,1.1-68.88-111.78,0-108.88C177.11,20.69,154,133.56,108.22,132.46z"/>
		<path class="st4" d="M92.85,80.07c1.84,1.33,2.25,3.89,0.92,5.72c-1.33,1.83-3.9,2.25-5.73,0.92c-1.84-1.33-2.25-3.89-0.92-5.72
			C88.44,79.16,91.01,78.75,92.85,80.07z"/>
		<path class="st4" d="M123.86,80.07c-1.84,1.33-2.25,3.89-0.92,5.72c1.33,1.83,3.9,2.25,5.73,0.92c1.84-1.33,2.25-3.89,0.92-5.72
			C128.26,79.16,125.69,78.75,123.86,80.07z"/>
		<path class="st5" d="M87.79,94.95c2.34,1.79,2.44,4.42,0.23,5.87c-2.21,1.45-5.9,1.17-8.23-0.63c-2.34-1.79-2.44-4.42-0.23-5.87
			C81.77,92.88,85.45,93.16,87.79,94.95z"/>
		<path class="st5" d="M128.91,94.95c-2.34,1.79-2.44,4.42-0.23,5.87c2.21,1.45,5.9,1.17,8.23-0.63c2.34-1.79,2.44-4.42,0.23-5.87
			C134.94,92.88,131.25,93.16,128.91,94.95z"/>
		<path class="st6" d="M94.64,68.94c-0.15-0.07-0.31-0.13-0.46-0.19c-1.79-0.64-3.31-0.82-5.24-0.68c-1.89,0.2-3.31,0.63-4.89,1.53
			c-0.74,0.48-3.63,2.82-2.81,3.68c0.33,0.09,3.21-1.38,4.06-1.65c1.31-0.39,2.38-0.54,3.78-0.51c1.3,0.06,2.28,0.25,3.46,0.7
			c0.03,0.01,0.25,0.1,0.29,0.12c2.41,1.17,2.2,1.93,3.84,0.8C99.2,71.4,96.59,69.95,94.64,68.94z"/>
		<path class="st6" d="M121.81,68.94c0.15-0.07,0.31-0.13,0.46-0.19c1.79-0.64,3.31-0.82,5.24-0.68c1.89,0.2,3.3,0.63,4.89,1.53
			c0.74,0.48,3.63,2.82,2.81,3.68c-0.33,0.09-3.21-1.38-4.06-1.65c-1.32-0.39-2.38-0.54-3.78-0.51c-1.3,0.06-2.28,0.25-3.46,0.7
			c-0.03,0.01-0.25,0.1-0.29,0.12c-2.41,1.17-2.2,1.93-3.84,0.8C117.25,71.4,119.86,69.95,121.81,68.94z"/>
		<path class="st3" d="M106.07,117.46c-0.23-0.14-0.31-0.44-0.18-0.68c0.14-0.24,0.44-0.31,0.68-0.18c0.68,0.4,1.55,0.6,2.42,0.6
			c0.87,0,1.72-0.2,2.38-0.6c0.23-0.14,0.54-0.07,0.68,0.17c0.14,0.23,0.07,0.54-0.17,0.68c-0.82,0.5-1.85,0.74-2.89,0.74
			C107.96,118.2,106.91,117.95,106.07,117.46z"/>
		<path class="st3" d="M107.85,99.5c-0.27,0-0.5-0.22-0.5-0.5c0-0.27,0.22-0.5,0.5-0.5c1.19,0,2.62-0.01,3.71-0.2
			c0.9-0.15,1.57-0.4,1.57-0.81c0-1.43-1.45-10.3-1.45-10.33c-0.04-0.27,0.14-0.52,0.41-0.57c0.27-0.04,0.52,0.14,0.57,0.41
			c0,0.03,1.47,8.99,1.47,10.48c0,1.04-1.02,1.55-2.4,1.79C110.54,99.49,109.07,99.5,107.85,99.5z"/>
		<path class="st3" d="M155.19,97.61c0,0.27-0.22,0.5-0.5,0.5c-0.27,0-0.5-0.22-0.5-0.5c0-1.51-0.26-2.46-0.68-2.97
			c-0.25-0.31-0.57-0.45-0.92-0.46c-0.41-0.01-0.87,0.14-1.35,0.42c-1.3,0.74-2.65,2.3-3.4,4.01c-0.36,0.82-0.67,1.66-0.85,2.3
			c0.76-0.53,1.6-0.74,2.31-0.67c0.4,0.04,0.77,0.17,1.07,0.39c0.31,0.23,0.55,0.54,0.67,0.94c0.2,0.68,0.05,1.59-0.68,2.69
			c-0.15,0.23-0.46,0.29-0.69,0.14c-0.23-0.15-0.29-0.46-0.14-0.69c0.55-0.81,0.68-1.43,0.56-1.85c-0.05-0.18-0.16-0.32-0.29-0.42
			c-0.16-0.11-0.36-0.18-0.59-0.2c-0.64-0.06-1.44,0.21-2.12,0.89c-0.18,0.18-0.35,0.28-0.5,0.32c-0.4,0.09-0.63-0.09-0.72-0.48
			l-0.01-0.03c-0.03-0.15-0.02-0.34,0.01-0.58c0.11-0.71,0.54-1.95,1.05-3.13c0.83-1.89,2.34-3.64,3.81-4.47
			c0.63-0.36,1.27-0.56,1.86-0.54c0.64,0.02,1.22,0.27,1.67,0.83C154.85,94.7,155.19,95.86,155.19,97.61z"/>
		<path class="st3" d="M62.25,97.61c0,0.27-0.22,0.5-0.5,0.5c-0.27,0-0.5-0.22-0.5-0.5c0-1.75,0.35-2.91,0.9-3.59
			c0.45-0.56,1.03-0.81,1.67-0.83c0.59-0.01,1.23,0.19,1.86,0.54c1.47,0.83,2.99,2.58,3.81,4.47c0.52,1.18,0.94,2.43,1.05,3.13
			c0.04,0.23,0.04,0.43,0.01,0.58l-0.01,0.03c-0.09,0.39-0.32,0.57-0.72,0.48c-0.16-0.03-0.32-0.14-0.5-0.32
			c-0.67-0.68-1.48-0.95-2.12-0.89c-0.23,0.02-0.43,0.09-0.59,0.2c-0.14,0.1-0.24,0.24-0.29,0.42c-0.12,0.42,0.01,1.04,0.56,1.85
			c0.15,0.23,0.09,0.54-0.14,0.69c-0.23,0.15-0.53,0.09-0.69-0.14c-0.73-1.09-0.89-2-0.68-2.69c0.12-0.39,0.35-0.71,0.67-0.94
			c0.3-0.21,0.67-0.34,1.07-0.39c0.71-0.07,1.55,0.14,2.31,0.67c-0.18-0.64-0.49-1.48-0.85-2.3c-0.74-1.7-2.09-3.27-3.4-4.01
			c-0.48-0.27-0.95-0.43-1.35-0.42c-0.35,0.01-0.67,0.15-0.92,0.46C62.51,95.15,62.25,96.1,62.25,97.61z"/>
		<path class="st7" d="M158.88,32.97c1.91,0.37,1.66,1.93-3.91,5.86c5.14,6.48,5.93,16.77,4.18,26.43
			c-0.38,2.06-6.18,16.68-11.65,26.25c-0.51,0.89-0.17-18.98-5.91-26.92c-2.91-4.03-5.31-8.8-11.25-12.78
			c-0.06,1.13,3.46,4.21,2.15,4.83c-5.03,2.37-19.2-0.08-25.74-1.74c1.88,1.94,3.8,3.35,3.08,4.05c-2.25,2.21-16.5-1.24-25.29-7.15
			c-2.13,7.04-5.14,14.5-8.52,16.5c-9.05,5.33-5.11,27.82-7.48,24.51c-10.9-15.16-8.15-34.79-8.15-34.79
			c-1.06,1.67-2.26,3.12-3.09,4.85c-1.5,3.13-2.53-25.64,11.14-29.37c0,0-2.16-0.75-7.71,0.29c-2.04,0.38,4-5.23,10.52-5.96
			c0.19-2.83,1.45-14.2,9.77-17.87c3.86-1.7,10.18-2.86,9.37-2.37c-3.96,2.4-5.1,5.74-5.1,5.74c30.43-14.35,44.27,0.91,56.19,10.47
			C145.09,26.7,152.72,32.49,158.88,32.97z"/>
		<path class="st8" d="M89.41,70.58c4.05,0,7.72,1.64,10.37,4.3c2.65,2.65,4.3,6.32,4.3,10.37c0,4.05-1.64,7.72-4.3,10.37
			c-2.65,2.65-6.32,4.3-10.37,4.3c-4.05,0-7.72-1.64-10.37-4.3c-2.65-2.65-4.3-6.32-4.3-10.37c0-4.05,1.64-7.72,4.3-10.37
			C81.69,72.23,85.36,70.58,89.41,70.58L89.41,70.58z M98.03,76.63c-2.21-2.21-5.25-3.57-8.62-3.57c-3.37,0-6.41,1.36-8.62,3.57
			c-2.2,2.21-3.57,5.25-3.57,8.62c0,3.37,1.37,6.41,3.57,8.62c2.21,2.21,5.25,3.57,8.62,3.57c3.37,0,6.41-1.36,8.62-3.57
			c2.21-2.21,3.57-5.25,3.57-8.62C101.6,81.89,100.23,78.84,98.03,76.63z"/>
		<path class="st8" d="M127.04,70.58c4.05,0,7.72,1.64,10.37,4.3c2.65,2.65,4.3,6.32,4.3,10.37c0,4.05-1.64,7.72-4.3,10.37
			c-2.65,2.65-6.32,4.3-10.37,4.3c-4.05,0-7.72-1.64-10.37-4.3c-2.65-2.65-4.3-6.32-4.3-10.37c0-4.05,1.64-7.72,4.3-10.37
			C119.32,72.23,122.99,70.58,127.04,70.58L127.04,70.58z M135.66,76.63c-2.21-2.21-5.25-3.57-8.62-3.57
			c-3.37,0-6.41,1.36-8.62,3.57c-2.21,2.21-3.57,5.25-3.57,8.62c0,3.37,1.36,6.41,3.57,8.62c2.21,2.21,5.25,3.57,8.62,3.57
			c3.37,0,6.41-1.36,8.62-3.57c2.21-2.21,3.57-5.25,3.57-8.62C139.23,81.89,137.86,78.84,135.66,76.63z"/>
		<path class="st8" d="M75.54,84.05c0.51-0.18,1.08,0.08,1.26,0.6c0.18,0.51-0.08,1.08-0.6,1.26l-8.74,3.15
			c-0.51,0.18-1.08-0.08-1.26-0.6c-0.18-0.51,0.08-1.08,0.6-1.26L75.54,84.05z"/>
		<path class="st8" d="M140.27,85.91c-0.51-0.18-0.78-0.75-0.6-1.26c0.18-0.51,0.75-0.78,1.26-0.6l8.74,3.15
			c0.51,0.18,0.78,0.75,0.6,1.26c-0.18,0.51-0.75,0.78-1.26,0.6L140.27,85.91z"/>
		<path class="st8" d="M103.05,84.11c-0.28,0.47-0.89,0.61-1.36,0.33c-0.47-0.29-0.61-0.89-0.33-1.36c0-0.01,1.68-2.86,6.86-2.86
			c5.18,0,6.86,2.85,6.86,2.86c0.28,0.47,0.14,1.08-0.33,1.36c-0.47,0.29-1.08,0.14-1.36-0.33c0-0.01-1.11-1.9-5.17-1.9
			C104.17,82.21,103.06,84.11,103.05,84.11z"/>
		<path class="st9" d="M123.75,104.2c-6.23,2.31-25.17,2.27-31.05,0.28C95.95,116.31,120.59,116.13,123.75,104.2z"/>
		<path class="st10" d="M89.11,130.69c-0.51-0.22-1.81-0.2-1.81,0.72c0,0.99,0.93,4.41,0.26,6.93c-0.7,2.66-1.88,4.85-0.52,5.38
			c6.25,2.43,13.07,3.71,19.91,3.85c7.68,0.16,15.39-1.13,22.4-3.85c1.36-0.53,0.18-2.72-0.52-5.38c-0.67-2.52,0.26-5.94,0.27-6.93
			c0-0.92-1.3-0.94-1.81-0.72C115.09,135.92,101.32,135.92,89.11,130.69z"/>
		<path class="st11" d="M56.46,187.7c0-0.41,0.34-0.74,0.75-0.74c0.41,0,0.74,0.34,0.74,0.75l-0.18,20.54
			c0,0.41-0.34,0.74-0.75,0.74c-0.41,0-0.74-0.34-0.74-0.75L56.46,187.7z"/>
		<path class="st11" d="M158.69,187.7c0-0.41,0.34-0.74,0.75-0.74c0.41,0,0.74,0.34,0.74,0.75l-0.18,20.54
			c0,0.41-0.34,0.74-0.75,0.74c-0.41,0-0.74-0.34-0.74-0.75L158.69,187.7z"/>
		<path class="st1" d="M90.68,133.01c0.01-0.27,0.24-0.49,0.51-0.48c0.27,0.01,0.49,0.24,0.48,0.51c-0.02,0.68-0.03,1.31-0.04,1.95
			c-0.01,1.31-0.03,2.64-0.16,4.21c-0.21,2.48-1.54,4.55-1.54,4.56c-0.15,0.23-0.45,0.3-0.68,0.15c-0.23-0.15-0.3-0.45-0.15-0.68
			c0,0,1.2-1.86,1.39-4.11c0.13-1.58,0.15-2.87,0.16-4.14C90.65,134.33,90.66,133.68,90.68,133.01z"/>
		<path class="st1" d="M94.75,134.46c0.01-0.27,0.24-0.49,0.51-0.48c0.27,0.01,0.49,0.24,0.48,0.51c-0.02,0.68-0.03,1.31-0.04,1.95
			c-0.01,1.31-0.03,2.64-0.16,4.21c-0.21,2.48-1.54,4.55-1.54,4.56c-0.15,0.23-0.45,0.3-0.68,0.15c-0.23-0.15-0.3-0.45-0.15-0.68
			c0,0,1.2-1.87,1.39-4.11c0.13-1.58,0.15-2.87,0.16-4.14C94.72,135.77,94.73,135.12,94.75,134.46z"/>
		<path class="st1" d="M99.01,135.25c0.01-0.27,0.24-0.49,0.51-0.48c0.27,0.01,0.49,0.24,0.48,0.51c-0.02,0.68-0.03,1.31-0.04,1.95
			c-0.01,1.31-0.03,2.64-0.16,4.21c-0.21,2.48-1.54,4.55-1.54,4.56c-0.15,0.23-0.45,0.3-0.68,0.15c-0.23-0.15-0.3-0.45-0.15-0.68
			c0-0.01,1.2-1.87,1.39-4.11c0.13-1.58,0.15-2.87,0.16-4.14C98.98,136.56,98.99,135.91,99.01,135.25z"/>
		<path class="st1" d="M103.41,136.03c0.01-0.27,0.24-0.49,0.51-0.48c0.27,0.01,0.49,0.24,0.48,0.51c-0.02,0.68-0.03,1.31-0.04,1.95
			c-0.01,1.31-0.03,2.64-0.16,4.21c-0.21,2.48-1.54,4.55-1.54,4.56c-0.15,0.23-0.45,0.3-0.68,0.15c-0.23-0.15-0.3-0.45-0.15-0.68
			c0,0,1.2-1.87,1.39-4.11c0.13-1.58,0.15-2.87,0.16-4.14C103.38,137.35,103.39,136.7,103.41,136.03z"/>
		<path class="st1" d="M124.27,133.04c-0.01-0.27,0.21-0.5,0.48-0.51c0.27-0.01,0.5,0.21,0.51,0.48c0.02,0.66,0.03,1.32,0.04,1.97
			c0.01,1.27,0.03,2.56,0.16,4.14c0.19,2.24,1.39,4.1,1.39,4.11c0.15,0.23,0.08,0.54-0.15,0.68c-0.23,0.15-0.54,0.08-0.68-0.15
			c0,0-1.34-2.07-1.54-4.56c-0.13-1.57-0.15-2.9-0.16-4.21C124.3,134.36,124.29,133.72,124.27,133.04z"/>
		<path class="st1" d="M120.2,134.49c-0.01-0.27,0.21-0.5,0.48-0.51c0.27-0.01,0.5,0.21,0.51,0.48c0.02,0.66,0.03,1.32,0.04,1.97
			c0.01,1.27,0.03,2.56,0.16,4.14c0.19,2.24,1.39,4.1,1.39,4.11c0.15,0.23,0.08,0.54-0.15,0.68c-0.23,0.15-0.54,0.08-0.68-0.15
			c0-0.01-1.34-2.07-1.54-4.56c-0.13-1.57-0.15-2.9-0.16-4.21C120.23,135.8,120.22,135.17,120.2,134.49z"/>
		<path class="st1" d="M115.93,135.28c-0.01-0.27,0.21-0.5,0.48-0.51c0.27-0.01,0.5,0.21,0.51,0.48c0.02,0.66,0.03,1.32,0.04,1.97
			c0.01,1.27,0.03,2.56,0.16,4.14c0.19,2.24,1.39,4.1,1.39,4.11c0.15,0.23,0.08,0.53-0.15,0.68c-0.23,0.15-0.54,0.08-0.68-0.15
			c0-0.01-1.34-2.07-1.54-4.56c-0.13-1.57-0.15-2.9-0.16-4.21C115.96,136.59,115.95,135.95,115.93,135.28z"/>
		<path class="st1" d="M111.53,136.06c-0.01-0.27,0.21-0.5,0.48-0.51c0.27-0.01,0.5,0.21,0.51,0.48c0.02,0.66,0.03,1.32,0.04,1.97
			c0.01,1.27,0.03,2.56,0.16,4.14c0.19,2.24,1.39,4.1,1.39,4.11c0.15,0.23,0.08,0.54-0.15,0.68c-0.23,0.15-0.54,0.08-0.68-0.15
			c0-0.01-1.34-2.07-1.54-4.56c-0.13-1.57-0.15-2.9-0.16-4.21C111.56,137.38,111.55,136.74,111.53,136.06z"/>
		<path class="st1" d="M107.53,136.05c0-0.27,0.22-0.5,0.49-0.5c0.27,0,0.49,0.22,0.49,0.5l0.02,10.47c0,0.27-0.22,0.49-0.49,0.49
			c-0.27,0-0.49-0.22-0.49-0.49L107.53,136.05z"/>
		<path class="st12" d="M81.12,29.14c-0.13-0.24-0.04-0.54,0.2-0.67c0.24-0.13,0.54-0.04,0.67,0.2c2.73,5.06,8.39,9.5,14.92,13.05
			c8.33,4.52,18.04,7.55,24.89,8.5c0.27,0.04,0.46,0.29,0.42,0.56c-0.04,0.27-0.29,0.46-0.56,0.42c-6.95-0.96-16.8-4.03-25.23-8.6
			C89.76,38.96,83.95,34.39,81.12,29.14z"/>
		<path class="st12" d="M86.67,24.8c-0.27,0-0.5-0.22-0.5-0.5c0-0.27,0.22-0.5,0.5-0.5c7.98,0,15.41,1.38,22.18,3.63
			c7.97,2.65,15.03,6.5,20.98,10.7c6.27,4.43,11.33,9.43,14.97,15.5c3.64,6.07,5.86,13.18,6.45,21.84c0.02,0.27-0.19,0.51-0.46,0.53
			c-0.27,0.02-0.51-0.19-0.53-0.46c-0.57-8.49-2.74-15.47-6.31-21.4c-3.56-5.93-8.53-10.84-14.69-15.19
			c-5.88-4.16-12.85-7.96-20.72-10.57C101.87,26.17,94.55,24.8,86.67,24.8z"/>
		<path class="st12" d="M90.29,20.29c-0.25,0.12-0.54,0.01-0.66-0.24c-0.11-0.25-0.01-0.54,0.24-0.66c20.35-9.38,33.61-0.04,45.04,8
			c2.82,1.99,5.54,3.9,8.2,5.41c0.24,0.13,0.32,0.44,0.19,0.67c-0.13,0.24-0.44,0.32-0.67,0.19c-2.71-1.54-5.44-3.46-8.28-5.46
			C123.13,20.31,110.13,11.16,90.29,20.29z"/>
		<path class="st12" d="M77.04,37.46c-0.01-0.27,0.2-0.51,0.47-0.52c0.27-0.01,0.51,0.2,0.52,0.47c0.14,2.66-0.61,6.45-1.92,10.19
			c-1.26,3.62-3.04,7.21-5.01,9.71c-3.83,4.86-3.89,10.84-3.89,10.86c0,0.27-0.23,0.49-0.5,0.49c-0.27,0-0.49-0.23-0.49-0.5
			c0-0.02,0.06-6.34,4.1-11.46c1.9-2.41,3.63-5.9,4.85-9.42C76.44,43.65,77.17,40,77.04,37.46z"/>
	</g>
</g>
</svg>
