<?xml version="1.0" encoding="utf-8"?>
<!-- Generator: Adobe Illustrator 25.2.1, SVG Export Plug-In . SVG Version: 6.00 Build 0)  -->
<svg version="1.1" id="Capa_1" xmlns="http://www.w3.org/2000/svg" xmlns:xlink="http://www.w3.org/1999/xlink" x="0px" y="0px"
	 viewBox="0 0 216.4 216.4" style="enable-background:new 0 0 216.4 216.4;" xml:space="preserve">
<style type="text/css">
	.st0{display:none;}
	.st1{display:inline;fill-rule:evenodd;clip-rule:evenodd;fill:#FF8500;}
	.st2{display:inline;}
	.st3{fill-rule:evenodd;clip-rule:evenodd;fill:#58556C;}
	.st4{fill-rule:evenodd;clip-rule:evenodd;fill:#E4AE7C;}
	.st5{fill-rule:evenodd;clip-rule:evenodd;fill:#D67F54;}
	.st6{fill-rule:evenodd;clip-rule:evenodd;fill:#20201E;}
	.st7{fill-rule:evenodd;clip-rule:evenodd;fill:#DA9077;}
	.st8{fill-rule:evenodd;clip-rule:evenodd;fill:#3F2716;}
	.st9{fill-rule:evenodd;clip-rule:evenodd;fill:#35253D;}
	.st10{fill-rule:evenodd;clip-rule:evenodd;fill:#2E1E11;}
	.st11{fill-rule:evenodd;clip-rule:evenodd;fill:#FFFFFF;}
	.st12{fill-rule:evenodd;clip-rule:evenodd;fill:#67627E;}
	.st13{fill-rule:evenodd;clip-rule:evenodd;fill:#383546;}
	.st14{fill-rule:evenodd;clip-rule:evenodd;fill:#432D4C;}
	.st15{fill-rule:evenodd;clip-rule:evenodd;fill:#00FF7F;}
	.st16{fill-rule:evenodd;clip-rule:evenodd;fill:#39271F;}
	.st17{fill-rule:evenodd;clip-rule:evenodd;fill:#462917;}
	.st18{fill-rule:evenodd;clip-rule:evenodd;fill:#623A1C;}
	.st19{fill-rule:evenodd;clip-rule:evenodd;fill:#774D30;}
	.st20{display:inline;fill-rule:evenodd;clip-rule:evenodd;fill:#FF0000;}
	.st21{fill-rule:evenodd;clip-rule:evenodd;fill:#575756;}
	.st22{fill-rule:evenodd;clip-rule:evenodd;fill:#784928;}
	.st23{fill-rule:evenodd;clip-rule:evenodd;fill:#231A11;}
	.st24{fill-rule:evenodd;clip-rule:evenodd;fill:#D57B19;}
	.st25{display:inline;fill-rule:evenodd;clip-rule:evenodd;fill:#F200FF;}
	.st26{fill-rule:evenodd;clip-rule:evenodd;fill:#4E3832;}
	.st27{fill-rule:evenodd;clip-rule:evenodd;fill:#F1D3A4;}
	.st28{fill-rule:evenodd;clip-rule:evenodd;fill:#23142B;}
	.st29{fill-rule:evenodd;clip-rule:evenodd;fill:#DDBA8A;}
</style>
<g class="st0">
	<path class="st1" d="M51.3,28.6h113.8c16.1,0,29.3,13.2,29.3,29.3v113.8c0,16.1-13.2,29.3-29.3,29.3H51.3
		C35.2,201,22,187.8,22,171.7V57.9C22,41.8,35.2,28.6,51.3,28.6z"/>
	<g class="st2">
		<path class="st3" d="M108.2,208.2h-71c-0.8-36.3,27.1-57.4,51.1-65.2c1.9-10.1,1.4-23.3,1.4-23.3h18.4h18.4c0,0-0.5,13.1,1.4,23.3
			c24,7.9,51.9,28.9,51.1,65.2L108.2,208.2L108.2,208.2z"/>
		<path class="st4" d="M69.2,90.6c-0.2-1.9-7.9-4.1-10.5,2.1c-2.6,6.2,2.1,15,10.9,15.7c8.8,0.7,6.2-0.9,6.2-0.9L69.2,90.6z"/>
		<path class="st4" d="M147.5,90.6c0.2-1.9,7.9-4.1,10.5,2.1c2.6,6.2-2.1,15-10.9,15.7c-8.8,0.7-6.2-0.9-6.2-0.9L147.5,90.6z"/>
		<path class="st5" d="M126.9,132.8c-8,15.3-28.6,16.9-37.4,0.6c0.2-3.3,0.3-6.5,0.3-8.9h36.8C126.6,126.8,126.7,129.7,126.9,132.8z
			"/>
		<path class="st4" d="M108.2,132.5c-45.8,1.1-68.9-111.8,0-108.9C177.1,20.7,154,133.6,108.2,132.5z"/>
		<path class="st6" d="M92.8,80.1c1.8,1.3,2.2,3.9,0.9,5.7S89.9,88,88,86.7c-1.8-1.3-2.2-3.9-0.9-5.7C88.4,79.2,91,78.8,92.8,80.1z"
			/>
		<path class="st6" d="M123.9,80.1c-1.8,1.3-2.2,3.9-0.9,5.7s3.9,2.2,5.7,0.9c1.8-1.3,2.2-3.9,0.9-5.7
			C128.3,79.2,125.7,78.8,123.9,80.1z"/>
		<path class="st7" d="M87.8,94.9c2.3,1.8,2.4,4.4,0.2,5.9c-2.2,1.4-5.9,1.2-8.2-0.6c-2.3-1.8-2.4-4.4-0.2-5.9
			C81.8,92.9,85.4,93.2,87.8,94.9z"/>
		<path class="st7" d="M128.9,94.9c-2.3,1.8-2.4,4.4-0.2,5.9c2.2,1.4,5.9,1.2,8.2-0.6c2.3-1.8,2.4-4.4,0.2-5.9
			C134.9,92.9,131.2,93.2,128.9,94.9z"/>
		<path class="st8" d="M94.6,68.9c-0.2-0.1-0.3-0.1-0.5-0.2c-1.8-0.6-3.3-0.8-5.2-0.7c-1.9,0.2-3.3,0.6-4.9,1.5
			c-0.7,0.5-3.6,2.8-2.8,3.7c0.3,0.1,3.2-1.4,4.1-1.7c1.3-0.4,2.4-0.5,3.8-0.5c1.3,0.1,2.3,0.2,3.5,0.7c0,0,0.2,0.1,0.3,0.1
			c2.4,1.2,2.2,1.9,3.8,0.8C99.2,71.4,96.6,69.9,94.6,68.9z"/>
		<path class="st8" d="M121.8,68.9c0.2-0.1,0.3-0.1,0.5-0.2c1.8-0.6,3.3-0.8,5.2-0.7c1.9,0.2,3.3,0.6,4.9,1.5
			c0.7,0.5,3.6,2.8,2.8,3.7c-0.3,0.1-3.2-1.4-4.1-1.7c-1.3-0.4-2.4-0.5-3.8-0.5c-1.3,0.1-2.3,0.2-3.5,0.7c0,0-0.2,0.1-0.3,0.1
			c-2.4,1.2-2.2,1.9-3.8,0.8C117.2,71.4,119.9,69.9,121.8,68.9z"/>
		<path class="st5" d="M106.1,117.5c-0.2-0.1-0.3-0.4-0.2-0.7c0.1-0.2,0.4-0.3,0.7-0.2c0.7,0.4,1.6,0.6,2.4,0.6
			c0.9,0,1.7-0.2,2.4-0.6c0.2-0.1,0.5-0.1,0.7,0.2c0.1,0.2,0.1,0.5-0.2,0.7c-0.8,0.5-1.8,0.7-2.9,0.7
			C108,118.2,106.9,117.9,106.1,117.5z"/>
		<path class="st5" d="M107.8,99.5c-0.3,0-0.5-0.2-0.5-0.5c0-0.3,0.2-0.5,0.5-0.5c1.2,0,2.6,0,3.7-0.2c0.9-0.2,1.6-0.4,1.6-0.8
			c0-1.4-1.4-10.3-1.4-10.3c0-0.3,0.1-0.5,0.4-0.6c0.3,0,0.5,0.1,0.6,0.4c0,0,1.5,9,1.5,10.5c0,1-1,1.6-2.4,1.8
			C110.5,99.5,109.1,99.5,107.8,99.5z"/>
		<path class="st5" d="M155.2,97.6c0,0.3-0.2,0.5-0.5,0.5c-0.3,0-0.5-0.2-0.5-0.5c0-1.5-0.3-2.5-0.7-3c-0.2-0.3-0.6-0.4-0.9-0.5
			c-0.4,0-0.9,0.1-1.4,0.4c-1.3,0.7-2.6,2.3-3.4,4c-0.4,0.8-0.7,1.7-0.9,2.3c0.8-0.5,1.6-0.7,2.3-0.7c0.4,0,0.8,0.2,1.1,0.4
			c0.3,0.2,0.6,0.5,0.7,0.9c0.2,0.7,0.1,1.6-0.7,2.7c-0.1,0.2-0.5,0.3-0.7,0.1s-0.3-0.5-0.1-0.7c0.6-0.8,0.7-1.4,0.6-1.8
			c-0.1-0.2-0.2-0.3-0.3-0.4c-0.2-0.1-0.4-0.2-0.6-0.2c-0.6-0.1-1.4,0.2-2.1,0.9c-0.2,0.2-0.4,0.3-0.5,0.3c-0.4,0.1-0.6-0.1-0.7-0.5
			l0,0c0-0.2,0-0.3,0-0.6c0.1-0.7,0.5-1.9,1.1-3.1c0.8-1.9,2.3-3.6,3.8-4.5c0.6-0.4,1.3-0.6,1.9-0.5c0.6,0,1.2,0.3,1.7,0.8
			C154.9,94.7,155.2,95.9,155.2,97.6z"/>
		<path class="st5" d="M62.2,97.6c0,0.3-0.2,0.5-0.5,0.5c-0.3,0-0.5-0.2-0.5-0.5c0-1.8,0.3-2.9,0.9-3.6c0.5-0.6,1-0.8,1.7-0.8
			c0.6,0,1.2,0.2,1.9,0.5c1.5,0.8,3,2.6,3.8,4.5c0.5,1.2,0.9,2.4,1.1,3.1c0,0.2,0,0.4,0,0.6l0,0c-0.1,0.4-0.3,0.6-0.7,0.5
			c-0.2,0-0.3-0.1-0.5-0.3c-0.7-0.7-1.5-0.9-2.1-0.9c-0.2,0-0.4,0.1-0.6,0.2c-0.1,0.1-0.2,0.2-0.3,0.4c-0.1,0.4,0,1,0.6,1.8
			c0.2,0.2,0.1,0.5-0.1,0.7c-0.2,0.2-0.5,0.1-0.7-0.1c-0.7-1.1-0.9-2-0.7-2.7c0.1-0.4,0.3-0.7,0.7-0.9c0.3-0.2,0.7-0.3,1.1-0.4
			c0.7-0.1,1.6,0.1,2.3,0.7c-0.2-0.6-0.5-1.5-0.8-2.3c-0.7-1.7-2.1-3.3-3.4-4c-0.5-0.3-0.9-0.4-1.3-0.4c-0.3,0-0.7,0.2-0.9,0.5
			C62.5,95.2,62.2,96.1,62.2,97.6z"/>
		<path class="st9" d="M158.9,33c1.9,0.4,1.7,1.9-3.9,5.9c5.1,6.5,5.9,16.8,4.2,26.4c-0.4,2.1-6.2,16.7-11.6,26.2
			c-0.5,0.9-0.2-19-5.9-26.9c-2.9-4-5.3-8.8-11.2-12.8c-0.1,1.1,3.5,4.2,2.1,4.8c-5,2.4-19.2-0.1-25.7-1.7c1.9,1.9,3.8,3.3,3.1,4
			c-2.2,2.2-16.5-1.2-25.3-7.2c-2.1,7-5.1,14.5-8.5,16.5c-9.1,5.3-5.1,27.8-7.5,24.5C57.6,77.7,60.4,58,60.4,58
			c-1.1,1.7-2.3,3.1-3.1,4.8c-1.5,3.1-2.5-25.6,11.1-29.4c0,0-2.2-0.8-7.7,0.3c-2,0.4,4-5.2,10.5-6C71.4,25,72.7,13.6,81,10
			c3.9-1.7,10.2-2.9,9.4-2.4c-4,2.4-5.1,5.7-5.1,5.7c30.4-14.4,44.3,0.9,56.2,10.5C145.1,26.7,152.7,32.5,158.9,33z"/>
		<path class="st10" d="M89.4,70.6c4.1,0,7.7,1.6,10.4,4.3c2.7,2.7,4.3,6.3,4.3,10.4s-1.6,7.7-4.3,10.4c-2.7,2.7-6.3,4.3-10.4,4.3
			s-7.7-1.6-10.4-4.3c-2.7-2.7-4.3-6.3-4.3-10.4s1.6-7.7,4.3-10.4C81.7,72.2,85.4,70.6,89.4,70.6L89.4,70.6z M98,76.6
			c-2.2-2.2-5.2-3.6-8.6-3.6s-6.4,1.4-8.6,3.6c-2.2,2.2-3.6,5.2-3.6,8.6s1.4,6.4,3.6,8.6c2.2,2.2,5.2,3.6,8.6,3.6s6.4-1.4,8.6-3.6
			c2.2-2.2,3.6-5.2,3.6-8.6C101.6,81.9,100.2,78.8,98,76.6z"/>
		<path class="st10" d="M127,70.6c4,0,7.7,1.6,10.4,4.3c2.6,2.7,4.3,6.3,4.3,10.4s-1.6,7.7-4.3,10.4c-2.6,2.7-6.3,4.3-10.4,4.3
			c-4.1,0-7.7-1.6-10.4-4.3c-2.7-2.7-4.3-6.3-4.3-10.4s1.6-7.7,4.3-10.4C119.3,72.2,123,70.6,127,70.6L127,70.6z M135.7,76.6
			c-2.2-2.2-5.2-3.6-8.6-3.6s-6.4,1.4-8.6,3.6c-2.2,2.2-3.6,5.2-3.6,8.6s1.4,6.4,3.6,8.6s5.2,3.6,8.6,3.6s6.4-1.4,8.6-3.6
			s3.6-5.2,3.6-8.6C139.2,81.9,137.9,78.8,135.7,76.6z"/>
		<path class="st10" d="M75.5,84.1c0.5-0.2,1.1,0.1,1.3,0.6c0.2,0.5-0.1,1.1-0.6,1.3l-8.7,3.2c-0.5,0.2-1.1-0.1-1.3-0.6
			c-0.2-0.5,0.1-1.1,0.6-1.3L75.5,84.1z"/>
		<path class="st10" d="M140.3,85.9c-0.5-0.2-0.8-0.8-0.6-1.3s0.8-0.8,1.3-0.6l8.7,3.2c0.5,0.2,0.8,0.8,0.6,1.3s-0.8,0.8-1.3,0.6
			L140.3,85.9z"/>
		<path class="st10" d="M103.1,84.1c-0.3,0.5-0.9,0.6-1.4,0.3c-0.5-0.3-0.6-0.9-0.3-1.4c0,0,1.7-2.9,6.9-2.9s6.9,2.8,6.9,2.9
			c0.3,0.5,0.1,1.1-0.3,1.4c-0.5,0.3-1.1,0.1-1.4-0.3c0,0-1.1-1.9-5.2-1.9C104.2,82.2,103.1,84.1,103.1,84.1z"/>
		<path class="st11" d="M123.8,104.2c-6.2,2.3-25.2,2.3-31.1,0.3C95.9,116.3,120.6,116.1,123.8,104.2z"/>
		<path class="st12" d="M89.1,130.7c-0.5-0.2-1.8-0.2-1.8,0.7c0,1,0.9,4.4,0.3,6.9c-0.7,2.7-1.9,4.9-0.5,5.4
			c6.2,2.4,13.1,3.7,19.9,3.9c7.7,0.2,15.4-1.1,22.4-3.9c1.4-0.5,0.2-2.7-0.5-5.4c-0.7-2.5,0.3-5.9,0.3-6.9c0-0.9-1.3-0.9-1.8-0.7
			C115.1,135.9,101.3,135.9,89.1,130.7z"/>
		<path class="st13" d="M56.5,187.7c0-0.4,0.3-0.7,0.8-0.7s0.7,0.3,0.7,0.8l-0.2,20.5c0,0.4-0.3,0.7-0.8,0.7s-0.7-0.3-0.7-0.8
			L56.5,187.7z"/>
		<path class="st13" d="M158.7,187.7c0-0.4,0.3-0.7,0.8-0.7s0.7,0.3,0.7,0.8l-0.2,20.5c0,0.4-0.3,0.7-0.8,0.7s-0.7-0.3-0.7-0.8
			L158.7,187.7z"/>
		<path class="st3" d="M90.7,133c0-0.3,0.2-0.5,0.5-0.5c0.3,0,0.5,0.2,0.5,0.5c0,0.7,0,1.3,0,1.9c0,1.3,0,2.6-0.2,4.2
			c-0.2,2.5-1.5,4.6-1.5,4.6c-0.2,0.2-0.4,0.3-0.7,0.1c-0.2-0.1-0.3-0.4-0.2-0.7c0,0,1.2-1.9,1.4-4.1c0.1-1.6,0.2-2.9,0.2-4.1
			C90.7,134.3,90.7,133.7,90.7,133z"/>
		<path class="st3" d="M94.8,134.5c0-0.3,0.2-0.5,0.5-0.5c0.3,0,0.5,0.2,0.5,0.5c0,0.7,0,1.3,0,1.9c0,1.3,0,2.6-0.2,4.2
			c-0.2,2.5-1.5,4.6-1.5,4.6c-0.2,0.2-0.4,0.3-0.7,0.1c-0.2-0.1-0.3-0.4-0.2-0.7c0,0,1.2-1.9,1.4-4.1c0.1-1.6,0.2-2.9,0.2-4.1
			C94.7,135.8,94.7,135.1,94.8,134.5z"/>
		<path class="st3" d="M99,135.2c0-0.3,0.2-0.5,0.5-0.5c0.3,0,0.5,0.2,0.5,0.5c0,0.7,0,1.3,0,1.9c0,1.3,0,2.6-0.2,4.2
			c-0.2,2.5-1.5,4.6-1.5,4.6c-0.2,0.2-0.4,0.3-0.7,0.1c-0.2-0.1-0.3-0.4-0.2-0.7c0,0,1.2-1.9,1.4-4.1c0.1-1.6,0.2-2.9,0.2-4.1
			C99,136.6,99,135.9,99,135.2z"/>
		<path class="st3" d="M103.4,136c0-0.3,0.2-0.5,0.5-0.5c0.3,0,0.5,0.2,0.5,0.5c0,0.7,0,1.3,0,1.9c0,1.3,0,2.6-0.2,4.2
			c-0.2,2.5-1.5,4.6-1.5,4.6c-0.2,0.2-0.4,0.3-0.7,0.1c-0.2-0.1-0.3-0.4-0.2-0.7c0,0,1.2-1.9,1.4-4.1c0.1-1.6,0.2-2.9,0.2-4.1
			C103.4,137.4,103.4,136.7,103.4,136z"/>
		<path class="st3" d="M124.3,133c0-0.3,0.2-0.5,0.5-0.5c0.3,0,0.5,0.2,0.5,0.5c0,0.7,0,1.3,0,2c0,1.3,0,2.6,0.2,4.1
			c0.2,2.2,1.4,4.1,1.4,4.1c0.2,0.2,0.1,0.5-0.2,0.7c-0.2,0.1-0.5,0.1-0.7-0.1c0,0-1.3-2.1-1.5-4.6c-0.1-1.6-0.2-2.9-0.2-4.2
			C124.3,134.4,124.3,133.7,124.3,133z"/>
		<path class="st3" d="M120.2,134.5c0-0.3,0.2-0.5,0.5-0.5c0.3,0,0.5,0.2,0.5,0.5c0,0.7,0,1.3,0,2c0,1.3,0,2.6,0.2,4.1
			c0.2,2.2,1.4,4.1,1.4,4.1c0.2,0.2,0.1,0.5-0.2,0.7c-0.2,0.1-0.5,0.1-0.7-0.1c0,0-1.3-2.1-1.5-4.6c-0.1-1.6-0.2-2.9-0.2-4.2
			C120.2,135.8,120.2,135.2,120.2,134.5z"/>
		<path class="st3" d="M115.9,135.3c0-0.3,0.2-0.5,0.5-0.5c0.3,0,0.5,0.2,0.5,0.5c0,0.7,0,1.3,0,2c0,1.3,0,2.6,0.2,4.1
			c0.2,2.2,1.4,4.1,1.4,4.1c0.2,0.2,0.1,0.5-0.2,0.7s-0.5,0.1-0.7-0.1c0,0-1.3-2.1-1.5-4.6c-0.1-1.6-0.2-2.9-0.2-4.2
			C116,136.6,115.9,135.9,115.9,135.3z"/>
		<path class="st3" d="M111.5,136.1c0-0.3,0.2-0.5,0.5-0.5c0.3,0,0.5,0.2,0.5,0.5c0,0.7,0,1.3,0,2c0,1.3,0,2.6,0.2,4.1
			c0.2,2.2,1.4,4.1,1.4,4.1c0.2,0.2,0.1,0.5-0.2,0.7c-0.2,0.1-0.5,0.1-0.7-0.1c0,0-1.3-2.1-1.5-4.6c-0.1-1.6-0.2-2.9-0.2-4.2
			C111.6,137.4,111.6,136.7,111.5,136.1z"/>
		<path class="st3" d="M107.5,136.1c0-0.3,0.2-0.5,0.5-0.5s0.5,0.2,0.5,0.5l0,10.5c0,0.3-0.2,0.5-0.5,0.5s-0.5-0.2-0.5-0.5
			L107.5,136.1z"/>
		<path class="st14" d="M81.1,29.1c-0.1-0.2,0-0.5,0.2-0.7s0.5,0,0.7,0.2c2.7,5.1,8.4,9.5,14.9,13.1c8.3,4.5,18,7.5,24.9,8.5
			c0.3,0,0.5,0.3,0.4,0.6s-0.3,0.5-0.6,0.4c-6.9-1-16.8-4-25.2-8.6C89.8,39,83.9,34.4,81.1,29.1z"/>
		<path class="st14" d="M86.7,24.8c-0.3,0-0.5-0.2-0.5-0.5c0-0.3,0.2-0.5,0.5-0.5c8,0,15.4,1.4,22.2,3.6c8,2.6,15,6.5,21,10.7
			c6.3,4.4,11.3,9.4,15,15.5s5.9,13.2,6.4,21.8c0,0.3-0.2,0.5-0.5,0.5s-0.5-0.2-0.5-0.5c-0.6-8.5-2.7-15.5-6.3-21.4
			c-3.6-5.9-8.5-10.8-14.7-15.2c-5.9-4.2-12.8-8-20.7-10.6C101.9,26.2,94.6,24.8,86.7,24.8z"/>
		<path class="st14" d="M90.3,20.3c-0.2,0.1-0.5,0-0.7-0.2c-0.1-0.2,0-0.5,0.2-0.7c20.3-9.4,33.6,0,45,8c2.8,2,5.5,3.9,8.2,5.4
			c0.2,0.1,0.3,0.4,0.2,0.7c-0.1,0.2-0.4,0.3-0.7,0.2c-2.7-1.5-5.4-3.5-8.3-5.5C123.1,20.3,110.1,11.2,90.3,20.3z"/>
		<path class="st14" d="M77,37.5c0-0.3,0.2-0.5,0.5-0.5c0.3,0,0.5,0.2,0.5,0.5c0.1,2.7-0.6,6.5-1.9,10.2c-1.3,3.6-3,7.2-5,9.7
			c-3.8,4.9-3.9,10.8-3.9,10.9c0,0.3-0.2,0.5-0.5,0.5s-0.5-0.2-0.5-0.5c0,0,0.1-6.3,4.1-11.5c1.9-2.4,3.6-5.9,4.8-9.4
			C76.4,43.7,77.2,40,77,37.5z"/>
	</g>
</g>
<g>
	<path class="st15" d="M51.3,29.9h113.8c16.1,0,29.3,13.2,29.3,29.3V173c0,16.1-13.2,29.3-29.3,29.3H51.3
		C35.2,202.4,22,189.2,22,173V59.3C22,43.1,35.2,29.9,51.3,29.9z"/>
	<g>
		<path class="st16" d="M109.1,151.1c6.5,20.8,19.1,32.5,41.4,38.1c-5.7-8.3-3.7-20.7,5.9-26c9.6-5.3,20.1-10.5,20.1-21.2
			c0-16.7-12.7-14.8-5.4-25.5c7.3-10.8,7.8-29-5.4-37.8c-0.2-0.1-0.4-0.2-0.6-0.4c-2.5-2.4-4.3-3-1.4-7.8
			c18.6-31.5-37.8-62.2-54.2-36.7c-3.6-5.1-10.1-10.4-21.4-9.1c-7,0.8-24.9,8.1-32.8,21.1c-13.2,21.7,6.5,21.3-3.1,32.6
			c-1,0.8-2,1.7-2.8,2.8c-0.1,0.1-0.2,0.2-0.3,0.3c-12.5,9.8-9.4,24.2-2.1,35s-6.9,10.9-7.1,25c-0.3,14.4,14.8,17.2,24.4,22.5
			s9.1,16.9,3.4,25.2C90,183.6,102.6,171.9,109.1,151.1z"/>
		<path class="st4" d="M108.2,209.6h71.4c0-67.2-53.3-30.9-53.3-86.9h-18.2H89.8c0,56-53,19.7-53,86.9H108.2z"/>
		<path class="st4" d="M69.2,88.6c-0.2-1.9-7.9-4.1-10.5,2.1c-2.6,6.2,2.1,15,10.9,15.7c8.8,0.7,6.2-0.9,6.2-0.9L69.2,88.6z"/>
		<path class="st4" d="M147.5,88.6c0.2-1.9,7.9-4.1,10.5,2.1c2.6,6.2-2.1,15-10.9,15.7c-8.8,0.7-6.2-0.9-6.2-0.9L147.5,88.6z"/>
		<path class="st5" d="M126.7,121.1c0,0-0.1,2.6,0,6.4c-7,17.6-28.8,19.6-36.8,0.7c0.1-4.2,0-7.1,0-7.1
			C102.1,121.1,114.4,121.1,126.7,121.1z"/>
		<path class="st4" d="M108.2,130.5c-45.8,1.1-68.9-111.8,0-108.9C177.1,18.7,154,131.6,108.2,130.5z"/>
		<path class="st16" d="M87.6,80.9c0.1,0.7-0.4,1.3-1.1,1.3c-0.7,0.1-1.3-0.4-1.3-1.1c-0.1-0.6,0-1.3,0.2-1.9
			c0.2-0.6,0.4-1.2,0.8-1.7c0.9-1.2,2.1-1.9,3.5-2.1c1.3-0.2,2.8,0.1,4,0.9c0.8,0.6,1.3,1.3,1.7,2.1c0.4,0.8,0.6,1.7,0.5,2.6
			c-0.1,0.7-0.6,1.2-1.3,1.2c-0.7-0.1-1.2-0.6-1.2-1.3c0-0.5-0.1-1-0.3-1.4c-0.2-0.4-0.5-0.8-0.9-1.1c-0.6-0.5-1.4-0.6-2.1-0.5
			c-0.7,0.1-1.4,0.5-1.9,1.2c-0.2,0.3-0.4,0.6-0.4,0.9C87.6,80.2,87.6,80.6,87.6,80.9z"/>
		<path class="st7" d="M87.8,90.9c2.3,1.8,2.4,4.4,0.2,5.9c-2.2,1.4-5.9,1.2-8.2-0.6c-2.3-1.8-2.4-4.4-0.2-5.9
			C81.8,88.8,85.4,89.1,87.8,90.9z"/>
		<path class="st7" d="M128.9,90.9c-2.3,1.8-2.4,4.4-0.2,5.9c2.2,1.4,5.9,1.2,8.2-0.6c2.3-1.8,2.4-4.4,0.2-5.9
			C134.9,88.8,131.2,89.1,128.9,90.9z"/>
		<path class="st8" d="M94.6,64.8c-0.2-0.1-0.3-0.1-0.5-0.2c-1.8-0.6-3.3-0.8-5.2-0.7c-1.9,0.2-3.3,0.6-4.9,1.5
			c-0.7,0.5-3.6,2.8-2.8,3.7c0.3,0.1,3.2-1.4,4.1-1.7c1.3-0.4,2.4-0.5,3.8-0.5c1.3,0.1,2.3,0.2,3.5,0.7c0,0,0.2,0.1,0.3,0.1
			c2.4,1.2,2.2,1.9,3.8,0.8C99.2,67.3,96.6,65.9,94.6,64.8z"/>
		<path class="st8" d="M121.8,64.8c0.2-0.1,0.3-0.1,0.5-0.2c1.8-0.6,3.3-0.8,5.2-0.7c1.9,0.2,3.3,0.6,4.9,1.5
			c0.7,0.5,3.6,2.8,2.8,3.7c-0.3,0.1-3.2-1.4-4.1-1.7c-1.3-0.4-2.4-0.5-3.8-0.5c-1.3,0.1-2.3,0.2-3.5,0.7c0,0-0.2,0.1-0.3,0.1
			c-2.4,1.2-2.2,1.9-3.8,0.8C117.2,67.3,119.9,65.9,121.8,64.8z"/>
		<path class="st11" d="M96.3,100.4c4.2-0.1,8.4-0.1,12.6-0.1c4.2,0,8.4,0,12.6,0.1c0,6.6-6.5,9-12.6,9h0h0
			C102.9,109.4,96.3,107.1,96.3,100.4z"/>
		<path class="st5" d="M106.1,113.4c-0.2-0.1-0.3-0.4-0.2-0.7c0.1-0.2,0.4-0.3,0.7-0.2c0.7,0.4,1.6,0.6,2.4,0.6
			c0.9,0,1.7-0.2,2.4-0.6c0.2-0.1,0.5-0.1,0.7,0.2c0.1,0.2,0.1,0.5-0.2,0.7c-0.8,0.5-1.8,0.7-2.9,0.7
			C108,114.1,106.9,113.9,106.1,113.4z"/>
		<path class="st5" d="M107.8,91.4c-0.3,0-0.5-0.2-0.5-0.5c0-0.3,0.2-0.5,0.5-0.5c1.2,0,2.6,0,3.7-0.2c0.9-0.2,1.6-0.4,1.6-0.8
			c0-1.4-1.4-10.3-1.4-10.3c0-0.3,0.1-0.5,0.4-0.6c0.3,0,0.5,0.1,0.6,0.4c0,0,1.5,9,1.5,10.5c0,1-1,1.6-2.4,1.8
			C110.5,91.3,109.1,91.4,107.8,91.4z"/>
		<path class="st5" d="M155.2,95.6c0,0.3-0.2,0.5-0.5,0.5c-0.3,0-0.5-0.2-0.5-0.5c0-1.5-0.3-2.4-0.7-3c-0.2-0.3-0.6-0.4-0.9-0.5
			c-0.4,0-0.9,0.1-1.4,0.4c-1.3,0.7-2.6,2.3-3.4,4c-0.4,0.8-0.7,1.7-0.9,2.3c0.8-0.5,1.6-0.7,2.3-0.7c0.4,0,0.8,0.2,1.1,0.4
			c0.3,0.2,0.6,0.5,0.7,0.9c0.2,0.7,0.1,1.6-0.7,2.7c-0.1,0.2-0.5,0.3-0.7,0.1s-0.3-0.5-0.1-0.7c0.6-0.8,0.7-1.4,0.6-1.8
			c-0.1-0.2-0.2-0.3-0.3-0.4c-0.2-0.1-0.4-0.2-0.6-0.2c-0.6-0.1-1.4,0.2-2.1,0.9c-0.2,0.2-0.4,0.3-0.5,0.3c-0.4,0.1-0.6-0.1-0.7-0.5
			l0,0c0-0.2,0-0.3,0-0.6c0.1-0.7,0.5-1.9,1.1-3.1c0.8-1.9,2.3-3.6,3.8-4.5c0.6-0.4,1.3-0.6,1.9-0.5c0.6,0,1.2,0.3,1.7,0.8
			C154.9,92.7,155.2,93.9,155.2,95.6z"/>
		<path class="st5" d="M62.2,95.6c0,0.3-0.2,0.5-0.5,0.5c-0.3,0-0.5-0.2-0.5-0.5c0-1.8,0.3-2.9,0.9-3.6c0.5-0.6,1-0.8,1.7-0.8
			c0.6,0,1.2,0.2,1.9,0.5c1.5,0.8,3,2.6,3.8,4.5c0.5,1.2,0.9,2.4,1.1,3.1c0,0.2,0,0.4,0,0.6l0,0c-0.1,0.4-0.3,0.6-0.7,0.5
			c-0.2,0-0.3-0.1-0.5-0.3c-0.7-0.7-1.5-0.9-2.1-0.9c-0.2,0-0.4,0.1-0.6,0.2c-0.1,0.1-0.2,0.2-0.3,0.4c-0.1,0.4,0,1,0.6,1.8
			c0.2,0.2,0.1,0.5-0.1,0.7c-0.2,0.2-0.5,0.1-0.7-0.1c-0.7-1.1-0.9-2-0.7-2.7c0.1-0.4,0.3-0.7,0.7-0.9c0.3-0.2,0.7-0.3,1.1-0.4
			c0.7-0.1,1.6,0.1,2.3,0.7c-0.2-0.6-0.5-1.5-0.8-2.3c-0.7-1.7-2.1-3.3-3.4-4c-0.5-0.3-0.9-0.4-1.3-0.4c-0.3,0-0.7,0.2-0.9,0.5
			C62.5,93.2,62.2,94.1,62.2,95.6z"/>
		<path class="st17" d="M69.8,95.7c-4.6-9-4.6-19.1-5-22.9c-4.3-37.9,19.3-55.9,42.7-55.2c0.2,0,0.5,0,0.7,0v14.9
			c-4.3-1.4-7.9-2.2-9.9-2.2c-0.2,0-0.5,0-0.7,0c-0.2,0-0.5,0-0.7,0c-5.4,0-8,9-14.2,11.4c-3.6,1.4-0.2,17.8-3.8,26
			c-0.9,2-5.6,6.8-6.7,7.2C69.1,78,68.7,81.6,69.8,95.7z"/>
		<path class="st17" d="M146.6,95.7c4.6-9,4.5-19.1,5-22.9c4.3-37.9-19.4-55.9-42.7-55.2c-0.2,0-0.5,0-0.7,0v14.9
			c4.3-1.4,7.9-2.2,9.9-2.2c0.2,0,0.5,0,0.7,0c0.2,0,0.5,0,0.7,0c5.4,0,8,11.5,14.2,13.9c3.6,1.4,0.1,15.3,3.8,23.5
			c0.9,2,5.6,6.8,6.7,7.2C147.4,78,147.7,81.6,146.6,95.7z"/>
		<polygon class="st10" points="108.2,209.6 162.7,209.6 159.7,190.9 56.8,190.9 53.8,209.6 		"/>
		<path class="st10" d="M60.8,192.5c0,1.2-1,2.1-2.2,2c-1.2,0-2.1-1-2-2.2l4.2-30.6c0-1.2,1-2.1,2.2-2c1.2,0,2.1,1,2,2.2L60.8,192.5
			z"/>
		<path class="st10" d="M155.7,192.5c0,1.2,1,2.1,2.2,2c1.2,0,2.1-1,2-2.2l-4.2-30.6c0-1.2-1-2.1-2.2-2c-1.2,0-2.1,1-2,2.2
			L155.7,192.5z"/>
		<path class="st16" d="M123.4,80.9c0.1,0.7-0.4,1.3-1.1,1.3c-0.7,0.1-1.3-0.4-1.3-1.1c-0.1-0.6,0-1.3,0.2-1.9
			c0.2-0.6,0.4-1.2,0.8-1.7c0.9-1.2,2.1-1.9,3.5-2.1c1.3-0.2,2.8,0.1,4,0.9c0.8,0.6,1.3,1.3,1.7,2.1c0.4,0.8,0.6,1.7,0.5,2.6
			c-0.1,0.7-0.6,1.2-1.3,1.2c-0.7-0.1-1.2-0.6-1.1-1.3c0-0.5-0.1-1-0.3-1.4c-0.2-0.4-0.5-0.8-0.9-1.1c-0.6-0.5-1.4-0.6-2.1-0.5
			c-0.7,0.1-1.4,0.5-1.9,1.2c-0.2,0.3-0.4,0.6-0.4,0.9C123.4,80.2,123.4,80.6,123.4,80.9z"/>
		<path class="st18" d="M81,43.8C101.7,29.4,92.8,55,110.3,55c8.7,0,16.7,3.5,16.5,10.9s-0.2,10.7,7.8,14.5
			c15.5,7.4-14.1,33,24.7,34.5c-4.1-18.7,15.2-24.8,8.7-41s-19.1-11.5-16.3-21.6c2.2-7.9,3.1-16.5-2.6-22.6
			c-8.2-8.8-16.4,0.2-21.6-8.3c-4.4-7.1-7-17.7-25.7-13.7C77.9,12.7,76.9,31.8,81,43.8z"/>
		<path class="st19" d="M83.7,35c-0.2,0.2-0.5,0.3-0.7,0.1s-0.3-0.5-0.1-0.7c0.8-1.1,2.7-2.3,4.9-3.1c1.6-0.6,3.4-0.9,5.2-0.9
			c1.8,0,3.6,0.5,5.1,1.5c1.3,0.9,2.4,2.3,3.1,4.3c1.5,4.4,3,6.9,4.9,8.3c2,1.4,4.6,1.7,8.4,1.9c4,0.2,8.8,0.8,12.6,3
			c3.9,2.2,6.8,5.8,7,12.1c0.2,5.9,0.9,9.2,2.2,11.2c1.2,1.9,3.1,2.7,5.6,3.5c0.2,0.1,0.4,0.1,0.5,0.2c2.5,0.9,4.3,2.5,5.2,4.8
			c0.9,2.3,0.9,5.2-0.3,8.9c-0.1,0.4-0.2,0.7-0.4,1.1c-1.4,3.9-1.8,7.4-1.2,10.2c0.6,2.8,2.1,4.9,4.2,5.9c0.2,0.1,0.4,0.4,0.3,0.7
			s-0.4,0.4-0.6,0.3c-2.5-1.1-4.2-3.4-4.8-6.6c-0.6-3-0.2-6.7,1.3-10.7c0.1-0.4,0.3-0.7,0.4-1c1.1-3.5,1.2-6.2,0.4-8.3
			c-0.8-2-2.4-3.4-4.6-4.2c-0.2-0.1-0.3-0.1-0.5-0.2c-2.7-0.9-4.7-1.7-6.2-3.9c-1.4-2.2-2.1-5.6-2.3-11.8c-0.2-5.8-2.9-9.2-6.5-11.2
			c-3.7-2-8.3-2.7-12.2-2.8c-4-0.2-6.8-0.6-8.9-2.1c-2.2-1.5-3.7-4.1-5.3-8.7c-0.6-1.8-1.6-3-2.7-3.8c-1.3-0.9-2.9-1.3-4.5-1.4
			c-1.6,0-3.3,0.3-4.8,0.8C86.1,32.9,84.4,34,83.7,35z"/>
		<path class="st19" d="M88.8,20.7c-0.2,0.1-0.5,0-0.7-0.2s0-0.5,0.2-0.7c0.9-0.5,2.1-0.9,3.3-1.2c2.7-0.8,6-1.1,8.9-0.5
			c3,0.6,5.6,2,7.1,5c0.2,0.5,0.5,1.1,0.6,1.7c1.1,3.9,3.1,6.5,5.7,8.1c3,1.8,6.7,2.3,10.3,1.8c0.8-0.1,1.6-0.2,2.4-0.2
			c3.3,0,7.1,0.9,10.1,2.7c3.1,1.8,5.6,4.5,6.1,8.2c0.1,0.5,0.1,1.1,0.1,1.6c0,1.6,0,3.2-0.1,4.7c-0.2,6-0.2,9.4,3.1,11.4
			c0.3,0.2,0.5,0.3,0.8,0.5l0,0c5.3,3,18.2,10.5,13.6,22.6c-4.8,12.4-5.8,13.8-5.9,13.8c-0.2,0.2-0.5,0.3-0.7,0.1
			c-0.2-0.2-0.3-0.5-0.1-0.7c0,0,1-1.2,5.7-13.5c4.3-11.3-8.1-18.5-13.2-21.4l0,0c-0.3-0.2-0.6-0.3-0.8-0.5c-3.9-2.3-3.8-6-3.6-12.3
			c0-1.4,0.1-2.9,0.1-4.7c0-0.5,0-1-0.1-1.5c-0.5-3.3-2.7-5.8-5.6-7.5c-2.9-1.7-6.5-2.5-9.6-2.5c-0.8,0-1.6,0.1-2.3,0.2
			c-3.8,0.6-7.7,0-10.9-2c-2.8-1.7-5-4.5-6.2-8.7c-0.2-0.5-0.3-1.1-0.6-1.5c-1.3-2.6-3.7-3.9-6.3-4.4c-2.8-0.5-5.9-0.2-8.5,0.5
			C90.7,19.9,89.7,20.2,88.8,20.7z"/>
	</g>
</g>
<g class="st0">
	<path class="st20" d="M51.3,20.5h113.8c16.1,0,29.3,13.2,29.3,29.3v113.8c0,16.1-13.2,29.3-29.3,29.3H51.3
		C35.2,193,22,179.8,22,163.6V49.9C22,33.8,35.2,20.5,51.3,20.5z"/>
	<g class="st2">
		<path class="st4" d="M108.2,200.2h-71c-0.8-36.3,27.1-57.4,51.1-65.2c1.9-10.1,1.4-23.3,1.4-23.3h18.4h18.4c0,0-0.5,13.1,1.4,23.3
			c24,7.9,51.9,28.9,51.1,65.2L108.2,200.2L108.2,200.2z"/>
		<path class="st5" d="M126.9,124.7c-2.3,4.4-10.4,8.6-18.7,8.7c-8.1,0.1-16.4-3.9-18.7-8.1c0.2-3.3,0.3-6.5,0.3-8.9h36.8
			C126.7,118.7,126.7,121.6,126.9,124.7z"/>
		<path class="st4" d="M69.2,82.6c-0.2-1.9-7.9-4.1-10.5,2.1c-2.6,6.2,2.1,15,10.9,15.7c8.8,0.7,6.2-0.9,6.2-0.9L69.2,82.6z"/>
		<path class="st21" d="M108.2,200.2h-2.6H103h-2.6h-2.6h-2.6h-2.6h-2.6h-2.6h-2.6H82h-2.6h-2.6h-2.6h-2.6h-2.6h-2.6h-2.6h-2.6h-2.6
			h-2.6h-2.6h-2.6H48h-2.6h-2.6h-2.6h-2.6h-0.3c-0.7-29.4,17.5-48.8,37.2-59.3c0.9-0.5,1.8-0.9,2.6-1.4c3.8-1.8,7.5-3.4,11.2-4.6
			c0.1-0.5,0.2-1,0.3-1.5c8,3.5,23,7.5,39.3,0.5c0.1,0.4,0.1,0.7,0.2,1.1c3.6,1.2,7.4,2.7,11.1,4.5c0.9,0.5,1.9,1,2.9,1.5
			c19.6,10.5,37.8,29.9,37.1,59.3h-0.3h-2.6h-2.6h-2.6h-2.6h-2.6H163h-2.6h-2.6h-2.6h-2.6H150h-2.6h-2.6h-2.6h-2.6h-2.6h-2.6h-2.6
			H129h-2.6h-2.6h-2.6h-2.6h-2.6h-2.6h-2.6L108.2,200.2L108.2,200.2z"/>
		<path class="st4" d="M147.5,82.6c0.2-1.9,7.9-4.1,10.5,2.1c2.6,6.2-2.1,15-10.9,15.7c-8.8,0.7-6.2-0.9-6.2-0.9L147.5,82.6z"/>
		<path class="st4" d="M108.2,124.4c-45.8,1.1-68.9-111.8,0-108.9C177.1,12.7,154,125.5,108.2,124.4z"/>
		<path class="st5" d="M155.2,89.6c0,0.3-0.2,0.5-0.5,0.5c-0.3,0-0.5-0.2-0.5-0.5c0-1.5-0.3-2.5-0.7-3c-0.2-0.3-0.6-0.4-0.9-0.5
			c-0.4,0-0.9,0.1-1.4,0.4c-1.3,0.7-2.6,2.3-3.4,4c-0.4,0.8-0.7,1.7-0.9,2.3c0.8-0.5,1.6-0.7,2.3-0.7c0.4,0,0.8,0.2,1.1,0.4
			c0.3,0.2,0.6,0.5,0.7,0.9c0.2,0.7,0.1,1.6-0.7,2.7c-0.1,0.2-0.5,0.3-0.7,0.1s-0.3-0.5-0.1-0.7c0.6-0.8,0.7-1.4,0.6-1.8
			c-0.1-0.2-0.2-0.3-0.3-0.4c-0.2-0.1-0.4-0.2-0.6-0.2c-0.6-0.1-1.4,0.2-2.1,0.9c-0.2,0.2-0.4,0.3-0.5,0.3c-0.4,0.1-0.6-0.1-0.7-0.5
			l0,0c0-0.2,0-0.3,0-0.6c0.1-0.7,0.5-1.9,1.1-3.1c0.8-1.9,2.3-3.6,3.8-4.5c0.6-0.4,1.3-0.6,1.9-0.5c0.6,0,1.2,0.3,1.7,0.8
			C154.9,86.7,155.2,87.8,155.2,89.6z"/>
		<path class="st5" d="M62.2,89.6c0,0.3-0.2,0.5-0.5,0.5c-0.3,0-0.5-0.2-0.5-0.5c0-1.8,0.3-2.9,0.9-3.6c0.5-0.6,1-0.8,1.7-0.8
			c0.6,0,1.2,0.2,1.9,0.5c1.5,0.8,3,2.6,3.8,4.5c0.5,1.2,0.9,2.4,1.1,3.1c0,0.2,0,0.4,0,0.6l0,0c-0.1,0.4-0.3,0.6-0.7,0.5
			c-0.2,0-0.3-0.1-0.5-0.3c-0.7-0.7-1.5-0.9-2.1-0.9c-0.2,0-0.4,0.1-0.6,0.2c-0.1,0.1-0.2,0.2-0.3,0.4c-0.1,0.4,0,1,0.6,1.8
			c0.2,0.2,0.1,0.5-0.1,0.7c-0.2,0.2-0.5,0.1-0.7-0.1c-0.7-1.1-0.9-2-0.7-2.7c0.1-0.4,0.3-0.7,0.7-0.9c0.3-0.2,0.7-0.3,1.1-0.4
			c0.7-0.1,1.6,0.1,2.3,0.7c-0.2-0.6-0.5-1.5-0.8-2.3c-0.8-1.7-2.1-3.3-3.4-4c-0.5-0.3-0.9-0.4-1.3-0.4c-0.3,0-0.7,0.2-0.9,0.5
			C62.5,87.1,62.2,88.1,62.2,89.6z"/>
		<path class="st13" d="M56.5,179.7c0-0.4,0.3-0.7,0.8-0.7s0.7,0.3,0.7,0.8l-0.2,20.5c0,0.4-0.3,0.7-0.8,0.7s-0.7-0.3-0.7-0.8
			L56.5,179.7z"/>
		<path class="st13" d="M158.7,179.7c0-0.4,0.3-0.7,0.8-0.7s0.7,0.3,0.7,0.8l-0.2,20.5c0,0.4-0.3,0.7-0.8,0.7s-0.7-0.3-0.7-0.8
			L158.7,179.7z"/>
		<path class="st22" d="M65.9,74.3c0.6-2.4,1.6-9.2,1.7-8.2c1.1,20.9,9.2,34.5,16.8,40.5c7.4,5.9-4.1-14.7,23.1-14.4
			c0.3,0,0.5,0,0.8,0s0.5,0,0.8,0c27.3-0.3,15.7,20.3,23.1,14.4c7.5-6,15.7-19.7,16.8-40.5c0.1-1.1,1.1,5.8,1.7,8.2
			c-4.3,26-20.8,50.7-42.3,50.1C86.7,124.9,70.2,100.3,65.9,74.3z"/>
		<path class="st22" d="M67.5,81.9c0.6-1.6,0.9-5,0.8-9.4c-0.1-6.1,8.3-9.1,7.3-17.8c-3-25.6,16.9-16.9,32.5-16.9V15.5l0,0
			C68.5,13.9,59.4,50.6,67.5,81.9z"/>
		<path class="st22" d="M149.1,81.3c-0.5-1.7-0.8-4.8-1-8.8c-0.2-6.1-8.4-9.1-7.3-17.8c3-25.6-16.9-16.9-32.5-16.9V15.6
			C147.7,13.9,156.9,50.2,149.1,81.3z"/>
		<path class="st6" d="M92.8,72c1.8,1.3,2.2,3.9,0.9,5.7S89.9,80,88,78.7c-1.8-1.3-2.2-3.9-0.9-5.7C88.4,71.1,91,70.7,92.8,72z"/>
		<path class="st6" d="M123.9,72c-1.8,1.3-2.2,3.9-0.9,5.7s3.9,2.2,5.7,0.9c1.8-1.3,2.2-3.9,0.9-5.7S125.7,70.7,123.9,72z"/>
		<path class="st7" d="M87.8,86.9c2.3,1.8,2.4,4.4,0.2,5.9c-2.2,1.4-5.9,1.2-8.2-0.6c-2.3-1.8-2.4-4.4-0.2-5.9S85.4,85.1,87.8,86.9z
			"/>
		<path class="st7" d="M128.9,86.9c-2.3,1.8-2.4,4.4-0.2,5.9c2.2,1.4,5.9,1.2,8.2-0.6c2.3-1.8,2.4-4.4,0.2-5.9
			C134.9,84.8,131.2,85.1,128.9,86.9z"/>
		<path class="st8" d="M94.6,60.9c-0.2-0.1-0.3-0.1-0.5-0.2c-1.8-0.6-3.3-0.8-5.2-0.7c-1.9,0.2-3.3,0.6-4.9,1.5
			c-0.7,0.5-3.6,2.8-2.8,3.7c0.3,0.1,3.2-1.4,4.1-1.7c1.3-0.4,2.4-0.5,3.8-0.5c1.3,0.1,2.3,0.2,3.5,0.7c0,0,0.2,0.1,0.3,0.1
			c2.4,1.2,2.2,1.9,3.8,0.8C99.2,63.4,96.6,61.9,94.6,60.9z"/>
		<path class="st8" d="M121.8,60.9c0.2-0.1,0.3-0.1,0.5-0.2c1.8-0.6,3.3-0.8,5.2-0.7c1.9,0.2,3.3,0.6,4.9,1.5
			c0.7,0.5,3.6,2.8,2.8,3.7c-0.3,0.1-3.2-1.4-4.1-1.7c-1.3-0.4-2.4-0.5-3.8-0.5c-1.3,0.1-2.3,0.2-3.5,0.7c0,0-0.2,0.1-0.3,0.1
			c-2.4,1.2-2.2,1.9-3.8,0.8C117.2,63.4,119.9,61.9,121.8,60.9z"/>
		<path class="st5" d="M106.1,109.4c-0.2-0.1-0.3-0.4-0.2-0.7c0.1-0.2,0.4-0.3,0.7-0.2c0.7,0.4,1.6,0.6,2.4,0.6
			c0.9,0,1.7-0.2,2.4-0.6c0.2-0.1,0.5-0.1,0.7,0.2c0.1,0.2,0.1,0.5-0.2,0.7c-0.8,0.5-1.8,0.7-2.9,0.7
			C108,110.2,106.9,109.9,106.1,109.4z"/>
		<path class="st5" d="M107.8,91.5c-0.3,0-0.5-0.2-0.5-0.5c0-0.3,0.2-0.5,0.5-0.5c1.2,0,2.6,0,3.7-0.2c0.9-0.2,1.6-0.4,1.6-0.8
			c0-1.4-1.4-10.3-1.4-10.3c0-0.3,0.1-0.5,0.4-0.6c0.3,0,0.5,0.1,0.6,0.4c0,0,1.5,9,1.5,10.5c0,1-1,1.6-2.4,1.8
			C110.5,91.5,109.1,91.5,107.8,91.5z"/>
		<path class="st10" d="M89.4,62.5c4.1,0,7.7,1.6,10.4,4.3c2.7,2.7,4.3,6.3,4.3,10.4s-1.6,7.7-4.3,10.4c-2.7,2.7-6.3,4.3-10.4,4.3
			s-7.7-1.6-10.4-4.3c-2.7-2.7-4.3-6.3-4.3-10.4s1.6-7.7,4.3-10.4C81.7,64.2,85.4,62.5,89.4,62.5L89.4,62.5z M98,68.6
			c-2.2-2.2-5.2-3.6-8.6-3.6s-6.4,1.4-8.6,3.6c-2.2,2.2-3.6,5.2-3.6,8.6s1.4,6.4,3.6,8.6s5.2,3.6,8.6,3.6s6.4-1.4,8.6-3.6
			c2.2-2.2,3.6-5.2,3.6-8.6C101.6,73.9,100.2,70.8,98,68.6z"/>
		<path class="st10" d="M127,62.5c4,0,7.7,1.6,10.4,4.3c2.6,2.7,4.3,6.3,4.3,10.4s-1.6,7.7-4.3,10.4s-6.3,4.3-10.4,4.3
			c-4.1,0-7.7-1.6-10.4-4.3c-2.7-2.7-4.3-6.3-4.3-10.4s1.6-7.7,4.3-10.4C119.3,64.2,123,62.5,127,62.5L127,62.5z M135.6,68.6
			c-2.2-2.2-5.2-3.6-8.6-3.6s-6.4,1.4-8.6,3.6c-2.2,2.2-3.6,5.2-3.6,8.6s1.4,6.4,3.6,8.6s5.2,3.6,8.6,3.6s6.4-1.4,8.6-3.6
			s3.6-5.2,3.6-8.6C139.2,73.9,137.9,70.8,135.6,68.6z"/>
		<path class="st10" d="M75.5,76c0.5-0.2,1.1,0.1,1.3,0.6c0.2,0.5-0.1,1.1-0.6,1.3L67.5,81c-0.5,0.2-1.1-0.1-1.3-0.6
			c-0.2-0.5,0.1-1.1,0.6-1.3L75.5,76z"/>
		<path class="st10" d="M140.3,77.9c-0.5-0.2-0.8-0.8-0.6-1.3s0.8-0.8,1.3-0.6l8.7,3.2c0.5,0.2,0.8,0.8,0.6,1.3s-0.8,0.8-1.3,0.6
			L140.3,77.9z"/>
		<path class="st10" d="M103.1,76.1c-0.3,0.5-0.9,0.6-1.4,0.3c-0.5-0.3-0.6-0.9-0.3-1.4c0,0,1.7-2.9,6.9-2.9s6.9,2.8,6.9,2.9
			c0.3,0.5,0.1,1.1-0.3,1.4c-0.5,0.3-1.1,0.1-1.4-0.3c0,0-1.1-1.9-5.2-1.9C104.2,74.2,103.1,76.1,103.1,76.1z"/>
		<path class="st11" d="M123.8,96.2c-6.2,2.3-25.2,2.3-31.1,0.3C95.9,108.3,120.6,108.1,123.8,96.2z"/>
		<path class="st23" d="M69,38.4c3,0.5,8.8,0.6,11.8-0.5c6.5-3.4,13.7,1,27.3,0.9c6.3,0,22.9-1.4,28.6-8.1c2.9-3.4,1.4,2.5-4.2,6.3
			c3.3,1.2,10.8,2.6,14.8,1.7c-5.9-14.1-18.3-23.9-39.3-23l0,0C87.4,14.7,74.9,24.4,69,38.4z"/>
		<path class="st24" d="M82.5,136.8c0-0.8,0.7-1.5,1.5-1.5s1.5,0.7,1.5,1.5c0,9.1,3,19.1,7.6,26.7c4.1,6.7,9.5,11.4,15.2,11.4
			c5.8,0,11.2-4.6,15.4-11.3c4.5-7.3,7.4-17.2,7.4-26.8c0-0.8,0.7-1.5,1.5-1.5s1.5,0.7,1.5,1.5c0,10.1-3.1,20.5-7.8,28.3
			c-4.7,7.6-11,12.8-17.9,12.8c-6.8,0-13.1-5.3-17.7-12.9C85.6,157,82.5,146.4,82.5,136.8z"/>
	</g>
</g>
<g class="st0">
	<path class="st25" d="M51.3,27.2h113.8c16.1,0,29.3,13.2,29.3,29.3v113.8c0,16.1-13.2,29.3-29.3,29.3H51.3
		c-16.1,0-29.3-13.2-29.3-29.3V56.6C22,40.5,35.2,27.2,51.3,27.2z"/>
	<g class="st2">
		<path class="st4" d="M108.2,206.9h71.4c0-67.2-53.3-30.9-53.3-86.9h-18.2H89.8c0,56-53,19.7-53,86.9H108.2z"/>
		<path class="st4" d="M69.2,85.9C69,84,61.2,81.8,58.6,88c-2.6,6.2,2.1,15,10.9,15.7c8.8,0.7,6.2-0.9,6.2-0.9L69.2,85.9z"/>
		<path class="st4" d="M147.5,85.9c0.2-1.9,7.9-4.1,10.5,2.1c2.6,6.2-2.1,15-10.9,15.7c-8.8,0.7-6.2-0.9-6.2-0.9L147.5,85.9z"/>
		<path class="st5" d="M126.7,118.4c0,0-0.1,2.6,0,6.4c-6.4,16.1-30,16.7-36.8,0.7c0.1-4.2,0-7.1,0-7.1
			C102.1,118.4,114.4,118.4,126.7,118.4z"/>
		<path class="st4" d="M108.2,127.8c-45.8,1.1-68.9-111.8,0-108.9C177.1,16,154,128.9,108.2,127.8z"/>
		<path class="st16" d="M87.6,78.2c0.1,0.7-0.4,1.3-1.1,1.3c-0.7,0.1-1.3-0.4-1.3-1.1c-0.1-0.6,0-1.3,0.2-1.9
			c0.2-0.6,0.4-1.2,0.8-1.7c0.9-1.2,2.1-1.9,3.5-2.1c1.3-0.2,2.8,0.1,4,0.9c0.8,0.6,1.3,1.3,1.7,2.1c0.4,0.8,0.6,1.7,0.5,2.6
			c-0.1,0.7-0.6,1.2-1.3,1.2c-0.7-0.1-1.2-0.6-1.2-1.3c0-0.5-0.1-1-0.3-1.4c-0.2-0.4-0.5-0.8-0.9-1.1c-0.6-0.5-1.4-0.6-2.1-0.5
			c-0.7,0.1-1.4,0.5-1.9,1.2c-0.2,0.3-0.4,0.6-0.4,0.9C87.6,77.5,87.6,77.9,87.6,78.2z"/>
		<path class="st7" d="M87.8,88.2c2.3,1.8,2.4,4.4,0.2,5.9c-2.2,1.4-5.9,1.2-8.2-0.6c-2.3-1.8-2.4-4.4-0.2-5.9
			C81.8,86.1,85.4,86.4,87.8,88.2z"/>
		<path class="st7" d="M128.9,88.2c-2.3,1.8-2.4,4.4-0.2,5.9c2.2,1.4,5.9,1.2,8.2-0.6c2.3-1.8,2.4-4.4,0.2-5.9
			S131.2,86.4,128.9,88.2z"/>
		<path class="st8" d="M94.6,62.2c-0.2-0.1-0.3-0.1-0.5-0.2c-1.8-0.7-3.3-0.8-5.2-0.7c-1.9,0.2-3.3,0.6-4.9,1.5
			c-0.7,0.5-3.6,2.8-2.8,3.7c0.3,0.1,3.2-1.4,4.1-1.7c1.3-0.4,2.4-0.5,3.8-0.5c1.3,0.1,2.3,0.2,3.5,0.7c0,0,0.2,0.1,0.3,0.1
			c2.4,1.2,2.2,1.9,3.8,0.8C99.2,64.6,96.6,63.2,94.6,62.2z"/>
		<path class="st8" d="M121.8,62.2c0.2-0.1,0.3-0.1,0.5-0.2c1.8-0.7,3.3-0.8,5.2-0.7c1.9,0.2,3.3,0.6,4.9,1.5
			c0.7,0.5,3.6,2.8,2.8,3.7c-0.3,0.1-3.2-1.4-4.1-1.7c-1.3-0.4-2.4-0.5-3.8-0.5c-1.3,0.1-2.3,0.2-3.5,0.7c0,0-0.2,0.1-0.3,0.1
			c-2.4,1.2-2.2,1.9-3.8,0.8C117.2,64.6,119.9,63.2,121.8,62.2z"/>
		<path class="st11" d="M96.3,97.8c4.2-0.1,8.4-0.1,12.6-0.1c4.2,0,8.4,0,12.6,0.1c0,6.6-6.5,9-12.6,9h0h0
			C102.9,106.7,96.3,104.4,96.3,97.8z"/>
		<path class="st5" d="M106.1,110.7c-0.2-0.1-0.3-0.4-0.2-0.7c0.1-0.2,0.4-0.3,0.7-0.2c0.7,0.4,1.6,0.6,2.4,0.6
			c0.9,0,1.7-0.2,2.4-0.6c0.2-0.1,0.5-0.1,0.7,0.2c0.1,0.2,0.1,0.5-0.2,0.7c-0.8,0.5-1.8,0.7-2.9,0.7
			C108,111.4,106.9,111.2,106.1,110.7z"/>
		<path class="st5" d="M107.8,88.7c-0.3,0-0.5-0.2-0.5-0.5c0-0.3,0.2-0.5,0.5-0.5c1.2,0,2.6,0,3.7-0.2c0.9-0.2,1.6-0.4,1.6-0.8
			c0-1.4-1.4-10.3-1.4-10.3c0-0.3,0.1-0.5,0.4-0.6c0.3,0,0.5,0.1,0.6,0.4c0,0,1.5,9,1.5,10.5c0,1.1-1,1.6-2.4,1.8
			C110.5,88.7,109.1,88.7,107.8,88.7z"/>
		<path class="st5" d="M155.2,92.9c0,0.3-0.2,0.5-0.5,0.5c-0.3,0-0.5-0.2-0.5-0.5c0-1.5-0.3-2.5-0.7-3c-0.2-0.3-0.6-0.4-0.9-0.5
			c-0.4,0-0.9,0.1-1.4,0.4c-1.3,0.7-2.6,2.3-3.4,4c-0.4,0.8-0.7,1.7-0.9,2.3c0.8-0.5,1.6-0.7,2.3-0.7c0.4,0,0.8,0.2,1.1,0.4
			c0.3,0.2,0.6,0.5,0.7,0.9c0.2,0.7,0.1,1.6-0.7,2.7c-0.1,0.2-0.5,0.3-0.7,0.1s-0.3-0.5-0.1-0.7c0.6-0.8,0.7-1.4,0.6-1.8
			c-0.1-0.2-0.2-0.3-0.3-0.4c-0.2-0.1-0.4-0.2-0.6-0.2c-0.6-0.1-1.4,0.2-2.1,0.9c-0.2,0.2-0.4,0.3-0.5,0.3c-0.4,0.1-0.6-0.1-0.7-0.5
			l0,0c0-0.2,0-0.3,0-0.6c0.1-0.7,0.5-1.9,1.1-3.1c0.8-1.9,2.3-3.6,3.8-4.5c0.6-0.4,1.3-0.6,1.9-0.5c0.6,0,1.2,0.3,1.7,0.8
			C154.9,90,155.2,91.2,155.2,92.9z"/>
		<path class="st5" d="M62.2,92.9c0,0.3-0.2,0.5-0.5,0.5c-0.3,0-0.5-0.2-0.5-0.5c0-1.8,0.3-2.9,0.9-3.6c0.5-0.6,1-0.8,1.7-0.8
			c0.6,0,1.2,0.2,1.9,0.5c1.5,0.8,3,2.6,3.8,4.5c0.5,1.2,0.9,2.4,1.1,3.1c0,0.2,0,0.4,0,0.6l0,0c-0.1,0.4-0.3,0.6-0.7,0.5
			c-0.2,0-0.3-0.1-0.5-0.3c-0.7-0.7-1.5-0.9-2.1-0.9c-0.2,0-0.4,0.1-0.6,0.2c-0.1,0.1-0.2,0.2-0.3,0.4c-0.1,0.4,0,1,0.6,1.8
			c0.2,0.2,0.1,0.5-0.1,0.7c-0.2,0.2-0.5,0.1-0.7-0.1c-0.7-1.1-0.9-2-0.7-2.7c0.1-0.4,0.3-0.7,0.7-0.9c0.3-0.2,0.7-0.3,1.1-0.4
			c0.7-0.1,1.6,0.1,2.3,0.7c-0.2-0.6-0.5-1.5-0.8-2.3c-0.8-1.7-2.1-3.3-3.4-4c-0.5-0.3-0.9-0.4-1.3-0.4c-0.3,0-0.7,0.2-0.9,0.5
			C62.5,90.5,62.2,91.4,62.2,92.9z"/>
		<path class="st16" d="M123.4,78.2c0.1,0.7-0.4,1.3-1.1,1.3c-0.7,0.1-1.3-0.4-1.3-1.1c-0.1-0.6,0-1.3,0.2-1.9
			c0.2-0.6,0.4-1.2,0.8-1.7c0.9-1.2,2.1-1.9,3.5-2.1c1.3-0.2,2.8,0.1,4,0.9c0.8,0.6,1.3,1.3,1.7,2.1c0.4,0.8,0.6,1.7,0.5,2.6
			c-0.1,0.7-0.6,1.2-1.3,1.2c-0.7-0.1-1.2-0.6-1.1-1.3c0-0.5-0.1-1-0.3-1.4c-0.2-0.4-0.5-0.8-0.9-1.1c-0.6-0.5-1.4-0.6-2.1-0.5
			c-0.7,0.1-1.4,0.5-1.9,1.2c-0.2,0.3-0.4,0.6-0.4,0.9C123.4,77.5,123.4,77.9,123.4,78.2z"/>
		<path class="st10" d="M143.6,44.8c-8.3-3.6-9.9-7.6-12.2-12.3c-4.3-9.1-2.1-19.1,6.4-22.3c16.4-6.2,30.1,9.6,28,22.3
			C164.2,41.5,154.4,49.5,143.6,44.8z"/>
		<path class="st10" d="M73.1,44.8c8.3-3.6,9.9-7.6,12.2-12.3c4.3-9.1,2.1-19.1-6.4-22.3c-16.4-6.2-30.1,9.6-28,22.3
			C52.4,41.5,62.3,49.5,73.1,44.8z"/>
		<path class="st26" d="M69.2,94.9c1.8-1.8-1.4-11.2,1.1-24.1s33-28.5,37.9-35.6c5,7,35.4,22.7,37.9,35.6s1.1,15.9,2.9,17.8
			c1.4,1.4,19.4-71.9-40.8-71.4C43.2,17.2,69,95.1,69.2,94.9z"/>
		<path class="st27" d="M108.1,33.8c2,12.1-22.9,18.6-28,50.9c-4.5,28.8,3.5,57.4,3.5,57.4c0.4,1.6-1.5,0.8-3.2-2.8
			c-2.6-5.5-18.3-34.9-12.7-61.9C73.4,50.5,94.9,38.1,108.1,33.8z"/>
		<path class="st27" d="M108.3,33.8c-2,12.1,22.9,18.6,28,50.9c4.5,28.8-3.5,57.4-3.5,57.4c-0.4,1.6,1.5,0.8,3.2-2.8
			c2.6-5.5,18.3-34.9,12.7-61.9C143.1,50.5,121.5,38.1,108.3,33.8z"/>
		<path class="st9" d="M127.7,133.6c-10.3,6.8-29.4,7.5-39.2-0.3c-0.6,2.9-1.5,5.4-2.5,7.6c12.2,7.8,31.8,7.3,44.3,0.1
			C129.2,138.9,128.4,136.4,127.7,133.6z"/>
		<path class="st9" d="M36.8,206.9H109h70.7c0-26.9-8.5-37.2-18.7-43.5c-28.8,34.9-75.9,34.7-104.4-0.6
			C45.8,169,36.8,179.1,36.8,206.9z"/>
		<path class="st28" d="M56.5,186.4c0-0.4,0.3-0.7,0.8-0.7s0.7,0.3,0.7,0.8l-0.2,20.5c0,0.4-0.3,0.7-0.8,0.7s-0.7-0.3-0.7-0.8
			L56.5,186.4z"/>
		<path class="st28" d="M158.7,186.4c0-0.4,0.3-0.7,0.8-0.7s0.7,0.3,0.7,0.8l-0.2,20.5c0,0.4-0.3,0.7-0.8,0.7s-0.7-0.3-0.7-0.8
			L158.7,186.4z"/>
		<path class="st29" d="M80.8,130.8c0.1,0.2,0,0.5-0.2,0.7s-0.5,0-0.7-0.2c-7.6-15.7-9.5-33.8-5.5-50.3c3.8-15.7,12.8-30,27-39.5
			c0.2-0.2,0.5-0.1,0.7,0.1s0.1,0.5-0.1,0.7c-14.1,9.3-22.9,23.4-26.6,38.9C71.4,97.4,73.3,115.3,80.8,130.8z"/>
		<path class="st29" d="M136.6,131.2c-0.1,0.2-0.4,0.4-0.7,0.2c-0.2-0.1-0.4-0.4-0.2-0.7c7.5-15.5,9.3-33.4,5.4-49.7
			c-3.7-15.5-12.6-29.6-26.6-38.9c-0.2-0.2-0.3-0.5-0.1-0.7s0.5-0.3,0.7-0.1c14.3,9.5,23.3,23.8,27,39.5
			C146,97.4,144.2,115.5,136.6,131.2z"/>
	</g>
</g>
</svg>
