<?xml version="1.0" encoding="utf-8"?>
<!-- Generator: Adobe Illustrator 25.2.1, SVG Export Plug-In . SVG Version: 6.00 Build 0)  -->
<svg version="1.1" id="Capa_1" xmlns="http://www.w3.org/2000/svg" xmlns:xlink="http://www.w3.org/1999/xlink" x="0px" y="0px"
	 viewBox="0 0 500 500" style="enable-background:new 0 0 500 500;" xml:space="preserve">
<style type="text/css">
	.st0{fill:#FFFFFF;}
</style>
<g id="OBJECTS">
	<path class="st0" d="M477.7,408.3l-69.5,69.5c-2.1,2.1-5.6,2.1-7.7,0L253.9,331.1c-2.1-2.1-5.6-2.1-7.7,0L99.5,477.7
		c-2.1,2.1-5.6,2.1-7.7,0l-69.5-69.5c-2.1-2.1-2.1-5.6,0-7.7L169,253.8c2.1-2.1,2.1-5.6,0-7.7L22.3,99.5c-2.1-2.1-2.1-5.6,0-7.7
		l69.5-69.5c2.1-2.1,5.6-2.1,7.7,0L246.2,169c2.1,2.1,5.6,2.1,7.7,0L400.5,22.3c2.1-2.1,5.6-2.1,7.7,0l69.5,69.5
		c2.1,2.1,2.1,5.6,0,7.7L331.1,246.1c-2.1,2.1-2.1,5.6,0,7.7l146.7,146.7C479.9,402.7,479.9,406.1,477.7,408.3z"/>
</g>
<g id="DESIGNED_BY_FREEPIK">
</g>
</svg>
