<?xml version="1.0" encoding="utf-8"?>
<!-- Generator: Adobe Illustrator 25.2.1, SVG Export Plug-In . SVG Version: 6.00 Build 0)  -->
<svg version="1.1" xmlns="http://www.w3.org/2000/svg" xmlns:xlink="http://www.w3.org/1999/xlink" x="0px" y="0px"
	 viewBox="0 0 500 302.74" style="enable-background:new 0 0 500 302.74;" xml:space="preserve">
<style type="text/css">
	.st0{display:none;}
	.st1{display:inline;fill:url(#SVGID_1_);}
	.st2{display:inline;}
	.st3{fill:url(#SVGID_2_);}
	.st4{fill:url(#SVGID_3_);}
	.st5{fill:url(#SVGID_4_);}
	.st6{fill:url(#SVGID_5_);}
	.st7{fill:url(#SVGID_6_);}
	.st8{fill:url(#SVGID_7_);}
	.st9{fill:url(#SVGID_8_);}
	.st10{fill:url(#SVGID_9_);}
	.st11{fill:url(#SVGID_10_);}
	.st12{fill:url(#SVGID_11_);}
	.st13{fill:url(#SVGID_12_);}
	.st14{fill:url(#SVGID_13_);}
	.st15{fill:url(#SVGID_14_);}
	.st16{fill:url(#SVGID_15_);}
	.st17{fill:url(#SVGID_16_);}
	.st18{fill:url(#SVGID_17_);}
	.st19{fill:url(#SVGID_18_);}
	.st20{fill:url(#SVGID_19_);}
	.st21{fill:url(#SVGID_20_);}
	.st22{fill:url(#SVGID_21_);}
	.st23{fill:url(#SVGID_22_);}
	.st24{fill:url(#SVGID_23_);}
	.st25{fill:url(#SVGID_24_);}
	.st26{fill:url(#SVGID_25_);}
	.st27{fill:url(#SVGID_26_);}
	.st28{fill:url(#SVGID_27_);}
	.st29{fill:url(#SVGID_28_);}
	.st30{fill:url(#SVGID_29_);}
	.st31{fill:url(#SVGID_30_);}
	.st32{fill:url(#SVGID_31_);}
	.st33{fill:url(#SVGID_32_);}
	.st34{fill:url(#SVGID_33_);}
	.st35{fill:#FFFFFF;}
	.st36{fill:url(#SVGID_34_);}
	.st37{fill:url(#SVGID_35_);}
	.st38{fill:url(#SVGID_36_);}
	.st39{fill:url(#SVGID_37_);}
	.st40{fill:url(#SVGID_38_);}
	.st41{fill:url(#SVGID_39_);}
	.st42{fill:url(#SVGID_40_);}
	.st43{fill:url(#SVGID_41_);}
	.st44{fill:url(#SVGID_42_);}
	.st45{fill:url(#SVGID_43_);}
	.st46{fill:url(#SVGID_44_);}
	.st47{fill:url(#SVGID_45_);}
</style>
<g id="BACKGROUND" class="st0">
	<radialGradient id="SVGID_1_" cx="-17.946" cy="-253.4239" r="614.4241" gradientUnits="userSpaceOnUse">
		<stop  offset="0" style="stop-color:#5900C8"/>
		<stop  offset="0.057" style="stop-color:#5001B6"/>
		<stop  offset="0.2208" style="stop-color:#380287"/>
		<stop  offset="0.3847" style="stop-color:#240361"/>
		<stop  offset="0.5461" style="stop-color:#140443"/>
		<stop  offset="0.7041" style="stop-color:#09042D"/>
		<stop  offset="0.8572" style="stop-color:#020520"/>
		<stop  offset="1" style="stop-color:#00051C"/>
	</radialGradient>
	<rect y="-98.11" class="st1" width="500" height="500"/>
	<g class="st2">
		<g>
			<radialGradient id="SVGID_2_" cx="295.2397" cy="197.1323" r="114.9407" gradientUnits="userSpaceOnUse">
				<stop  offset="0" style="stop-color:#9EEB0E"/>
				<stop  offset="0.0952" style="stop-color:#81BF0B"/>
				<stop  offset="0.2198" style="stop-color:#5F8D08"/>
				<stop  offset="0.3471" style="stop-color:#426206"/>
				<stop  offset="0.475" style="stop-color:#2A3E04"/>
				<stop  offset="0.6036" style="stop-color:#182302"/>
				<stop  offset="0.7332" style="stop-color:#0A1001"/>
				<stop  offset="0.8645" style="stop-color:#030400"/>
				<stop  offset="1" style="stop-color:#000000"/>
			</radialGradient>
			<circle class="st3" cx="295.24" cy="197.13" r="114.94"/>
			<radialGradient id="SVGID_3_" cx="204.7602" cy="197.1323" r="114.9407" gradientUnits="userSpaceOnUse">
				<stop  offset="0" style="stop-color:#9EEB0E"/>
				<stop  offset="0.0952" style="stop-color:#81BF0B"/>
				<stop  offset="0.2198" style="stop-color:#5F8D08"/>
				<stop  offset="0.3471" style="stop-color:#426206"/>
				<stop  offset="0.475" style="stop-color:#2A3E04"/>
				<stop  offset="0.6036" style="stop-color:#182302"/>
				<stop  offset="0.7332" style="stop-color:#0A1001"/>
				<stop  offset="0.8645" style="stop-color:#030400"/>
				<stop  offset="1" style="stop-color:#000000"/>
			</radialGradient>
			<circle class="st4" cx="204.76" cy="197.13" r="114.94"/>
		</g>
		<radialGradient id="SVGID_4_" cx="250" cy="70.8775" r="134.3552" gradientUnits="userSpaceOnUse">
			<stop  offset="0" style="stop-color:#1283FF"/>
			<stop  offset="8.872807e-03" style="stop-color:#1281FA"/>
			<stop  offset="0.1279" style="stop-color:#0E63C0"/>
			<stop  offset="0.25" style="stop-color:#0A498D"/>
			<stop  offset="0.3724" style="stop-color:#073262"/>
			<stop  offset="0.4954" style="stop-color:#04203E"/>
			<stop  offset="0.619" style="stop-color:#021223"/>
			<stop  offset="0.7436" style="stop-color:#010810"/>
			<stop  offset="0.8698" style="stop-color:#000204"/>
			<stop  offset="1" style="stop-color:#000000"/>
		</radialGradient>
		<circle class="st5" cx="250" cy="70.88" r="134.36"/>
	</g>
</g>
<g id="OBJECTS">
</g>
<g id="TEXTS">
	<g>
		<g>
			<radialGradient id="SVGID_5_" cx="177.307" cy="107.9035" r="225.5199" gradientUnits="userSpaceOnUse">
				<stop  offset="0" style="stop-color:#5900C8"/>
				<stop  offset="0.057" style="stop-color:#5001B6"/>
				<stop  offset="0.2208" style="stop-color:#380287"/>
				<stop  offset="0.3847" style="stop-color:#240361"/>
				<stop  offset="0.5461" style="stop-color:#140443"/>
				<stop  offset="0.7041" style="stop-color:#09042D"/>
				<stop  offset="0.8572" style="stop-color:#020520"/>
				<stop  offset="1" style="stop-color:#00051C"/>
			</radialGradient>
			<path class="st6" d="M130.22,91.88c0.65,13.22,3.32,40.59,14.1,70.96c8.75,24.65,21.08,46.45,36.64,64.79
				c18.69,22.03,42.18,39.16,69.87,50.95c27.68-11.79,51.18-28.92,69.87-50.95c15.56-18.34,27.88-40.14,36.64-64.79
				c10.78-30.36,13.46-57.74,14.1-70.96c-24.75,0.57-39.04-8.61-46.86-16.92c-4.36-4.63-7.17-9.41-8.96-13.36
				c-16.95,4.95-34,2.61-49.75-6.92c-6.34-3.83-11.41-8.22-15.03-11.82c-3.63,3.61-8.7,7.99-15.03,11.82
				c-15.76,9.53-32.8,11.87-49.75,6.92c-1.79,3.95-4.6,8.72-8.96,13.35C169.26,83.27,154.97,92.46,130.22,91.88z"/>
			<g>
				<linearGradient id="SVGID_6_" gradientUnits="userSpaceOnUse" x1="229.3354" y1="99.228" x2="420.7981" y2="322.7921">
					<stop  offset="0" style="stop-color:#00808F"/>
					<stop  offset="0.0136" style="stop-color:#04838C"/>
					<stop  offset="0.185" style="stop-color:#33A266"/>
					<stop  offset="0.3565" style="stop-color:#59BC46"/>
					<stop  offset="0.5252" style="stop-color:#77D12E"/>
					<stop  offset="0.6904" style="stop-color:#8DDF1C"/>
					<stop  offset="0.8506" style="stop-color:#9AE812"/>
					<stop  offset="1" style="stop-color:#9EEB0E"/>
				</linearGradient>
				<path class="st7" d="M250.83,295.89l-3.02-1.23c-56.52-23.03-97.58-66.95-118.76-127.02c-15.9-45.09-15.06-82.95-15.01-84.54
					l0.24-8.68l8.63,0.94c18.77,2.05,32.9-1.59,42-10.83c6.76-6.86,8.31-14.57,8.32-14.65l1.74-9.99l9.3,4.09
					c14.84,6.4,29.39,5.4,43.24-2.99c10.52-6.36,16.77-14.78,16.84-14.87l6.48-8.96l6.48,8.96c0.98,1.34,24.79,33.07,60.08,17.85
					l9.31-4.02l1.74,9.99c0,0.01,1.55,7.72,8.31,14.58c9.11,9.24,23.24,12.88,42,10.83l8.63-0.94l0.24,8.68
					c0.04,1.59,0.88,39.45-15.01,84.54c-21.18,60.07-62.24,103.99-118.76,127.02L250.83,295.89z M130.22,91.88
					c0.65,13.22,3.32,40.59,14.1,70.96c8.75,24.65,21.08,46.45,36.64,64.79c18.69,22.03,42.18,39.16,69.87,50.95
					c27.68-11.79,51.18-28.92,69.87-50.95c15.56-18.34,27.88-40.14,36.64-64.79c10.78-30.36,13.46-57.74,14.1-70.96
					c-24.75,0.57-39.04-8.61-46.86-16.92c-4.36-4.63-7.17-9.41-8.96-13.36c-16.95,4.95-34,2.61-49.75-6.92
					c-6.34-3.83-11.41-8.22-15.03-11.82c-3.63,3.61-8.7,7.99-15.03,11.82c-15.76,9.53-32.8,11.87-49.75,6.92
					c-1.79,3.95-4.6,8.72-8.96,13.35C169.26,83.27,154.97,92.46,130.22,91.88z"/>
				<linearGradient id="SVGID_7_" gradientUnits="userSpaceOnUse" x1="117.0166" y1="157.4698" x2="384.6398" y2="157.4698">
					<stop  offset="0" style="stop-color:#00808F"/>
					<stop  offset="0.0136" style="stop-color:#04838C"/>
					<stop  offset="0.185" style="stop-color:#33A266"/>
					<stop  offset="0.3565" style="stop-color:#59BC46"/>
					<stop  offset="0.5252" style="stop-color:#77D12E"/>
					<stop  offset="0.6904" style="stop-color:#8DDF1C"/>
					<stop  offset="0.8506" style="stop-color:#9AE812"/>
					<stop  offset="1" style="stop-color:#9EEB0E"/>
				</linearGradient>
				<path class="st8" d="M248.94,291.88c-55.7-22.69-96.18-66-117.06-125.24c-15.71-44.57-14.89-81.89-14.84-83.46l0.15-5.42
					l5.39,0.59c3.48,0.38,6.85,0.57,10.03,0.57c14.82,0,26.41-4.13,34.44-12.28c7.35-7.46,9.06-15.82,9.13-16.18l1.09-6.28
					l5.79,2.55c6.78,2.93,13.6,4.41,20.27,4.41c8.77,0,17.43-2.55,25.74-7.57c11.02-6.67,17.65-15.59,17.71-15.67l4.05-5.6l4.05,5.6
					c0.71,0.96,17.33,23.22,43.47,23.22c6.7,0,13.51-1.47,20.23-4.37l5.82-2.51l1.09,6.25c0.2,0.98,2.01,8.95,9.13,16.17
					c8.03,8.15,19.62,12.28,34.44,12.28c3.18,0,6.55-0.19,10.03-0.57l5.39-0.59l0.15,5.42c0.04,1.57,0.86,38.92-14.84,83.46
					c-20.88,59.24-61.36,102.54-117.06,125.24l-1.89,0.77L248.94,291.88z M130.22,88.88c-0.81,0-1.58,0.33-2.15,0.91
					c-0.58,0.6-0.89,1.41-0.85,2.24c0.67,13.7,3.41,41.24,14.27,71.81c8.88,25,21.38,47.11,37.18,65.73
					c18.99,22.38,42.87,39.8,70.98,51.77c0.38,0.16,0.78,0.24,1.18,0.24c0.4,0,0.8-0.08,1.18-0.24
					c28.11-11.97,51.99-29.39,70.98-51.77c15.79-18.62,28.3-40.73,37.18-65.73c10.86-30.57,13.6-58.12,14.27-71.81
					c0.04-0.83-0.27-1.64-0.85-2.24c-0.57-0.58-1.34-0.91-2.15-0.91c-0.02,0-0.05,0-0.07,0c-0.71,0.02-1.41,0.02-2.1,0.02
					c-22.68,0-35.63-8.7-42.5-16c-3.49-3.71-6.32-7.93-8.42-12.54c-0.5-1.09-1.58-1.76-2.73-1.76c-0.28,0-0.56,0.04-0.84,0.12
					c-5.46,1.6-11,2.41-16.45,2.41c-10.63,0-21.03-3.03-30.91-9.01c-5.13-3.1-10-6.94-14.47-11.38c-0.58-0.58-1.35-0.87-2.12-0.87
					c-0.77,0-1.53,0.29-2.12,0.87c-4.47,4.45-9.34,8.28-14.47,11.38c-9.88,5.98-20.29,9.01-30.91,9.01
					c-5.45,0-10.98-0.81-16.44-2.41c-0.28-0.08-0.56-0.12-0.84-0.12c-1.15,0-2.23,0.67-2.73,1.76c-2.09,4.61-4.93,8.83-8.42,12.54
					c-6.87,7.3-19.82,16-42.49,16c-0.7,0-1.4-0.01-2.12-0.02C130.27,88.89,130.25,88.88,130.22,88.88z"/>
				<g>
					<linearGradient id="SVGID_8_" gradientUnits="userSpaceOnUse" x1="149.9983" y1="107.1763" x2="70.8912" y2="403.5416">
						<stop  offset="0" style="stop-color:#00808F"/>
						<stop  offset="0.0136" style="stop-color:#04838C"/>
						<stop  offset="0.185" style="stop-color:#33A266"/>
						<stop  offset="0.3565" style="stop-color:#59BC46"/>
						<stop  offset="0.5252" style="stop-color:#77D12E"/>
						<stop  offset="0.6904" style="stop-color:#8DDF1C"/>
						<stop  offset="0.8506" style="stop-color:#9AE812"/>
						<stop  offset="1" style="stop-color:#9EEB0E"/>
					</linearGradient>
					<path class="st9" d="M141.5,163.84c-2.92-8.21-5.24-16.2-7.11-23.77l-9.19,4.51c1.81,7.05,4,14.45,6.68,22.06
						c1.7,4.81,3.54,9.51,5.49,14.11l8.98-4.4C144.63,172.26,143.01,168.1,141.5,163.84z"/>
					<linearGradient id="SVGID_9_" gradientUnits="userSpaceOnUse" x1="301.9395" y1="147.7331" x2="222.8327" y2="444.0973">
						<stop  offset="0" style="stop-color:#00808F"/>
						<stop  offset="0.0136" style="stop-color:#04838C"/>
						<stop  offset="0.185" style="stop-color:#33A266"/>
						<stop  offset="0.3565" style="stop-color:#59BC46"/>
						<stop  offset="0.5252" style="stop-color:#77D12E"/>
						<stop  offset="0.6904" style="stop-color:#8DDF1C"/>
						<stop  offset="0.8506" style="stop-color:#9AE812"/>
						<stop  offset="1" style="stop-color:#9EEB0E"/>
					</linearGradient>
					<path class="st10" d="M298.33,61.13c5.45,0,10.98-0.81,16.45-2.41c0.28-0.08,0.56-0.12,0.84-0.12c1.15,0,2.23,0.67,2.73,1.76
						c2.09,4.61,4.93,8.83,8.42,12.54c2.86,3.04,6.77,6.32,12,9.11l11.77-5.77c-6.29-2.04-11.62-5.24-15.92-9.61
						c-7.12-7.22-8.93-15.19-9.13-16.17l-0.65-3.76l-29.26,14.35C296.49,61.1,297.41,61.13,298.33,61.13z"/>
					<linearGradient id="SVGID_10_" gradientUnits="userSpaceOnUse" x1="251.7307" y1="134.3313" x2="172.6236" y2="430.6966">
						<stop  offset="0" style="stop-color:#00808F"/>
						<stop  offset="0.0136" style="stop-color:#04838C"/>
						<stop  offset="0.185" style="stop-color:#33A266"/>
						<stop  offset="0.3565" style="stop-color:#59BC46"/>
						<stop  offset="0.5252" style="stop-color:#77D12E"/>
						<stop  offset="0.6904" style="stop-color:#8DDF1C"/>
						<stop  offset="0.8506" style="stop-color:#9AE812"/>
						<stop  offset="1" style="stop-color:#9EEB0E"/>
					</linearGradient>
					<path class="st11" d="M239.76,276.81c-13.53-6.63-25.99-14.6-37.29-23.86l-9.73,4.77c10.91,9.39,22.88,17.61,35.83,24.57
						L239.76,276.81z"/>
					<linearGradient id="SVGID_11_" gradientUnits="userSpaceOnUse" x1="352.1051" y1="161.1235" x2="272.998" y2="457.4888">
						<stop  offset="0" style="stop-color:#00808F"/>
						<stop  offset="0.0136" style="stop-color:#04838C"/>
						<stop  offset="0.185" style="stop-color:#33A266"/>
						<stop  offset="0.3565" style="stop-color:#59BC46"/>
						<stop  offset="0.5252" style="stop-color:#77D12E"/>
						<stop  offset="0.6904" style="stop-color:#8DDF1C"/>
						<stop  offset="0.8506" style="stop-color:#9AE812"/>
						<stop  offset="1" style="stop-color:#9EEB0E"/>
					</linearGradient>
					<path class="st12" d="M367.87,171.87l-13.46,6.6c-8.25,19.06-18.78,36.2-31.42,51.1c-3.48,4.1-7.12,8.03-10.93,11.79
						l23.45-11.5C348.82,212.91,359.69,193.5,367.87,171.87z"/>
					<linearGradient id="SVGID_12_" gradientUnits="userSpaceOnUse" x1="197.0446" y1="119.7337" x2="117.9375" y2="416.0988">
						<stop  offset="0" style="stop-color:#00808F"/>
						<stop  offset="0.0136" style="stop-color:#04838C"/>
						<stop  offset="0.185" style="stop-color:#33A266"/>
						<stop  offset="0.3565" style="stop-color:#59BC46"/>
						<stop  offset="0.5252" style="stop-color:#77D12E"/>
						<stop  offset="0.6904" style="stop-color:#8DDF1C"/>
						<stop  offset="0.8506" style="stop-color:#9AE812"/>
						<stop  offset="1" style="stop-color:#9EEB0E"/>
					</linearGradient>
					<path class="st13" d="M179.4,230.41c-0.24-0.28-0.49-0.55-0.73-0.83c-3.92-4.62-7.64-9.46-11.15-14.5l-9,4.41
						c3.68,5.35,7.58,10.51,11.7,15.43L179.4,230.41z"/>
					<linearGradient id="SVGID_13_" gradientUnits="userSpaceOnUse" x1="364.8102" y1="164.515" x2="285.703" y2="460.8802">
						<stop  offset="0" style="stop-color:#00808F"/>
						<stop  offset="0.0136" style="stop-color:#04838C"/>
						<stop  offset="0.185" style="stop-color:#33A266"/>
						<stop  offset="0.3565" style="stop-color:#59BC46"/>
						<stop  offset="0.5252" style="stop-color:#77D12E"/>
						<stop  offset="0.6904" style="stop-color:#8DDF1C"/>
						<stop  offset="0.8506" style="stop-color:#9AE812"/>
						<stop  offset="1" style="stop-color:#9EEB0E"/>
					</linearGradient>
					<path class="st14" d="M372.2,114.72c-1.01,7.01-2.44,14.89-4.45,23.34l11.52-5.65c1.76-8.5,2.95-16.27,3.75-23L372.2,114.72z"
						/>
					<linearGradient id="SVGID_14_" gradientUnits="userSpaceOnUse" x1="125.145" y1="100.5423" x2="46.0378" y2="396.9079">
						<stop  offset="0" style="stop-color:#00808F"/>
						<stop  offset="0.0136" style="stop-color:#04838C"/>
						<stop  offset="0.185" style="stop-color:#33A266"/>
						<stop  offset="0.3565" style="stop-color:#59BC46"/>
						<stop  offset="0.5252" style="stop-color:#77D12E"/>
						<stop  offset="0.6904" style="stop-color:#8DDF1C"/>
						<stop  offset="0.8506" style="stop-color:#9AE812"/>
						<stop  offset="1" style="stop-color:#9EEB0E"/>
					</linearGradient>
					<path class="st15" d="M119.94,119.01l9.46-4.64c-1.15-8.03-1.75-14.9-2.06-20.15l-9.74,4.77
						C118.03,104.52,118.74,111.3,119.94,119.01z"/>
					<linearGradient id="SVGID_15_" gradientUnits="userSpaceOnUse" x1="150.6793" y1="107.3579" x2="71.5721" y2="403.7236">
						<stop  offset="0" style="stop-color:#00808F"/>
						<stop  offset="0.0136" style="stop-color:#04838C"/>
						<stop  offset="0.185" style="stop-color:#33A266"/>
						<stop  offset="0.3565" style="stop-color:#59BC46"/>
						<stop  offset="0.5252" style="stop-color:#77D12E"/>
						<stop  offset="0.6904" style="stop-color:#8DDF1C"/>
						<stop  offset="0.8506" style="stop-color:#9AE812"/>
						<stop  offset="1" style="stop-color:#9EEB0E"/>
					</linearGradient>
					<path class="st16" d="M174.9,72.91c1.03-1.1,2-2.25,2.92-3.43l-39.17,19.2C157.49,87.26,168.68,79.51,174.9,72.91z"/>
					<linearGradient id="SVGID_16_" gradientUnits="userSpaceOnUse" x1="215.1939" y1="124.5785" x2="136.0869" y2="420.9434">
						<stop  offset="0" style="stop-color:#00808F"/>
						<stop  offset="0.0136" style="stop-color:#04838C"/>
						<stop  offset="0.185" style="stop-color:#33A266"/>
						<stop  offset="0.3565" style="stop-color:#59BC46"/>
						<stop  offset="0.5252" style="stop-color:#77D12E"/>
						<stop  offset="0.6904" style="stop-color:#8DDF1C"/>
						<stop  offset="0.8506" style="stop-color:#9AE812"/>
						<stop  offset="1" style="stop-color:#9EEB0E"/>
					</linearGradient>
					<path class="st17" d="M203.33,61.13c10.63,0,21.03-3.03,30.91-9.01c5.13-3.1,10-6.94,14.47-11.38
						c0.59-0.58,1.35-0.87,2.12-0.87c0.77,0,1.53,0.29,2.12,0.87c3.08,3.07,6.36,5.83,9.77,8.28l10.41-5.1
						c-7.66-4.51-13.17-10.05-16.02-13.31l-61.24,30.02C198.36,60.96,200.85,61.13,203.33,61.13z"/>
				</g>
			</g>
			<g>
				
					<linearGradient id="SVGID_17_" gradientUnits="userSpaceOnUse" x1="200.2907" y1="38.9347" x2="276.9976" y2="161.4135" gradientTransform="matrix(0.9635 -0.2677 0.2677 0.9635 -0.0776 59.3866)">
					<stop  offset="0" style="stop-color:#00808F"/>
					<stop  offset="0.0136" style="stop-color:#04838C"/>
					<stop  offset="0.185" style="stop-color:#33A266"/>
					<stop  offset="0.3565" style="stop-color:#59BC46"/>
					<stop  offset="0.5252" style="stop-color:#77D12E"/>
					<stop  offset="0.6904" style="stop-color:#8DDF1C"/>
					<stop  offset="0.8506" style="stop-color:#9AE812"/>
					<stop  offset="1" style="stop-color:#9EEB0E"/>
				</linearGradient>
				<path class="st18" d="M187.64,133.1c-4.25,0.08-8.13-1.43-11.2-4.37c-6.52-6.22-9.45-18.94-8.96-38.89
					c0.36-14.82,2.52-30.43,4.26-40.92c1.9-11.44,11.65-19.89,23.2-20.11c1.04-0.02,2.09,0.03,3.13,0.15
					c0.55-0.08,2.28-0.39,7.13-1.49l0.84-0.19c9.11-2.08,21.86-5.27,23.29-5.63l0.11-0.03c1.42-0.43,14.03-4.29,22.86-7.19
					l0.82-0.27c4.66-1.54,6.32-2.18,6.88-2.41c4.03-3.11,8.87-4.8,14.04-4.9c7.27-0.13,14.12,2.93,18.8,8.42
					c6.9,8.09,16.8,20.36,24.75,32.86c10.71,16.84,14.76,29.25,12.38,37.94c-1.45,5.32-5.18,9.15-10.79,11.07
					c-0.67,0.23-1.37,0.45-2.07,0.64c-3.05,0.85-6.25,1.31-9.5,1.37c0,0,0,0,0,0c-14.28,0.26-27.61-7.07-33.17-18.23
					c-0.34-0.69-0.93-1.2-1.61-1.39l-0.27-0.08c-0.24-0.07-0.49-0.1-0.74-0.1c-0.21,0-0.42,0.03-0.63,0.09l-47.82,13.29
					c-0.45,0.12-0.85,0.37-1.16,0.71l-0.19,0.2c-0.49,0.52-0.73,1.26-0.66,2.02c1.26,15.76-10.98,31.77-27.86,36.46
					c-0.7,0.19-1.41,0.37-2.11,0.52C190.11,132.93,188.85,133.08,187.64,133.1z"/>
				<g>
					<g>
						
							<linearGradient id="SVGID_18_" gradientUnits="userSpaceOnUse" x1="154.4892" y1="71.9464" x2="307.8681" y2="71.9464" gradientTransform="matrix(0.9635 -0.2677 0.2677 0.9635 -0.0776 59.3866)">
							<stop  offset="0" style="stop-color:#D1D1D1"/>
							<stop  offset="0.2869" style="stop-color:#D5D5D5"/>
							<stop  offset="0.5944" style="stop-color:#E2E2E2"/>
							<stop  offset="0.9104" style="stop-color:#F8F8F8"/>
							<stop  offset="1" style="stop-color:#FFFFFF"/>
						</linearGradient>
						<path class="st19" d="M288.2,19.22c-6.3-7.38-17.37-8.49-24.88-2.36c-1.55,1.27-2.29,2.29-2.29,2.29L231,27.5l-30.03,8.34
							c0,0-1.16-0.5-3.14-0.79c-9.6-1.37-18.51,5.29-20.1,14.86c-3.78,22.78-11.41,81.9,12.39,76.8
							c14.66-3.14,26.23-17.43,25.18-30.56c-0.19-2.44,0.6-4.86,2.28-6.65l0.19-0.2c1.08-1.15,2.45-1.99,3.98-2.41l23.91-6.64
							l23.91-6.64c1.52-0.42,3.13-0.42,4.65,0.02l0.27,0.08c2.36,0.67,4.29,2.33,5.38,4.52c5.87,11.79,23.15,18.06,37.34,13.19
							C340.22,83.5,303.19,36.78,288.2,19.22z"/>
					</g>
					<g>
						
							<linearGradient id="SVGID_19_" gradientUnits="userSpaceOnUse" x1="181.3353" y1="51.6243" x2="197.1604" y2="70.1512" gradientTransform="matrix(0.9635 -0.2677 0.2677 0.9635 -0.0776 59.3866)">
							<stop  offset="0" style="stop-color:#5900C8"/>
							<stop  offset="0.057" style="stop-color:#5001B6"/>
							<stop  offset="0.2208" style="stop-color:#380287"/>
							<stop  offset="0.3847" style="stop-color:#240361"/>
							<stop  offset="0.5461" style="stop-color:#140443"/>
							<stop  offset="0.7041" style="stop-color:#09042D"/>
							<stop  offset="0.8572" style="stop-color:#020520"/>
							<stop  offset="1" style="stop-color:#00051C"/>
						</linearGradient>
						<path class="st20" d="M205.86,59.86l-3.61,1l-1-3.61c-0.78-2.82-3.71-4.47-6.53-3.69c-2.82,0.78-4.47,3.71-3.69,6.53l1,3.61
							l-3.61,1c-2.82,0.78-4.47,3.71-3.69,6.53c0.78,2.82,3.71,4.47,6.53,3.69l3.61-1l1,3.61c0.78,2.82,3.71,4.47,6.53,3.69
							c2.82-0.78,4.47-3.71,3.69-6.53l-1-3.61l3.61-1c2.82-0.78,4.47-3.71,3.69-6.53C211.61,60.73,208.68,59.08,205.86,59.86z"/>
						<g>
							
								<linearGradient id="SVGID_20_" gradientUnits="userSpaceOnUse" x1="270.6832" y1="47.2722" x2="302.515" y2="86.2774" gradientTransform="matrix(0.9635 -0.2677 0.2677 0.9635 -0.0776 59.3866)">
								<stop  offset="0" style="stop-color:#5900C8"/>
								<stop  offset="0.057" style="stop-color:#5001B6"/>
								<stop  offset="0.2208" style="stop-color:#380287"/>
								<stop  offset="0.3847" style="stop-color:#240361"/>
								<stop  offset="0.5461" style="stop-color:#140443"/>
								<stop  offset="0.7041" style="stop-color:#09042D"/>
								<stop  offset="0.8572" style="stop-color:#020520"/>
								<stop  offset="1" style="stop-color:#00051C"/>
							</linearGradient>
							<path class="st21" d="M284.02,35.06c0.77,2.77-0.85,5.63-3.62,6.4c-2.77,0.77-5.63-0.85-6.4-3.62s0.85-5.63,3.62-6.4
								C280.38,30.67,283.25,32.29,284.02,35.06z"/>
							
								<linearGradient id="SVGID_21_" gradientUnits="userSpaceOnUse" x1="259.0278" y1="56.7838" x2="290.8594" y2="95.7888" gradientTransform="matrix(0.9635 -0.2677 0.2677 0.9635 -0.0776 59.3866)">
								<stop  offset="0" style="stop-color:#5900C8"/>
								<stop  offset="0.057" style="stop-color:#5001B6"/>
								<stop  offset="0.2208" style="stop-color:#380287"/>
								<stop  offset="0.3847" style="stop-color:#240361"/>
								<stop  offset="0.5461" style="stop-color:#140443"/>
								<stop  offset="0.7041" style="stop-color:#09042D"/>
								<stop  offset="0.8572" style="stop-color:#020520"/>
								<stop  offset="1" style="stop-color:#00051C"/>
							</linearGradient>
							<path class="st22" d="M290.38,57.98c0.77,2.77-0.85,5.63-3.62,6.4c-2.77,0.77-5.63-0.85-6.4-3.62
								c-0.77-2.77,0.85-5.63,3.62-6.4C286.75,53.6,289.62,55.22,290.38,57.98z"/>
						</g>
						<g>
							
								<linearGradient id="SVGID_22_" gradientUnits="userSpaceOnUse" x1="257.7147" y1="57.8552" x2="289.5464" y2="96.8602" gradientTransform="matrix(0.9635 -0.2677 0.2677 0.9635 -0.0776 59.3866)">
								<stop  offset="0" style="stop-color:#5900C8"/>
								<stop  offset="0.057" style="stop-color:#5001B6"/>
								<stop  offset="0.2208" style="stop-color:#380287"/>
								<stop  offset="0.3847" style="stop-color:#240361"/>
								<stop  offset="0.5461" style="stop-color:#140443"/>
								<stop  offset="0.7041" style="stop-color:#09042D"/>
								<stop  offset="0.8572" style="stop-color:#020520"/>
								<stop  offset="1" style="stop-color:#00051C"/>
							</linearGradient>
							<path class="st23" d="M269.34,46.09c2.77-0.77,5.63,0.85,6.4,3.62c0.77,2.77-0.85,5.63-3.62,6.4
								c-2.77,0.77-5.63-0.85-6.4-3.62C264.95,49.72,266.57,46.86,269.34,46.09z"/>
							
								<linearGradient id="SVGID_23_" gradientUnits="userSpaceOnUse" x1="271.9962" y1="46.2007" x2="303.8279" y2="85.2058" gradientTransform="matrix(0.9635 -0.2677 0.2677 0.9635 -0.0776 59.3866)">
								<stop  offset="0" style="stop-color:#5900C8"/>
								<stop  offset="0.057" style="stop-color:#5001B6"/>
								<stop  offset="0.2208" style="stop-color:#380287"/>
								<stop  offset="0.3847" style="stop-color:#240361"/>
								<stop  offset="0.5461" style="stop-color:#140443"/>
								<stop  offset="0.7041" style="stop-color:#09042D"/>
								<stop  offset="0.8572" style="stop-color:#020520"/>
								<stop  offset="1" style="stop-color:#00051C"/>
							</linearGradient>
							<path class="st24" d="M292.26,39.72c2.77-0.77,5.63,0.85,6.4,3.62c0.77,2.77-0.85,5.63-3.62,6.4
								c-2.77,0.77-5.63-0.85-6.4-3.62S289.5,40.49,292.26,39.72z"/>
						</g>
					</g>
					
						<linearGradient id="SVGID_24_" gradientUnits="userSpaceOnUse" x1="220.2921" y1="25.2522" x2="275.6089" y2="85.8094" gradientTransform="matrix(0.9998 -0.0184 0.0184 0.9998 -5.6455 -4.3114)">
						<stop  offset="0" style="stop-color:#00808F"/>
						<stop  offset="0.0136" style="stop-color:#04838C"/>
						<stop  offset="0.185" style="stop-color:#33A266"/>
						<stop  offset="0.3565" style="stop-color:#59BC46"/>
						<stop  offset="0.5252" style="stop-color:#77D12E"/>
						<stop  offset="0.6904" style="stop-color:#8DDF1C"/>
						<stop  offset="0.8506" style="stop-color:#9AE812"/>
						<stop  offset="1" style="stop-color:#9EEB0E"/>
					</linearGradient>
					<path class="st25" d="M231.58,29.39c0.01,0,0.07-0.02,0.18-0.05c7.06-2.15,14.85-4.56,21.08-6.6l3.5,12.61
						c1.54,5.53-1.71,11.28-7.24,12.82l-22.93,6.37c-5.53,1.54-11.28-1.71-12.82-7.24l-3.5-12.61c6.39-1.47,14.3-3.42,21.46-5.22
						c0.11-0.03,0.17-0.04,0.18-0.05l0.05-0.01L231.58,29.39z"/>
					
						<linearGradient id="SVGID_25_" gradientUnits="userSpaceOnUse" x1="201.7873" y1="41.3255" x2="274.2226" y2="156.9836" gradientTransform="matrix(0.9635 -0.2677 0.2677 0.9635 -0.0776 59.3866)">
						<stop  offset="0" style="stop-color:#5900C8"/>
						<stop  offset="0.057" style="stop-color:#5001B6"/>
						<stop  offset="0.2208" style="stop-color:#380287"/>
						<stop  offset="0.3847" style="stop-color:#240361"/>
						<stop  offset="0.5461" style="stop-color:#140443"/>
						<stop  offset="0.7041" style="stop-color:#09042D"/>
						<stop  offset="0.8572" style="stop-color:#020520"/>
						<stop  offset="1" style="stop-color:#00051C"/>
					</linearGradient>
					<path class="st26" d="M314.12,50.33c-7.83-12.31-17.6-24.41-24.41-32.4c-6.96-8.15-19.3-9.34-27.56-2.67
						c-0.72,0.39-3.63,1.42-7.76,2.79l-0.82,0.27c-8.82,2.9-21.22,6.69-22.94,7.22c-0.05,0.02-0.11,0.03-0.16,0.05
						c-0.05,0.01-0.11,0.03-0.16,0.04c-1.74,0.44-14.32,3.58-23.37,5.65l-0.85,0.19c-4.24,0.96-7.26,1.58-8.08,1.61
						c-10.52-1.45-20.48,5.93-22.24,16.51c-1.72,10.36-3.85,25.77-4.2,40.35c-0.45,18.47,2.14,30.52,7.7,35.83
						c3.01,2.87,6.8,3.84,11.27,2.88c0.63-0.13,1.25-0.29,1.87-0.46c14.73-4.09,25.97-18.42,24.87-32.19
						c-0.15-1.91,0.48-3.79,1.75-5.14l0.19-0.2c0.83-0.89,1.89-1.53,3.06-1.86l47.82-13.29c1.17-0.33,2.41-0.32,3.58,0.01l0.27,0.08
						c1.78,0.51,3.29,1.78,4.15,3.5c6.16,12.36,23.18,18.84,37.91,14.75c0.62-0.17,1.23-0.36,1.84-0.57
						c4.32-1.49,7.07-4.27,8.17-8.28C328.04,77.59,324.04,65.92,314.12,50.33z M231.58,29.39c0.01,0,0.07-0.02,0.18-0.05
						c7.06-2.15,14.85-4.56,21.08-6.6l3.5,12.61c1.54,5.53-1.71,11.28-7.24,12.82l-22.93,6.37c-5.53,1.54-11.28-1.71-12.82-7.24
						l-3.5-12.61c6.39-1.47,14.3-3.42,21.46-5.22c0.11-0.03,0.17-0.04,0.18-0.05l0.05-0.01L231.58,29.39z M322.2,83.96
						c-0.74,2.71-2.58,4.53-5.64,5.58c-13.13,4.51-29.44-1.19-34.92-12.2c-1.35-2.71-3.76-4.73-6.61-5.54l-0.27-0.08
						c-1.87-0.53-3.85-0.54-5.72-0.02l-47.82,13.29c-1.87,0.52-3.57,1.55-4.89,2.97l-0.19,0.2c-2.02,2.16-3.04,5.14-2.8,8.16
						c0.98,12.26-10.06,25.56-23.63,28.47c-3.16,0.68-5.68,0.06-7.71-1.87c-7.78-7.42-8.64-34.59-2.32-72.67
						c1.41-8.5,9.43-14.43,17.87-13.22c0.77,0.11,3.97-0.48,8.43-1.46l3.56,12.8c2.12,7.63,10.06,12.12,17.69,10l22.93-6.37
						c7.63-2.12,12.12-10.06,10-17.69l-3.56-12.8c4.33-1.46,7.37-2.6,7.98-3.09c6.61-5.39,16.54-4.44,22.13,2.11
						C311.76,49.87,325.03,73.59,322.2,83.96z"/>
					<g>
						
							<linearGradient id="SVGID_26_" gradientUnits="userSpaceOnUse" x1="211.5083" y1="59.6177" x2="235.0574" y2="96.2827" gradientTransform="matrix(0.9635 -0.2677 0.2677 0.9635 -0.0776 59.3866)">
							<stop  offset="0" style="stop-color:#00808F"/>
							<stop  offset="0.0136" style="stop-color:#04838C"/>
							<stop  offset="0.185" style="stop-color:#33A266"/>
							<stop  offset="0.3565" style="stop-color:#59BC46"/>
							<stop  offset="0.5252" style="stop-color:#77D12E"/>
							<stop  offset="0.6904" style="stop-color:#8DDF1C"/>
							<stop  offset="0.8506" style="stop-color:#9AE812"/>
							<stop  offset="1" style="stop-color:#9EEB0E"/>
						</linearGradient>
						<path class="st27" d="M235.32,72.6l-6.54,1.82c-1.65,0.46-3.36-0.51-3.82-2.16v0c-0.46-1.65,0.51-3.36,2.16-3.82l6.54-1.82
							c1.65-0.46,3.36,0.51,3.82,2.16l0,0C237.94,70.43,236.97,72.14,235.32,72.6z"/>
						
							<linearGradient id="SVGID_27_" gradientUnits="userSpaceOnUse" x1="227.5131" y1="49.3384" x2="251.0622" y2="86.0034" gradientTransform="matrix(0.9635 -0.2677 0.2677 0.9635 -0.0776 59.3866)">
							<stop  offset="0" style="stop-color:#00808F"/>
							<stop  offset="0.0136" style="stop-color:#04838C"/>
							<stop  offset="0.185" style="stop-color:#33A266"/>
							<stop  offset="0.3565" style="stop-color:#59BC46"/>
							<stop  offset="0.5252" style="stop-color:#77D12E"/>
							<stop  offset="0.6904" style="stop-color:#8DDF1C"/>
							<stop  offset="0.8506" style="stop-color:#9AE812"/>
							<stop  offset="1" style="stop-color:#9EEB0E"/>
						</linearGradient>
						<path class="st28" d="M257.1,66.55l-6.54,1.82c-1.65,0.46-3.36-0.51-3.82-2.16l0,0c-0.46-1.65,0.51-3.36,2.16-3.82l6.54-1.82
							c1.65-0.46,3.36,0.51,3.82,2.16l0,0C259.72,64.38,258.75,66.09,257.1,66.55z"/>
					</g>
				</g>
			</g>
			<linearGradient id="SVGID_28_" gradientUnits="userSpaceOnUse" x1="237.8479" y1="179.9724" x2="366.8835" y2="291.5709">
				<stop  offset="0" style="stop-color:#FF4400"/>
				<stop  offset="0.2205" style="stop-color:#FF7904"/>
				<stop  offset="0.4863" style="stop-color:#FFB209"/>
				<stop  offset="0.7144" style="stop-color:#FFDC0C"/>
				<stop  offset="0.8929" style="stop-color:#FFF60E"/>
				<stop  offset="1" style="stop-color:#FFFF0F"/>
			</linearGradient>
			<path class="st29" d="M176.88,209.24h147.91c5.22-7.45,9.97-15.39,14.21-23.78H162.66C166.91,193.85,171.65,201.78,176.88,209.24
				z"/>
			<linearGradient id="SVGID_29_" gradientUnits="userSpaceOnUse" x1="198.5621" y1="129.4897" x2="304.5898" y2="248.1774">
				<stop  offset="0" style="stop-color:#FF4400"/>
				<stop  offset="0.2205" style="stop-color:#FF7904"/>
				<stop  offset="0.4863" style="stop-color:#FFB209"/>
				<stop  offset="0.7144" style="stop-color:#FFDC0C"/>
				<stop  offset="0.8929" style="stop-color:#FFF60E"/>
				<stop  offset="1" style="stop-color:#FFFF0F"/>
			</linearGradient>
			<path class="st30" d="M170.2,198.98h161.26c2.66-4.37,5.18-8.87,7.54-13.52H162.66C165.02,190.11,167.54,194.61,170.2,198.98z"/>
			<g>
				<g>
					<linearGradient id="SVGID_30_" gradientUnits="userSpaceOnUse" x1="77.1931" y1="165.9022" x2="422.8069" y2="165.9022">
						<stop  offset="0" style="stop-color:#00808F"/>
						<stop  offset="0.0136" style="stop-color:#04838C"/>
						<stop  offset="0.185" style="stop-color:#33A266"/>
						<stop  offset="0.3565" style="stop-color:#59BC46"/>
						<stop  offset="0.5252" style="stop-color:#77D12E"/>
						<stop  offset="0.6904" style="stop-color:#8DDF1C"/>
						<stop  offset="0.8506" style="stop-color:#9AE812"/>
						<stop  offset="1" style="stop-color:#9EEB0E"/>
					</linearGradient>
					<path class="st31" d="M422.81,229.08l-24.76-35.86c1.11-1.6,1.74-3.51,1.74-5.48V169.6l21.12,23.95l-21.12-30.59v-50.63
						c0-5.3-4.31-9.61-9.61-9.61H109.82c-5.3,0-9.61,4.31-9.61,9.61v50.63L79.1,193.55l21.12-23.95v18.13
						c0,1.98,0.63,3.89,1.74,5.48l-24.76,35.86l28.72-32.58c1.23,0.54,2.56,0.84,3.91,0.84c0.91,0,1.81-0.13,2.68-0.38
						c5.29-1.54,10.61-2.98,15.95-4.34l-15.09,21.86l20.45-23.19c22.99-5.57,46.43-9.51,69.94-11.73
						c15.31-1.44,30.87-2.17,46.25-2.17c15.38,0,30.93,0.73,46.25,2.17c23.51,2.22,46.95,6.15,69.94,11.73l20.45,23.19l-15.09-21.86
						c5.35,1.36,10.67,2.8,15.95,4.34c0.87,0.25,1.77,0.38,2.68,0.38c1.34,0,2.68-0.29,3.9-0.84L422.81,229.08z"/>
					<linearGradient id="SVGID_31_" gradientUnits="userSpaceOnUse" x1="92.8062" y1="-12.3901" x2="421.1219" y2="326.8483">
						<stop  offset="0" style="stop-color:#5900C8"/>
						<stop  offset="0.057" style="stop-color:#5001B6"/>
						<stop  offset="0.2208" style="stop-color:#380287"/>
						<stop  offset="0.3847" style="stop-color:#240361"/>
						<stop  offset="0.5461" style="stop-color:#140443"/>
						<stop  offset="0.7041" style="stop-color:#09042D"/>
						<stop  offset="0.8572" style="stop-color:#020520"/>
						<stop  offset="1" style="stop-color:#00051C"/>
					</linearGradient>
					<path class="st32" d="M390.18,192.1c-0.41,0-0.82-0.06-1.22-0.17c-30.05-8.73-61.08-14.64-92.22-17.58
						c-15.47-1.46-31.2-2.2-46.74-2.2c-15.54,0-31.27,0.74-46.74,2.2c-31.15,2.94-62.18,8.85-92.22,17.58
						c-0.4,0.12-0.81,0.17-1.22,0.17c-0.94,0-1.86-0.3-2.62-0.88c-1.1-0.82-1.75-2.12-1.75-3.49v-75.4c0-2.41,1.96-4.37,4.37-4.37
						h280.36c2.41,0,4.37,1.96,4.37,4.37v75.4c0,1.37-0.65,2.67-1.75,3.49C392.04,191.8,391.11,192.1,390.18,192.1z"/>
					<linearGradient id="SVGID_32_" gradientUnits="userSpaceOnUse" x1="98.1301" y1="-6.8887" x2="415.3262" y2="320.8601">
						<stop  offset="0" style="stop-color:#5900C8"/>
						<stop  offset="0.057" style="stop-color:#5001B6"/>
						<stop  offset="0.2208" style="stop-color:#380287"/>
						<stop  offset="0.3847" style="stop-color:#240361"/>
						<stop  offset="0.5461" style="stop-color:#140443"/>
						<stop  offset="0.7041" style="stop-color:#09042D"/>
						<stop  offset="0.8572" style="stop-color:#020520"/>
						<stop  offset="1" style="stop-color:#00051C"/>
					</linearGradient>
					<path class="st33" d="M109.82,187.73c30.52-8.87,61.67-14.78,93.03-17.73c31.36-2.96,62.93-2.96,94.29,0
						c31.36,2.96,62.51,8.87,93.03,17.73c0-17.09,0-58.31,0-75.4c-31.15,0-62.3,0-93.45,0s-62.3,0-93.45,0c-31.15,0-62.3,0-93.45,0
						C109.82,129.43,109.82,170.64,109.82,187.73z"/>
				</g>
			</g>
			<linearGradient id="SVGID_33_" gradientUnits="userSpaceOnUse" x1="179.6804" y1="241.4917" x2="321.976" y2="241.4917">
				<stop  offset="0" style="stop-color:#FF4400"/>
				<stop  offset="0.2205" style="stop-color:#FF7904"/>
				<stop  offset="0.4863" style="stop-color:#FFB209"/>
				<stop  offset="0.7144" style="stop-color:#FFDC0C"/>
				<stop  offset="0.8929" style="stop-color:#FFF60E"/>
				<stop  offset="1" style="stop-color:#FFFF0F"/>
			</linearGradient>
			<path class="st34" d="M250.83,259.13c-26.61-11.88-50.41-27.29-71.15-46c2.37,3.2,4.83,6.32,7.38,9.33
				c17.16,20.23,38.6,36.16,63.77,47.4c25.17-11.24,46.61-27.17,63.77-47.4c2.55-3.01,5.01-6.13,7.38-9.33
				C301.24,231.83,277.44,247.25,250.83,259.13z"/>
		</g>
		<g>
			<g>
				<g>
					<g>
						<path class="st35" d="M156.99,170.46c-3.01,1.45-8.94,3.98-15.9,5.41c-7.8,1.59-14.22,1.59-19.19-2.73
							c-4.4-3.82-6.88-12.58-7.12-23.37c-0.38-17.17,9.51-33.52,28.15-33.57c5.92-0.02,10.7,0.91,12.92,1.8
							c-0.67,1.93-1,3-1.66,5.25c-2.76-1.14-6.24-2.03-11.46-1.82c-14.81,0.59-20.82,13.49-20.92,26.97
							c-0.1,12.44,5.44,24.98,19.78,22.21c4.32-0.83,7.36-1.91,8.9-2.94c0.05-6.24,0.07-10.05,0.12-17.61
							c-4.21,0.48-6.32,0.73-10.52,1.26c0.01-2.71,0.02-4.08,0.04-6.81c6.82-0.73,10.23-1.07,17.06-1.68
							C157.12,154.89,157.08,161.61,156.99,170.46z"/>
						<path class="st35" d="M175.75,153.82c-2.22,7.43-3.33,11.07-5.54,16.5c-2.78,0.41-4.16,0.62-6.93,1.06
							c6.42-18.24,10.49-37.53,18.1-55.34c3.24-0.04,4.86-0.06,8.1-0.09c6.66,16.43,10.04,34.1,17.41,50.24
							c-2.89,0.23-4.33,0.35-7.21,0.62c-2.19-4.51-3.28-7.75-5.46-14.56C186.82,152.78,183.13,153.1,175.75,153.82z M192.86,146.62
							c-2-6.52-2.99-10.04-4.98-16.34c-1.13-3.57-1.88-6.65-2.62-9.35c-0.06,0-0.09,0-0.15,0c-0.8,2.81-1.67,6.05-2.7,9.5
							c-2.09,6.58-3.13,10.31-5.22,17.36C183.45,147.26,186.59,147.03,192.86,146.62z"/>
						<path class="st35" d="M258.37,143.47c-0.4-7.73-0.87-17.11-0.8-22.66c-0.09,0-0.14,0-0.23,0c-1.77,5.21-3.93,12.07-6.56,19.74
							c-3.69,10.79-5.54,16.77-9.25,23.8c-2.05,0.03-3.08,0.05-5.13,0.1c-3.37-6.78-5.05-12.56-8.39-23.15
							c-2.45-7.84-4.51-15-5.95-20.34c-0.06,0-0.09,0-0.15,0c-0.18,5.63-0.61,15.13-1.11,23.53c-0.6,9.61-0.9,14.63-1.5,20.87
							c-2.58,0.14-3.87,0.22-6.44,0.4c1.58-16.66,2.26-33.38,3.91-50.03c3.42-0.02,5.14-0.03,8.56-0.04
							c3.51,6.93,5.27,12.86,8.81,23.6c2.15,6.84,3.92,12.91,5.24,17.81c0.09,0,0.14,0,0.23,0c1.33-4.8,3.2-10.89,5.53-17.92
							c3.72-10.78,5.58-16.69,9.27-23.54c3.42,0,5.14,0.01,8.56,0.01c1.36,16.35,1.94,32.76,3.37,49.1
							c-2.64-0.08-3.96-0.11-6.61-0.16C259.18,158.34,258.91,153.21,258.37,143.47z"/>
						<path class="st35" d="M283.23,115.72c0.11,16.6,0.16,33.2,0.26,49.8c-2.7-0.16-4.05-0.24-6.76-0.37
							c-0.09-16.49-0.12-32.98-0.21-49.46C279.21,115.7,280.55,115.7,283.23,115.72z"/>
						<path class="st35" d="M295.29,166.36c-0.14-16.85-0.19-33.71-0.34-50.56c2.93,0.02,4.4,0.04,7.33,0.06
							c6.84,8.11,11.78,17.73,16.88,26.96c3.91,7.26,6.97,13.85,9.48,19.46c0.06-0.02,0.09-0.03,0.15-0.06
							c-0.68-7.02-0.89-14.68-0.96-24.05c-0.08-10.06-0.11-15.26-0.19-22.02c2.53,0.04,3.79,0.05,6.32,0.09
							c0.19,18.26,0.27,36.51,0.45,54.77c-2.71-0.42-4.07-0.62-6.78-1.01c-6.4-8.97-11.49-18.86-16.75-28.52
							c-3.68-6.75-7.2-13.47-9.86-18.76c-0.09,0.03-0.14,0.04-0.23,0.07c0.43,6.12,0.63,13.26,0.69,22.79
							c0.06,9.81,0.09,14.92,0.16,21.34C299.1,166.69,297.83,166.58,295.29,166.36z"/>
						<path class="st35" d="M385.25,179.08c-2.96,0.4-8.79,0.62-15.73-0.94c-7.78-1.75-14.25-4.56-19.33-10.29
							c-4.49-5.06-7.05-13.56-7.38-23.07c-0.57-16.46,11.28-28.84,27.89-28.35c5.94,0.18,10.71,1.45,12.94,2.63
							c-0.64,2.22-0.96,3.41-1.6,5.89c-2.77-1.57-6.25-2.81-11.46-3.01c-13.81-0.53-20.82,10.21-20.69,23.16
							c0.13,13.28,6.65,24.87,20.06,27.74c4.3,0.92,7.31,0.88,8.83,0.35c-0.02-6.91-0.03-11.06-0.05-19.28
							c-4.19-0.62-6.28-0.92-10.48-1.49c-0.01-2.77-0.02-4.18-0.03-6.97c6.81,0.79,10.21,1.21,16.99,2.11
							C385.23,158.06,385.24,168.57,385.25,179.08z"/>
					</g>
					<g>
						<linearGradient id="SVGID_34_" gradientUnits="userSpaceOnUse" x1="131.6132" y1="121.1846" x2="167.0166" y2="278.0954">
							<stop  offset="0" style="stop-color:#5900C8"/>
							<stop  offset="0.057" style="stop-color:#5001B6"/>
							<stop  offset="0.2208" style="stop-color:#380287"/>
							<stop  offset="0.3847" style="stop-color:#240361"/>
							<stop  offset="0.5461" style="stop-color:#140443"/>
							<stop  offset="0.7041" style="stop-color:#09042D"/>
							<stop  offset="0.8572" style="stop-color:#020520"/>
							<stop  offset="1" style="stop-color:#00051C"/>
						</linearGradient>
						<path class="st36" d="M141.06,179.73c-9.51,2.11-17.13,2.48-22.58-1.95c-7.69-6.24-8.23-18.54-8.66-27.33
							c-1.01-20.74,10.43-38.38,33.14-38.13c6.67,0.07,12.22,0.98,15.1,1.97c2.2,0.76,3.29,2.69,2.58,4.82
							c-0.67,1.99-1,3.07-1.66,5.36c-0.42,1.45-1.42,2.73-2.73,3.46c-0.67,0.37-1.39,0.58-2.1,0.62c-0.69,0.04-1.38-0.08-2.03-0.37
							c-1.88-0.83-4.72-1.67-9.42-1.49c-11.07,0.42-16.13,11.22-15.91,21.02c0.29,12.98,5.34,19.11,14.84,17.54
							c1.59-0.26,2.89-0.58,3.91-0.88c0.02-2.93,0.03-4.48,0.05-7.66c-2.21,0.3-3.31,0.46-5.52,0.78c-2.75,0.4-4.97-2.04-4.95-5.56
							c0.01-2.75,0.02-4.14,0.03-6.91c0.02-3.55,2.27-6.59,5.02-6.83c6.82-0.61,10.24-0.89,17.07-1.4c2.76-0.21,4.99,2.27,4.96,5.57
							c-0.09,11.92-0.13,18.57-0.21,27.27c-0.02,1.84-1.36,3.48-3.35,4.35C154.64,175.77,148.34,178.12,141.06,179.73z"/>
						<linearGradient id="SVGID_35_" gradientUnits="userSpaceOnUse" x1="172.1641" y1="111.7088" x2="203.3316" y2="249.8459">
							<stop  offset="0" style="stop-color:#5900C8"/>
							<stop  offset="0.057" style="stop-color:#5001B6"/>
							<stop  offset="0.2208" style="stop-color:#380287"/>
							<stop  offset="0.3847" style="stop-color:#240361"/>
							<stop  offset="0.5461" style="stop-color:#140443"/>
							<stop  offset="0.7041" style="stop-color:#09042D"/>
							<stop  offset="0.8572" style="stop-color:#020520"/>
							<stop  offset="1" style="stop-color:#00051C"/>
						</linearGradient>
						<path class="st37" d="M199.64,170.02c-2.16,0.22-4.07-0.31-4.75-1.62c-1.73-3.33-2.59-5.63-4.31-10.67
							c-4.5,0.39-6.75,0.61-11.24,1.08c-1.75,5.47-2.63,8.04-4.38,12.01c-0.7,1.58-2.63,2.68-4.79,3.02
							c-2.78,0.44-4.16,0.67-6.93,1.16c-1.61,0.28-3.12,0.07-4.05-0.71c-0.93-0.78-1.16-2.07-0.63-3.48
							c6.75-18.38,10.15-37.96,18.09-55.91c0.71-1.47,2.63-2.25,4.77-2.25c3.24,0,4.86-0.01,8.09-0.01c2.14,0,4.04,0.74,4.72,2.12
							c7.02,16.21,10.41,33.7,17.44,49.9c0.52,1.11,0.26,2.27-0.7,3.15c-0.96,0.88-2.49,1.4-4.12,1.54
							C203.97,169.6,202.52,169.73,199.64,170.02z M185.89,141.43c-0.33-1.09-0.49-1.64-0.81-2.73c-0.34,1.13-0.51,1.7-0.85,2.84
							C184.89,141.49,185.22,141.47,185.89,141.43z"/>
						<linearGradient id="SVGID_36_" gradientUnits="userSpaceOnUse" x1="228.5872" y1="99.6665" x2="259.3978" y2="236.2213">
							<stop  offset="0" style="stop-color:#5900C8"/>
							<stop  offset="0.057" style="stop-color:#5001B6"/>
							<stop  offset="0.2208" style="stop-color:#380287"/>
							<stop  offset="0.3847" style="stop-color:#240361"/>
							<stop  offset="0.5461" style="stop-color:#140443"/>
							<stop  offset="0.7041" style="stop-color:#09042D"/>
							<stop  offset="0.8572" style="stop-color:#020520"/>
							<stop  offset="1" style="stop-color:#00051C"/>
						</linearGradient>
						<path class="st38" d="M259.73,167.6c-2.68-0.05-4.9-1.11-5.06-2.89c-0.44-5.06-0.66-8.92-1.1-16.72
							c-2.91,8.26-4.37,12.35-7.3,17.45c-0.73,1.27-2.63,1.95-4.76,1.98c-2.05,0.03-3.08,0.06-5.14,0.11
							c-2.17,0.06-4.09-0.57-4.78-1.86c-2.46-4.59-3.68-8.15-6.13-15.54c-0.45,7.07-0.68,10.49-1.14,15.18
							c-0.18,1.81-2.39,2.97-5.06,3.13c-2.58,0.16-3.87,0.24-6.45,0.43c-1.4,0.1-2.73-0.09-3.68-0.62
							c-0.95-0.53-1.43-1.38-1.32-2.38c1.57-16.77,2.26-33.61,3.94-50.36c0.2-1.82,2.39-2.89,5.02-2.89c3.42,0,5.13,0,8.55,0
							c2.12,0,4.01,0.67,4.71,1.94c3.52,6.38,5.28,12.17,8.82,22.87c0.25,0.8,0.49,1.57,0.73,2.33c0.25-0.76,0.5-1.54,0.77-2.34
							c3.74-10.8,5.6-16.6,9.31-22.92c0.73-1.24,2.6-1.88,4.7-1.88c3.42,0,5.13,0,8.55,0c2.65,0,4.84,1.04,5.01,2.83
							c1.39,16.4,1.98,32.86,3.41,49.26c0.09,0.97-0.4,1.79-1.35,2.34c-0.95,0.55-2.28,0.78-3.68,0.74
							C263.7,167.69,262.38,167.65,259.73,167.6z"/>
						<linearGradient id="SVGID_37_" gradientUnits="userSpaceOnUse" x1="268.9915" y1="91.692" x2="299.8569" y2="228.4904">
							<stop  offset="0" style="stop-color:#5900C8"/>
							<stop  offset="0.057" style="stop-color:#5001B6"/>
							<stop  offset="0.2208" style="stop-color:#380287"/>
							<stop  offset="0.3847" style="stop-color:#240361"/>
							<stop  offset="0.5461" style="stop-color:#140443"/>
							<stop  offset="0.7041" style="stop-color:#09042D"/>
							<stop  offset="0.8572" style="stop-color:#020520"/>
							<stop  offset="1" style="stop-color:#00051C"/>
						</linearGradient>
						<path class="st39" d="M276.76,168.22c-2.79-0.15-5.06-1.39-5.07-3.29c-0.07-16.42-0.1-32.84-0.18-49.26
							c-0.01-1.91,2.23-3.05,4.99-3.05c2.68,0,4.02,0,6.7,0c2.77,0,5.02,1.18,5.04,3.13c0.12,16.7,0.18,33.4,0.3,50.1
							c0.02,1.95-2.23,2.96-5.02,2.77C280.82,168.44,279.46,168.36,276.76,168.22z"/>
						<linearGradient id="SVGID_38_" gradientUnits="userSpaceOnUse" x1="301.28" y1="82.0304" x2="335.3935" y2="233.2245">
							<stop  offset="0" style="stop-color:#5900C8"/>
							<stop  offset="0.057" style="stop-color:#5001B6"/>
							<stop  offset="0.2208" style="stop-color:#380287"/>
							<stop  offset="0.3847" style="stop-color:#240361"/>
							<stop  offset="0.5461" style="stop-color:#140443"/>
							<stop  offset="0.7041" style="stop-color:#09042D"/>
							<stop  offset="0.8572" style="stop-color:#020520"/>
							<stop  offset="1" style="stop-color:#00051C"/>
						</linearGradient>
						<path class="st40" d="M327.68,173.5c-1.73-0.27-3.34-1.03-4.27-2.15c-6.72-8.34-11.8-18.02-16.9-27.39
							c0.01,0.64,0.18,23.48,0.18,23.48c0.02,2.03-2.22,3.01-5,2.73c-2.54-0.26-3.82-0.38-6.36-0.61c-2.79-0.25-5.06-1.61-5.08-3.57
							c-0.12-16.74-0.18-33.47-0.31-50.21c-0.02-1.96,2.21-3.14,4.98-3.14c2.93,0,4.39,0,7.32,0.01c1.72,0,3.32,0.48,4.25,1.42
							c6.83,7.27,11.51,16.36,16.33,24.97c0-0.39-0.19-22.93-0.19-22.93c-0.02-2.12,2.2-3.43,4.97-3.43c2.53,0,3.79,0.01,6.32,0.01
							c2.77,0,5.03,1.42,5.05,3.66c0.18,18.5,0.27,37,0.44,55.49c0.02,2.24-2.2,3.25-4.96,2.78
							C331.75,174.14,330.39,173.92,327.68,173.5z"/>
						<linearGradient id="SVGID_39_" gradientUnits="userSpaceOnUse" x1="347.5366" y1="64.2881" x2="387.3526" y2="240.7561">
							<stop  offset="0" style="stop-color:#5900C8"/>
							<stop  offset="0.057" style="stop-color:#5001B6"/>
							<stop  offset="0.2208" style="stop-color:#380287"/>
							<stop  offset="0.3847" style="stop-color:#240361"/>
							<stop  offset="0.5461" style="stop-color:#140443"/>
							<stop  offset="0.7041" style="stop-color:#09042D"/>
							<stop  offset="0.8572" style="stop-color:#020520"/>
							<stop  offset="1" style="stop-color:#00051C"/>
						</linearGradient>
						<path class="st41" d="M369.55,182.21c-9.47-2.32-16.93-5.5-22.77-11.47c-6.15-6.29-8.87-18.35-8.97-26.43
							c-0.23-19.08,13.95-32.16,32.87-31.98c6.68,0.06,12.24,1.15,15.13,2.44c2.21,0.98,3.32,3.43,2.63,5.95
							c-0.64,2.34-0.97,3.59-1.61,6.18c-0.41,1.64-1.39,2.99-2.69,3.64c-0.66,0.33-1.38,0.47-2.09,0.42
							c-0.69-0.05-1.38-0.28-2.03-0.69c-1.88-1.17-4.66-2.49-9.42-2.78c-10.06-0.61-15.53,5.82-15.72,18.13
							c-0.15,9.66,4.66,19.85,15.04,21.69c1.57,0.28,2.87,0.43,3.89,0.47c-0.01-3.12-0.02-4.76-0.03-8.13
							c-2.2-0.36-3.3-0.53-5.5-0.88c-2.75-0.43-4.99-3.52-5.01-7.02c-0.01-2.73-0.02-4.12-0.03-6.87c-0.02-3.53,2.2-6.14,4.96-5.88
							c6.81,0.66,10.22,1.01,17.01,1.76c2.75,0.3,4.97,3.63,4.97,7.46c0,10.7,0,21.39,0,32.09c0,2.25-1.3,3.68-3.26,3.81
							C383,184.36,376.8,183.99,369.55,182.21z"/>
					</g>
					<g>
						<linearGradient id="SVGID_40_" gradientUnits="userSpaceOnUse" x1="135.9875" y1="126.3357" x2="135.9875" y2="172.2841">
							<stop  offset="0" style="stop-color:#F5F5F5"/>
							<stop  offset="0.1202" style="stop-color:#F1F1F1"/>
							<stop  offset="0.249" style="stop-color:#E4E4E4"/>
							<stop  offset="0.3814" style="stop-color:#CECECE"/>
							<stop  offset="0.4424" style="stop-color:#C2C2C2"/>
							<stop  offset="0.4671" style="stop-color:#E2E2E2"/>
							<stop  offset="0.489" style="stop-color:#F7F7F7"/>
							<stop  offset="0.5033" style="stop-color:#FFFFFF"/>
							<stop  offset="1" style="stop-color:#FFFFFF"/>
						</linearGradient>
						<path class="st42" d="M156.99,170.46c-3.01,1.45-8.94,3.98-15.9,5.41c-7.8,1.59-14.22,1.59-19.19-2.73
							c-4.4-3.82-6.88-12.58-7.12-23.37c-0.38-17.17,9.51-33.52,28.15-33.57c5.92-0.02,10.7,0.91,12.92,1.8
							c-0.67,1.93-1,3-1.66,5.25c-2.76-1.14-6.24-2.03-11.46-1.82c-14.81,0.59-20.82,13.49-20.92,26.97
							c-0.1,12.44,5.44,24.98,19.78,22.21c4.32-0.83,7.36-1.91,8.9-2.94c0.05-6.24,0.07-10.05,0.12-17.61
							c-4.21,0.48-6.32,0.73-10.52,1.26c0.01-2.71,0.02-4.08,0.04-6.81c6.82-0.73,10.23-1.07,17.06-1.68
							C157.12,154.89,157.08,161.61,156.99,170.46z"/>
						<linearGradient id="SVGID_41_" gradientUnits="userSpaceOnUse" x1="185.0798" y1="124.8443" x2="185.0798" y2="167.7089">
							<stop  offset="0" style="stop-color:#F5F5F5"/>
							<stop  offset="0.1202" style="stop-color:#F1F1F1"/>
							<stop  offset="0.249" style="stop-color:#E4E4E4"/>
							<stop  offset="0.3814" style="stop-color:#CECECE"/>
							<stop  offset="0.4424" style="stop-color:#C2C2C2"/>
							<stop  offset="0.4671" style="stop-color:#E2E2E2"/>
							<stop  offset="0.489" style="stop-color:#F7F7F7"/>
							<stop  offset="0.5033" style="stop-color:#FFFFFF"/>
							<stop  offset="1" style="stop-color:#FFFFFF"/>
						</linearGradient>
						<path class="st43" d="M175.75,153.82c-2.22,7.43-3.33,11.07-5.54,16.5c-2.78,0.41-4.16,0.62-6.93,1.06
							c6.42-18.24,10.49-37.53,18.1-55.34c3.24-0.04,4.86-0.06,8.1-0.09c6.66,16.43,10.04,34.1,17.41,50.24
							c-2.89,0.23-4.33,0.35-7.21,0.62c-2.19-4.51-3.28-7.75-5.46-14.56C186.82,152.78,183.13,153.1,175.75,153.82z M192.86,146.62
							c-2-6.52-2.99-10.04-4.98-16.34c-1.13-3.57-1.88-6.65-2.62-9.35c-0.06,0-0.09,0-0.15,0c-0.8,2.81-1.67,6.05-2.7,9.5
							c-2.09,6.58-3.13,10.31-5.22,17.36C183.45,147.26,186.59,147.03,192.86,146.62z"/>
						<linearGradient id="SVGID_42_" gradientUnits="userSpaceOnUse" x1="239.5929" y1="123.6678" x2="239.5929" y2="162.4316">
							<stop  offset="0" style="stop-color:#F5F5F5"/>
							<stop  offset="0.1202" style="stop-color:#F1F1F1"/>
							<stop  offset="0.249" style="stop-color:#E4E4E4"/>
							<stop  offset="0.3814" style="stop-color:#CECECE"/>
							<stop  offset="0.4424" style="stop-color:#C2C2C2"/>
							<stop  offset="0.4671" style="stop-color:#E2E2E2"/>
							<stop  offset="0.489" style="stop-color:#F7F7F7"/>
							<stop  offset="0.5033" style="stop-color:#FFFFFF"/>
							<stop  offset="1" style="stop-color:#FFFFFF"/>
						</linearGradient>
						<path class="st44" d="M258.37,143.47c-0.4-7.73-0.87-17.11-0.8-22.66c-0.09,0-0.14,0-0.23,0c-1.77,5.21-3.93,12.07-6.56,19.74
							c-3.69,10.79-5.54,16.77-9.25,23.8c-2.05,0.03-3.08,0.05-5.13,0.1c-3.37-6.78-5.05-12.56-8.39-23.15
							c-2.45-7.84-4.51-15-5.95-20.34c-0.06,0-0.09,0-0.15,0c-0.18,5.63-0.61,15.13-1.11,23.53c-0.6,9.61-0.9,14.63-1.5,20.87
							c-2.58,0.14-3.87,0.22-6.44,0.4c1.58-16.66,2.26-33.38,3.91-50.03c3.42-0.02,5.14-0.03,8.56-0.04
							c3.51,6.93,5.27,12.86,8.81,23.6c2.15,6.84,3.92,12.91,5.24,17.81c0.09,0,0.14,0,0.23,0c1.33-4.8,3.2-10.89,5.53-17.92
							c3.72-10.78,5.58-16.69,9.27-23.54c3.42,0,5.14,0.01,8.56,0.01c1.36,16.35,1.94,32.76,3.37,49.1
							c-2.64-0.08-3.96-0.11-6.61-0.16C259.18,158.34,258.91,153.21,258.37,143.47z"/>
						<linearGradient id="SVGID_43_" gradientUnits="userSpaceOnUse" x1="280.0102" y1="123.6814" x2="280.0102" y2="162.2162">
							<stop  offset="0" style="stop-color:#F5F5F5"/>
							<stop  offset="0.1202" style="stop-color:#F1F1F1"/>
							<stop  offset="0.249" style="stop-color:#E4E4E4"/>
							<stop  offset="0.3814" style="stop-color:#CECECE"/>
							<stop  offset="0.4424" style="stop-color:#C2C2C2"/>
							<stop  offset="0.4671" style="stop-color:#E2E2E2"/>
							<stop  offset="0.489" style="stop-color:#F7F7F7"/>
							<stop  offset="0.5033" style="stop-color:#FFFFFF"/>
							<stop  offset="1" style="stop-color:#FFFFFF"/>
						</linearGradient>
						<path class="st45" d="M283.23,115.72c0.11,16.6,0.16,33.2,0.26,49.8c-2.7-0.16-4.05-0.24-6.76-0.37
							c-0.09-16.49-0.12-32.98-0.21-49.46C279.21,115.7,280.55,115.7,283.23,115.72z"/>
						<linearGradient id="SVGID_44_" gradientUnits="userSpaceOnUse" x1="314.6839" y1="124.6627" x2="314.6839" y2="167.3591">
							<stop  offset="0" style="stop-color:#F5F5F5"/>
							<stop  offset="0.1202" style="stop-color:#F1F1F1"/>
							<stop  offset="0.249" style="stop-color:#E4E4E4"/>
							<stop  offset="0.3814" style="stop-color:#CECECE"/>
							<stop  offset="0.4424" style="stop-color:#C2C2C2"/>
							<stop  offset="0.4671" style="stop-color:#E2E2E2"/>
							<stop  offset="0.489" style="stop-color:#F7F7F7"/>
							<stop  offset="0.5033" style="stop-color:#FFFFFF"/>
							<stop  offset="1" style="stop-color:#FFFFFF"/>
						</linearGradient>
						<path class="st46" d="M295.29,166.36c-0.14-16.85-0.19-33.71-0.34-50.56c2.93,0.02,4.4,0.04,7.33,0.06
							c6.84,8.11,11.78,17.73,16.88,26.96c3.91,7.26,6.97,13.85,9.48,19.46c0.06-0.02,0.09-0.03,0.15-0.06
							c-0.68-7.02-0.89-14.68-0.96-24.05c-0.08-10.06-0.11-15.26-0.19-22.02c2.53,0.04,3.79,0.05,6.32,0.09
							c0.19,18.26,0.27,36.51,0.45,54.77c-2.71-0.42-4.07-0.62-6.78-1.01c-6.4-8.97-11.49-18.86-16.75-28.52
							c-3.68-6.75-7.2-13.47-9.86-18.76c-0.09,0.03-0.14,0.04-0.23,0.07c0.43,6.12,0.63,13.26,0.69,22.79
							c0.06,9.81,0.09,14.92,0.16,21.34C299.1,166.69,297.83,166.58,295.29,166.36z"/>
						<linearGradient id="SVGID_45_" gradientUnits="userSpaceOnUse" x1="364.022" y1="126.9573" x2="364.022" y2="174.6473">
							<stop  offset="0" style="stop-color:#F5F5F5"/>
							<stop  offset="0.1202" style="stop-color:#F1F1F1"/>
							<stop  offset="0.249" style="stop-color:#E4E4E4"/>
							<stop  offset="0.3814" style="stop-color:#CECECE"/>
							<stop  offset="0.4424" style="stop-color:#C2C2C2"/>
							<stop  offset="0.4671" style="stop-color:#E2E2E2"/>
							<stop  offset="0.489" style="stop-color:#F7F7F7"/>
							<stop  offset="0.5033" style="stop-color:#FFFFFF"/>
							<stop  offset="1" style="stop-color:#FFFFFF"/>
						</linearGradient>
						<path class="st47" d="M385.25,179.08c-2.96,0.4-8.79,0.62-15.73-0.94c-7.78-1.75-14.25-4.56-19.33-10.29
							c-4.49-5.06-7.05-13.56-7.38-23.07c-0.57-16.46,11.28-28.84,27.89-28.35c5.94,0.18,10.71,1.45,12.94,2.63
							c-0.64,2.22-0.96,3.41-1.6,5.89c-2.77-1.57-6.25-2.81-11.46-3.01c-13.81-0.53-20.82,10.21-20.69,23.16
							c0.13,13.28,6.65,24.87,20.06,27.74c4.3,0.92,7.31,0.88,8.83,0.35c-0.02-6.91-0.03-11.06-0.05-19.28
							c-4.19-0.62-6.28-0.92-10.48-1.49c-0.01-2.77-0.02-4.18-0.03-6.97c6.81,0.79,10.21,1.21,16.99,2.11
							C385.23,158.06,385.24,168.57,385.25,179.08z"/>
					</g>
				</g>
			</g>
			<g>
				<path d="M181.88,195.34h-3.57v-2.89h10.44v2.89h-3.57v9.01h-3.3V195.34z"/>
				<path d="M191.31,198.44v-0.03c0-3.42,2.75-6.19,6.43-6.19s6.39,2.74,6.39,6.15v0.03c0,3.42-2.75,6.19-6.43,6.19
					C194.03,204.59,191.31,201.85,191.31,198.44z M200.76,198.44v-0.03c0-1.72-1.24-3.21-3.06-3.21c-1.8,0-3.01,1.46-3.01,3.18v0.03
					c0,1.72,1.24,3.21,3.04,3.21C199.56,201.62,200.76,200.15,200.76,198.44z"/>
				<path d="M207.73,199.13v-6.68h3.35v6.61c0,1.72,0.87,2.53,2.19,2.53s2.19-0.78,2.19-2.45v-6.7h3.35v6.59
					c0,3.84-2.19,5.52-5.58,5.52C209.86,204.57,207.73,202.86,207.73,199.13z"/>
				<path d="M222.81,192.45h5.63c1.82,0,3.08,0.48,3.88,1.29c0.7,0.68,1.05,1.6,1.05,2.77v0.03c0,1.82-0.97,3.03-2.45,3.65
					l2.84,4.15h-3.81l-2.4-3.6h-0.03h-1.41v3.6h-3.3V192.45z M228.29,198.17c1.12,0,1.77-0.54,1.77-1.41v-0.03
					c0-0.94-0.68-1.41-1.79-1.41h-2.16v2.86H228.29z"/>
				<path d="M237.08,192.45h3.08l4.9,6.29v-6.29h3.26v11.9h-2.89l-5.08-6.53v6.53h-3.26V192.45z"/>
				<path d="M256.57,192.37h3.18l5.07,11.98h-3.54l-0.87-2.12h-4.59l-0.85,2.12h-3.47L256.57,192.37z M259.46,199.66l-1.33-3.38
					l-1.34,3.38H259.46z"/>
				<path d="M268.02,192.45h3.48l2.84,4.61l2.84-4.61h3.48v11.9h-3.28v-6.83l-3.04,4.66h-0.07l-3.03-4.62v6.8h-3.23V192.45z"/>
				<path d="M284.81,192.45h9.57v2.8h-6.31v1.8h5.71v2.6h-5.71v1.89h6.39v2.8h-9.66V192.45z"/>
				<path d="M298.19,192.45h3.08l4.9,6.29v-6.29h3.26v11.9h-2.89l-5.08-6.53v6.53h-3.26V192.45z"/>
				<path d="M316.48,195.34h-3.57v-2.89h10.44v2.89h-3.57v9.01h-3.3V195.34z"/>
			</g>
		</g>
	</g>
</g>
</svg>
